P2
200 67
255
55 55 55 54 54 54 53 53 52 51 51 51 51 51 50 51 49 50 49 49 48 47 47 48 48 46 46 45 44 44 44 44 43 43 44 44 44 43 42 39 39 39 38 37 36 36 36 35 35 34 35 36 36 37 38 39 38 36 36 37 38 38 37 38 39 40 40 41 42 42 42 42 44 43 43 43 43 44 43 42 44 43 44 43 44 42 42 42 42 40 39 36 35 35 40 42 42 42 42 42 42 42 42 41 40 40 40 40 39 40 40 41 41 39 39 39 39 39 39 39 39 40 41 42 41 39 40 39 40 39 38 37 37 37 37 37 37 37 37 38 38 38 39 39 39 40 42 42 43 43 44 44 43 43 43 43 42 43 44 44 44 44 44 44 45 44 44 43 44 44 45 45 46 45 45 45 45 45 46 45 46 46 46 45 45 45 46 45 45 46 46 46 45 45 45 45 45 45 44 44 55 54 54 53 53 53 51 51 51 50 49 49 49 49 50 50 49 49 49 48 47 47 48 47 46 46 46 45 44 44 44 43 42 43 44 43 43 43 43 40 39 39 39 37 35 35 34 35 35 35 35 36 35 37 37 37 36 36 37 37 37 38 37 37 37 38 38 38 39 39 39 41 41 41 42 42 42 42 42 42 42 42 42 42 41 42 42 42 42 42 40 40 39 41 41 42 41 42 41 40 41 42 41 41 41 40 39 39 39 39 39 39 39 38 37 38 39 39 39 38 39 39 39 39 39 38 38 38 37 36 35 35 34 35 35 35 36 37 36 37 36 35 36 37 37 38 39 39 40 40 42 42 42 42 42 42 42 42 43 44 43 44 44 44 44 44 44 44 44 43 44 44 44 44 44 44 44 44 44 44 44 44 44 44 44 44 44 44 44 44 44 44 44 44 45 44 44 44 43 43 54 54 53 52 51 51 51 50 50 49 49 49 49 49 48 49 49 47 48 47 47 46 46 46 45 46 46 44 44 44 42 43 43 42 42 43 43 43 42 40 38 39 38 36 37 35 35 36 35 36 35 35 36 37 37 37 37 37 37 38 37 37 37 37 37 37 37 37 37 37 37 37 37 38 39 39 38 39 39 39 40 40 41 41 39 39 40 41 42 41 41 41 40 41 42 40 40 39 39 39 39 40 39 39 39 39 39 42 107 122 123 120 116 103 53 37 39 39 39 39 39 39 39 39 39 39 37 37 36 35 35 35 35 35 35 36 36 36 35 36 35 35 36 36 36 37 38 39 39 39 40 41 40 41 41 41 39 40 41 42 42 43 44 43 44 43 44 44 43 44 43 43 44 44 44 44 44 44 43 43 43 44 44 44 44 44 44 44 44 44 44 44 43 43 43 43 43 42 43 42 51 50 49 49 50 49 49 49 49 49 49 49 49 49 48 48 48 47 47 46 46 46 46 45 44 45 45 44 44 44 44 44 44 44 43 43 43 43 42 39 38 37 37 36 37 37 37 36 36 35 34 35 36 37 38 37 37 37 37 37 36 37 37 37 37 36 36 37 37 37 37 36 36 36 36 37 37 37 38 39 39 39 39 39 39 39 39 39 39 39 39 39 39 39 39 39 39 39 39 39 39 39 39 39 39 39 48 131 125 121 120 116 114 113 117 54 39 39 39 40 39 38 39 41 39 40 39 38 37 36 37 37 37 37 37 37 37 37 37 37 37 36 36 37 37 37 37 37 37 38 39 38 38 38 37 37 37 38 39 40 42 42 42 42 42 43 43 44 44 44 43 44 44 43 43 44 44 43 43 43 43 43 44 44 44 44 44 44 44 44 43 43 42 42 42 42 42 42 43 43 46 45 44 44 46 46 47 48 47 46 46 46 47 47 47 46 47 46 46 45 46 46 46 46 45 45 46 44 44 44 45 44 44 43 42 39 39 39 39 38 37 36 36 35 35 37 37 36 35 35 35 35 36 37 37 36 35 36 35 35 35 35 35 35 35 35 36 36 36 35 36 35 35 36 36 36 37 38 37 37 38 39 39 39 39 39 39 39 38 37 38 38 38 38 38 39 39 39 39 39 39 39 39 39 39 39 95 129 123 122 120 115 113 112 110 104 39 39 38 37 37 35 35 37 38 39 38 37 37 36 37 37 37 37 38 38 38 39 38 37 36 36 36 37 36 36 36 36 37 36 36 37 37 36 35 35 35 36 37 38 39 40 41 42 42 42 42 42 42 42 42 42 42 43 42 42 43 43 42 42 42 42 42 42 43 42 43 43 42 42 42 42 42 42 42 41 41 42 41 41 43 43 43 43 44 44 46 46 46 46 46 47 47 46 47 47 46 46 45 45 46 46 46 46 45 45 46 45 45 44 44 42 41 39 37 37 39 38 38 37 35 35 35 35 35 37 37 36 36 36 36 36 36 37 35 35 34 35 35 35 35 35 34 34 35 35 33 33 33 33 33 33 34 35 35 35 36 36 37 35 37 37 38 38 39 39 39 39 39 39 39 39 38 38 38 38 39 39 39 39 39 39 38 39 39 38 108 128 124 121 120 115 113 112 110 110 39 40 39 39 39 38 35 33 36 37 36 36 37 36 36 37 37 37 37 37 37 37 38 37 36 35 37 36 36 37 36 36 37 36 36 35 35 35 35 36 35 35 35 37 37 37 38 39 39 39 40 39 39 40 40 41 41 41 42 42 42 42 42 42 42 41 42 42 42 42 41 41 40 41 41 40 40 40 39 39 39 39 38 38 43 44 44 44 44 46 47 49 47 47 47 48 48 48 47 46 46 48 46 46 45 46 46 46 46 45 46 45 45 45 44 43 41 36 33 35 37 37 37 37 37 37 35 35 36 36 37 37 37 37 37 37 37 36 36 35 35 34 33 33 33 33 33 33 32 31 31 32 30 31 32 32 32 33 33 34 35 35 35 35 35 35 35 36 37 37 38 38 39 39 39 38 37 38 37 37 37 37 38 39 39 39 38 38 37 37 108 127 124 121 120 116 114 111 110 110 39 39 39 39 39 38 35 32 33 34 34 33 34 35 35 35 35 35 35 35 35 35 35 36 36 36 37 35 36 35 36 36 36 36 36 37 37 37 37 36 35 35 35 35 35 36 36 37 37 37 37 37 37 37 36 37 38 39 39 40 40 40 40 41 41 41 40 39 40 40 39 40 39 39 39 39 39 39 38 38 38 37 36 36 46 47 46 47 49 49 49 49 49 49 48 48 48 48 48 48 48 48 47 46 46 46 46 46 45 45 45 44 43 42 42 41 41 39 37 38 38 37 37 38 39 37 36 35 36 36 37 37 37 37 35 35 36 36 36 36 35 35 34 33 33 33 32 32 32 32 33 33 33 33 33 33 33 33 34 35 35 36 35 35 35 35 35 35 37 36 37 37 38 37 37 37 37 38 37 37 37 37 37 38 37 37 36 36 35 35 108 127 123 121 120 117 113 111 108 110 36 37 37 38 38 37 35 33 32 31 30 32 33 33 33 33 33 33 34 34 34 34 34 34 35 35 36 35 35 35 35 36 37 37 37 37 38 37 38 37 37 37 35 35 35 35 35 35 35 35 35 35 35 35 35 36 37 37 38 39 39 41 40 42 41 40 40 40 41 40 39 39 39 39 39 38 38 38 37 37 37 36 35 35 52 51 51 50 51 49 49 49 49 49 49 49 49 49 48 48 48 47 46 46 46 46 46 46 45 45 45 44 42 42 42 41 40 39 40 40 39 39 39 37 37 36 34 35 35 35 36 37 37 35 34 33 35 35 35 35 35 35 35 35 34 35 34 34 35 35 35 36 35 36 37 37 36 36 36 35 37 36 36 36 35 35 35 35 36 36 35 35 37 37 37 37 37 37 37 36 37 36 36 36 36 35 35 34 33 33 108 127 124 122 120 116 113 111 108 110 34 35 35 35 35 35 33 32 29 29 29 30 31 32 32 33 32 32 33 33 33 33 34 34 35 35 35 35 35 35 36 36 37 38 39 39 38 39 39 39 38 37 37 37 35 35 35 35 35 35 35 35 35 35 36 37 37 37 37 39 39 39 39 40 41 41 41 41 41 41 40 40 39 38 38 39 38 38 38 37 37 37 36 36 54 54 53 51 52 51 49 48 49 48 48 49 50 49 49 48 48 48 48 47 46 46 46 46 45 44 44 44 43 42 42 42 42 42 41 40 39 39 37 35 35 33 33 33 35 35 35 35 35 35 33 33 33 33 34 35 35 36 35 35 35 35 36 37 37 37 37 37 37 37 38 39 39 38 37 37 37 37 36 35 35 35 35 35 36 35 34 34 35 34 33 35 34 34 34 34 34 34 34 34 34 34 33 33 33 33 108 127 124 122 120 116 114 111 110 110 32 33 32 32 33 32 30 28 28 28 28 28 29 30 32 32 32 32 33 32 33 33 33 34 34 35 35 36 36 36 37 38 39 39 39 39 39 39 38 38 38 37 37 37 36 36 36 36 36 36 36 35 36 36 37 37 37 37 37 37 38 38 39 39 39 39 40 39 39 40 39 39 39 38 39 39 38 38 37 38 38 38 37 37 56 56 54 54 51 51 50 49 49 49 49 48 48 49 49 47 47 46 46 46 46 45 44 44 45 45 45 44 44 44 42 41 41 42 42 39 37 36 35 33 31 32 32 32 32 33 33 33 35 35 34 33 32 33 34 35 35 35 35 36 36 36 37 37 37 37 38 39 38 38 38 38 55 82 90 82 50 37 37 35 35 35 35 35 44 72 86 88 77 58 33 33 33 34 33 33 33 34 34 33 33 32 33 33 33 33 108 127 124 121 119 115 114 111 110 110 30 30 30 30 30 28 26 25 25 26 27 28 28 29 30 31 32 33 32 32 33 33 33 33 34 49 60 64 65 61 54 38 38 38 38 38 38 38 38 39 38 38 38 37 37 37 37 37 37 44 73 79 82 70 35 37 37 37 36 37 37 37 37 37 37 38 38 39 39 39 39 39 38 52 84 93 92 79 42 37 37 37 37 35 56 54 52 52 51 51 51 49 51 50 51 50 49 48 48 47 46 46 46 45 44 43 42 42 43 43 42 44 43 44 43 41 40 39 39 36 33 33 33 30 30 30 30 29 29 32 32 33 35 36 33 32 33 33 35 34 34 33 33 35 36 37 37 37 37 38 39 39 39 39 35 140 155 154 152 154 154 136 37 37 36 42 112 143 153 153 152 151 153 153 148 125 70 33 33 33 33 34 33 33 33 32 32 32 32 32 108 127 123 121 119 115 114 111 108 110 29 29 30 29 27 25 23 22 23 25 26 26 27 28 29 31 32 31 32 32 32 47 70 79 83 79 78 76 78 79 81 85 84 75 54 38 38 38 38 39 38 38 38 38 37 38 38 38 84 96 90 90 92 94 99 63 38 38 37 37 37 37 37 37 37 37 37 37 37 38 38 37 93 111 106 105 106 108 113 81 37 36 35 35 54 54 52 52 52 51 50 48 48 49 49 50 48 46 46 46 46 44 44 41 39 38 37 38 38 38 39 39 39 40 39 39 37 36 36 33 32 31 31 30 30 29 29 28 29 31 31 32 32 32 32 30 31 32 32 32 32 33 34 35 36 37 38 38 39 39 39 40 39 39 130 147 147 147 147 147 147 146 132 37 106 151 147 146 146 145 145 145 145 145 145 145 150 125 32 32 33 33 34 33 33 33 32 31 30 30 108 127 123 121 119 115 114 111 108 108 29 30 30 29 26 22 21 21 22 23 24 25 26 28 28 30 31 32 33 36 78 79 78 77 76 76 77 75 76 77 77 78 78 81 83 84 43 37 38 39 38 39 39 39 39 39 39 49 92 88 89 90 90 92 92 99 36 38 38 38 39 38 37 37 37 37 37 37 37 37 37 70 105 106 104 105 105 106 106 112 37 36 35 35 51 50 50 49 49 49 47 47 47 46 46 47 46 44 44 43 42 42 41 38 36 35 33 33 33 33 33 34 34 35 34 35 35 34 33 33 30 29 29 29 28 26 26 26 28 29 29 28 28 28 30 28 28 29 28 27 28 30 31 33 35 37 38 38 39 39 39 39 39 39 153 146 146 146 146 146 147 146 146 131 147 146 145 145 145 145 145 145 145 144 144 144 144 145 138 32 33 33 33 33 33 33 32 30 30 30 107 128 124 121 119 115 114 110 108 110 28 30 31 29 26 23 21 21 23 23 24 25 26 28 28 30 30 32 50 83 76 76 77 77 75 75 76 76 75 76 77 77 78 79 79 81 84 70 37 37 38 38 38 38 39 39 39 63 88 87 88 89 89 90 92 90 83 38 38 38 38 39 39 38 38 38 38 38 37 37 37 104 104 103 104 105 105 105 106 111 35 35 35 35 49 49 47 47 47 46 46 46 47 46 45 44 44 42 40 40 40 38 36 35 33 32 32 32 31 31 31 30 30 30 30 31 30 30 30 30 28 27 27 26 25 25 25 25 25 27 26 25 25 26 27 27 27 26 26 26 26 28 29 31 33 36 38 37 38 39 39 39 39 39 152 145 146 146 145 145 145 145 145 147 146 145 144 144 144 144 144 144 144 144 144 143 143 143 146 136 33 33 33 33 33 32 30 30 29 29 108 128 124 121 119 115 114 110 108 108 30 30 30 29 27 25 24 24 25 25 26 27 28 30 30 31 32 36 82 77 77 76 76 76 75 75 75 75 75 75 76 77 77 78 79 78 79 83 71 38 37 37 37 37 38 38 39 50 90 87 87 88 89 89 90 92 98 37 38 38 37 38 38 38 38 38 37 37 37 37 66 104 102 102 103 104 105 106 104 112 36 36 36 37 50 49 48 46 46 45 46 45 46 46 44 44 42 39 39 39 70 108 105 65 32 31 30 31 31 31 30 30 29 28 28 28 27 26 27 26 25 23 23 23 23 23 23 23 23 24 24 24 25 25 26 26 26 26 25 25 26 27 28 30 33 35 37 38 39 39 39 39 39 39 153 145 145 146 145 145 145 145 145 145 144 144 145 144 144 144 143 143 143 143 143 143 144 144 141 146 101 33 33 33 32 30 30 29 28 28 108 128 124 121 119 115 113 111 110 108 32 32 31 30 28 28 28 28 28 28 28 29 30 31 31 32 32 73 78 74 77 75 74 76 74 75 75 74 74 75 75 76 77 77 77 78 79 79 82 63 37 37 37 37 37 38 37 37 88 86 86 87 88 88 88 92 90 70 37 37 37 38 37 37 37 37 37 37 37 37 97 98 99 101 102 103 104 104 104 99 37 37 37 38 51 49 49 46 45 45 44 44 44 43 44 44 42 39 37 68 147 140 139 144 44 30 31 31 30 30 30 29 28 28 28 27 27 26 25 23 22 21 21 21 21 20 21 23 23 24 23 23 24 25 25 26 26 26 25 24 25 27 27 29 32 35 37 38 39 39 39 39 39 39 151 145 145 145 144 144 144 144 143 144 145 144 144 144 144 144 144 143 143 143 141 141 141 141 141 141 148 43 34 33 33 32 31 30 29 28 108 127 124 121 120 117 115 111 108 108 33 33 32 30 31 30 31 31 30 30 30 30 30 31 33 33 33 82 77 76 75 75 75 75 74 74 74 75 75 74 75 75 75 76 77 78 78 79 79 85 36 37 37 37 37 38 38 37 77 85 87 87 88 88 88 87 89 88 37 37 37 37 37 37 37 37 38 37 38 39 106 98 99 99 101 102 103 103 105 72 39 38 39 39 49 47 46 46 46 44 42 42 42 42 42 41 40 39 36 96 144 140 141 143 62 31 31 31 30 30 29 29 28 29 29 28 28 25 23 23 21 21 21 21 21 20 20 23 24 25 24 24 25 26 27 27 26 26 25 24 25 26 26 29 32 35 37 39 40 41 41 40 40 39 151 145 144 144 144 143 144 144 143 143 143 144 148 148 143 146 150 141 143 141 140 140 140 141 141 141 141 123 35 34 33 33 33 32 32 31 108 127 125 121 119 117 115 113 110 108 32 32 31 31 31 31 32 33 33 33 33 33 32 33 33 33 33 83 77 76 76 76 73 74 77 79 81 78 77 74 75 75 76 76 77 77 77 78 78 79 82 38 38 38 39 38 38 38 41 89 85 86 87 87 88 88 89 93 37 37 37 37 38 37 38 38 37 37 39 71 97 98 98 99 99 101 102 102 107 38 38 38 37 37 48 47 45 44 44 42 42 41 41 39 38 37 37 36 35 97 144 141 140 146 62 30 30 30 30 30 30 30 29 29 28 29 28 26 23 23 23 22 21 21 20 20 21 25 25 26 26 27 28 28 28 28 26 26 25 25 26 26 28 30 32 36 38 40 41 41 39 39 39 39 151 144 143 143 143 143 143 143 143 143 145 135 73 37 36 37 58 130 144 140 140 140 140 140 140 140 140 141 37 35 34 34 33 33 34 33 108 127 125 121 119 117 115 113 111 110 32 32 32 32 32 32 32 32 33 33 33 34 34 35 35 35 35 82 77 75 75 76 79 64 45 36 36 35 36 59 75 77 73 74 75 76 76 77 77 77 81 47 38 38 38 38 38 38 39 85 85 86 85 86 87 87 88 92 61 37 38 37 37 37 37 37 37 37 37 94 97 97 97 98 98 99 98 101 90 36 37 37 37 37 49 48 46 45 43 42 40 39 39 37 37 37 35 34 34 96 145 141 141 145 61 30 30 30 30 30 30 30 30 30 29 29 27 26 25 25 25 25 24 23 24 25 26 27 27 27 28 29 29 29 28 28 26 26 25 25 26 27 28 30 31 34 37 39 39 39 39 37 37 37 150 143 143 143 141 141 141 141 140 145 103 37 37 37 36 37 37 37 125 140 139 139 139 139 139 139 140 143 78 36 36 35 34 33 33 35 108 128 125 122 120 117 115 112 111 110 33 33 33 33 33 33 33 33 33 33 33 33 35 35 35 36 36 48 81 81 73 48 37 36 35 35 35 35 35 35 35 46 77 73 75 75 76 77 77 77 77 75 37 37 38 38 38 38 38 61 86 85 86 85 86 86 87 87 86 37 37 37 38 37 37 37 37 37 39 99 95 96 96 97 97 98 98 105 59 35 36 35 35 35 48 47 46 45 64 78 41 39 38 37 37 68 73 33 33 97 145 143 143 144 99 57 57 30 30 30 30 75 73 30 29 28 28 27 25 25 26 25 25 71 65 26 27 28 28 28 28 28 29 29 47 60 57 38 25 26 28 28 30 30 30 31 33 36 37 37 36 35 35 35 148 141 143 141 140 140 140 141 144 78 37 36 35 35 35 36 36 37 37 140 140 139 139 139 139 139 139 139 114 35 35 34 33 34 35 35 108 128 125 123 120 117 115 113 111 111 33 33 33 34 33 33 33 33 34 33 33 33 34 35 35 35 36 36 36 35 35 35 35 34 34 34 34 35 35 35 35 35 35 76 75 74 75 75 76 76 77 82 36 37 37 38 38 38 38 37 86 84 84 85 85 85 85 86 94 37 37 37 37 37 37 36 36 36 67 96 96 96 96 97 97 97 97 103 35 35 35 35 35 35 46 45 45 124 158 157 154 40 57 135 153 152 151 112 35 97 146 144 144 141 144 144 144 137 31 31 135 139 138 137 29 29 28 28 27 27 26 26 129 131 131 123 28 28 28 28 27 61 108 127 124 125 123 122 121 87 29 29 31 32 32 32 33 35 35 35 34 34 34 33 148 141 141 140 140 140 140 141 143 42 34 33 34 35 37 37 37 37 36 98 143 139 139 138 138 138 138 139 135 35 33 34 33 35 35 35 108 128 124 122 121 117 116 113 111 112 34 34 34 35 34 34 33 33 33 33 33 33 33 33 33 34 34 35 34 34 34 33 33 34 35 35 35 35 35 35 35 35 35 35 77 73 74 75 75 76 77 78 55 37 37 37 37 37 37 37 82 82 84 84 84 85 84 85 87 73 36 36 37 37 36 36 35 35 89 93 94 94 95 96 97 97 99 76 35 35 35 35 35 35 44 45 45 147 154 153 155 127 153 148 150 150 147 123 37 98 146 144 144 143 141 141 141 145 60 32 139 137 137 136 99 29 29 28 28 28 28 107 130 130 129 130 26 26 27 27 104 128 123 123 121 122 121 120 119 120 119 61 29 30 31 32 34 35 34 33 33 33 33 32 147 140 140 140 139 139 140 140 143 42 34 35 35 36 37 37 37 37 36 55 144 138 139 138 138 138 137 138 143 36 36 35 33 34 36 36 108 128 125 123 121 119 116 114 112 112 34 34 34 35 34 33 33 33 33 34 34 33 33 33 33 33 33 34 33 33 33 33 35 34 34 35 35 35 35 35 35 35 36 36 60 73 74 74 74 75 76 75 74 36 36 36 35 35 36 35 58 83 83 83 83 84 84 84 86 87 35 35 35 35 35 34 34 34 98 92 93 93 94 95 95 97 102 35 35 35 36 36 36 35 43 44 44 147 154 154 153 153 151 151 150 148 150 119 37 98 147 144 144 145 144 141 141 146 59 34 125 136 137 138 130 30 30 29 30 29 28 133 130 130 129 115 25 26 26 115 127 125 124 123 128 128 127 124 120 120 120 120 58 25 28 30 32 32 33 32 30 30 29 28 146 140 139 139 139 139 140 139 143 42 35 35 36 37 37 38 38 38 37 37 136 137 138 138 138 138 138 137 143 65 35 35 35 34 34 36 108 128 125 123 121 119 117 114 112 112 33 33 34 34 33 33 33 33 34 35 35 34 35 35 33 33 33 33 33 33 32 33 33 33 34 34 35 34 34 35 35 35 35 35 36 76 73 73 73 74 76 76 79 35 35 35 35 34 35 35 34 87 82 83 83 83 84 85 85 89 35 35 35 34 34 34 34 73 90 92 92 93 93 95 95 95 94 35 35 35 35 35 35 35 44 44 42 148 155 154 154 152 152 152 152 153 154 87 36 99 148 145 145 144 145 146 145 133 34 35 73 143 138 137 140 63 30 30 30 30 65 136 130 130 130 78 25 26 105 128 125 124 127 104 44 22 20 79 124 121 120 120 121 21 23 26 30 30 33 33 31 30 27 26 146 139 139 138 138 138 139 139 141 42 33 33 33 35 34 35 37 37 37 37 125 138 137 138 137 137 137 137 140 86 33 33 33 33 33 33 108 129 125 123 122 119 117 114 112 113 34 34 34 33 33 33 33 33 33 33 34 33 34 34 34 34 34 33 33 32 32 33 33 33 33 33 33 33 33 33 33 34 34 34 35 75 72 73 73 74 74 74 82 34 33 33 33 33 33 33 33 71 81 83 81 83 83 84 85 84 70 33 34 34 33 33 33 95 89 90 92 92 93 93 94 95 73 34 34 35 35 35 35 35 43 42 41 148 158 154 154 153 154 153 116 94 85 35 34 99 148 146 146 147 98 51 50 33 33 33 33 143 138 139 137 112 30 29 30 30 111 132 131 130 131 26 25 48 131 128 127 128 85 27 27 24 21 19 51 122 121 121 121 86 25 28 29 31 32 32 30 26 24 24 146 139 138 139 139 139 138 138 141 41 29 28 29 30 30 32 33 33 35 35 112 137 137 136 136 136 136 136 138 98 33 33 33 33 33 32 107 128 124 123 121 120 117 115 113 113 35 35 34 33 33 33 33 33 33 33 33 33 34 34 34 33 33 33 33 33 33 32 32 32 33 33 33 33 33 33 33 33 33 33 33 70 71 72 73 73 73 74 79 33 33 33 32 32 32 32 33 39 84 82 81 82 83 83 83 84 85 33 32 33 33 33 36 92 89 90 90 92 92 92 93 99 34 34 34 34 35 35 35 35 39 40 40 150 158 157 155 155 150 42 35 35 34 33 33 101 150 147 146 151 64 32 32 32 32 32 30 113 141 138 138 137 30 29 29 30 135 135 132 132 101 25 24 107 129 129 128 110 26 26 26 26 25 22 20 89 122 120 120 117 28 29 29 30 30 30 26 24 23 23 145 138 138 138 138 138 137 138 141 41 25 25 25 25 26 27 28 30 30 30 99 137 136 136 136 136 136 135 136 105 33 33 33 33 33 32 107 128 124 123 122 120 117 116 113 114 35 35 35 35 35 34 34 33 34 34 34 35 34 35 33 33 33 33 33 33 32 33 32 32 32 32 32 32 32 32 32 32 32 33 33 65 71 72 72 73 73 73 76 38 32 32 32 32 32 32 33 32 82 79 82 82 82 83 82 84 88 42 32 32 32 32 70 88 87 89 89 90 92 92 90 87 32 32 33 33 33 33 34 34 39 38 37 150 159 158 157 160 75 35 35 35 35 34 33 101 150 148 146 151 65 32 31 31 30 30 29 60 144 140 138 141 68 29 29 79 138 135 133 137 57 25 23 133 130 127 132 62 23 25 25 25 25 24 23 62 123 121 120 122 48 30 28 28 30 29 28 25 23 23 143 137 138 138 138 138 137 137 140 41 23 23 23 24 25 25 25 25 26 27 94 136 136 135 135 136 136 135 133 107 33 34 33 32 33 33 108 129 125 124 122 120 119 116 113 114 35 35 35 35 35 35 35 35 35 35 35 35 34 34 33 33 33 33 33 33 33 33 32 31 31 31 30 30 36 46 53 57 60 63 62 71 71 72 72 71 72 73 73 46 32 32 32 32 32 32 32 32 64 79 79 81 81 81 82 83 84 70 32 32 32 32 87 87 87 88 88 89 89 90 96 48 32 32 31 32 32 32 33 33 37 37 37 151 159 158 158 162 36 35 35 35 35 34 33 102 151 148 146 152 65 32 32 30 31 30 30 28 132 139 140 138 120 26 26 115 135 135 135 130 24 23 70 133 130 130 130 35 23 23 23 23 23 23 23 37 124 121 121 122 75 27 27 26 26 26 26 25 23 23 143 137 137 137 137 137 137 136 140 41 23 23 24 24 24 23 24 23 25 25 87 136 135 135 135 133 135 133 133 108 35 33 33 33 33 33 108 128 125 124 122 120 119 116 114 115 35 35 35 35 34 35 35 35 35 35 35 33 34 33 33 33 33 33 33 33 32 32 32 31 53 68 74 75 75 74 72 71 71 71 70 73 71 72 72 71 71 72 72 52 30 31 31 31 31 31 31 30 30 82 79 79 79 81 81 82 82 85 31 31 31 42 90 85 87 87 88 88 88 89 95 30 30 30 31 30 31 32 32 32 37 37 37 152 159 159 157 162 35 34 34 35 33 33 33 102 152 150 148 153 66 30 31 31 31 30 30 30 98 141 140 139 139 26 25 141 136 135 136 92 23 23 99 132 130 130 130 23 23 22 21 22 23 22 23 23 127 122 121 122 81 25 25 25 25 24 23 21 20 19 143 136 136 136 136 136 135 136 138 39 21 22 22 21 21 21 22 23 23 25 85 136 133 133 132 131 132 131 132 108 35 34 33 33 35 35 108 128 125 124 122 121 119 116 114 115 33 33 34 33 34 33 34 34 34 33 33 33 33 33 33 33 33 32 32 32 31 41 74 76 73 73 73 72 72 71 72 71 71 71 72 70 71 70 71 72 73 72 72 55 29 29 30 30 30 30 30 30 29 75 77 78 79 79 81 82 81 85 43 30 30 72 85 86 85 86 87 88 87 89 76 30 30 30 30 30 30 31 32 31 37 36 36 153 160 159 159 163 33 33 33 33 33 33 32 103 152 151 148 153 67 31 30 32 31 30 30 30 51 146 140 140 141 89 90 139 137 137 137 36 23 23 113 132 131 131 131 120 115 114 114 113 113 113 111 117 124 123 122 123 83 22 23 23 21 21 21 20 18 17 141 136 136 135 135 136 135 135 138 39 20 20 19 19 20 20 21 21 22 24 84 135 132 132 131 131 130 130 129 108 35 35 35 35 35 35 106 125 124 123 122 121 119 116 114 115 33 33 33 33 33 32 33 32 33 32 32 32 32 32 32 32 31 30 30 30 71 79 74 74 74 73 72 72 72 72 71 71 71 70 71 70 71 71 71 71 71 72 72 54 28 28 28 28 29 28 28 28 28 61 78 78 78 78 79 81 81 81 74 28 28 85 84 84 85 85 86 87 87 92 42 28 28 28 29 29 29 30 30 30 36 36 36 153 161 161 159 163 34 33 32 33 32 33 33 102 154 151 150 153 67 31 31 31 32 31 30 30 31 130 140 140 140 138 137 139 137 137 120 25 25 25 124 133 131 131 131 130 130 129 128 127 125 124 124 124 123 123 123 123 81 21 21 20 20 20 20 20 18 17 140 136 135 135 135 135 133 133 138 39 18 18 18 19 21 21 21 22 23 24 86 131 129 129 129 128 127 127 125 103 33 33 34 33 33 33 104 124 123 122 121 120 117 117 115 115 32 32 32 31 30 31 31 31 31 30 30 30 30 31 30 30 30 30 30 81 77 76 76 75 74 74 72 72 71 72 71 72 71 71 71 71 71 72 72 71 71 71 72 54 27 28 28 28 28 28 28 27 28 28 82 76 77 77 78 79 79 79 83 51 61 84 82 84 84 84 86 87 86 87 28 28 28 28 28 28 28 28 29 29 36 35 35 154 162 161 160 165 34 33 32 33 32 32 33 94 155 152 151 153 74 30 30 31 31 30 30 30 30 79 145 141 141 140 140 138 139 139 86 26 25 25 125 132 133 132 131 130 131 130 129 128 127 127 127 124 124 124 124 124 49 20 20 19 20 20 20 19 18 17 139 135 133 135 135 133 133 133 137 38 19 19 20 21 21 21 22 23 23 25 89 127 125 124 123 122 122 121 121 96 32 32 32 32 33 33 102 120 121 120 120 119 117 117 115 115 31 30 31 30 30 30 30 30 30 30 30 30 30 30 30 30 29 29 86 77 77 76 76 75 74 74 73 72 72 72 72 70 71 71 72 71 70 71 71 71 71 71 71 54 27 27 27 27 26 27 28 27 27 27 68 76 75 78 78 78 79 79 78 83 83 83 82 84 84 84 85 86 87 66 26 27 27 27 27 28 28 28 28 28 35 35 35 155 162 163 161 166 34 33 32 33 33 33 32 76 159 153 152 154 103 30 30 30 30 30 29 29 29 30 141 143 141 140 140 139 138 139 26 25 25 25 127 133 135 132 131 128 124 124 123 123 122 122 121 120 120 119 114 74 21 21 20 20 19 20 20 20 19 17 139 133 133 133 133 132 132 132 137 39 19 19 20 21 22 22 22 23 25 25 90 121 120 117 117 116 116 116 116 85 31 32 31 32 32 33 98 117 116 116 116 117 116 115 115 115 30 30 30 30 30 30 30 30 30 30 30 30 30 30 30 29 30 71 83 81 78 77 77 75 74 74 73 76 74 70 58 52 48 44 45 74 70 71 71 71 71 71 71 53 26 27 27 26 25 27 27 27 26 27 41 78 77 78 78 79 79 79 81 81 81 81 82 83 84 85 85 86 92 35 26 26 26 26 26 26 27 27 28 28 33 35 34 155 163 163 161 167 33 33 32 32 32 33 32 32 161 152 152 150 150 28 28 29 29 29 28 28 28 29 120 143 143 141 140 139 140 113 25 24 23 24 123 133 135 133 132 23 23 24 24 24 24 25 24 24 23 23 22 21 21 21 20 19 19 19 19 20 19 18 139 132 132 132 131 132 132 132 136 38 18 19 19 20 21 21 21 23 23 23 93 115 114 113 112 111 112 110 113 71 30 30 31 31 31 31 94 113 112 113 114 114 114 115 113 115 30 30 30 30 30 30 30 29 30 30 30 30 30 30 30 29 34 88 82 81 79 78 77 76 75 75 76 48 26 26 26 26 26 26 26 77 70 71 71 70 71 71 71 52 27 27 27 27 26 26 26 26 26 27 27 79 76 78 78 79 79 79 81 81 81 82 82 84 84 84 85 84 85 26 26 26 26 26 27 27 26 27 28 28 32 33 33 157 165 165 162 167 33 33 32 31 32 32 33 32 145 154 153 152 151 148 111 111 120 128 37 29 30 30 72 147 143 141 141 140 145 50 26 26 26 25 111 136 135 135 133 24 25 25 25 25 25 25 26 25 23 22 21 21 20 20 19 19 19 18 18 18 18 18 138 132 131 132 131 131 131 130 132 37 18 18 18 20 21 21 21 22 23 23 97 108 108 106 106 105 104 104 110 54 29 29 30 30 30 30 89 108 108 110 110 110 112 113 113 115 30 30 30 30 29 29 29 29 29 29 30 30 29 30 30 29 75 84 83 82 81 79 78 77 75 74 27 26 26 26 27 26 26 26 26 76 71 70 70 70 70 71 70 52 26 26 27 27 26 26 26 26 26 26 26 67 77 77 77 78 78 79 79 81 82 82 82 83 84 84 85 89 53 27 28 27 27 27 27 27 28 28 27 28 32 32 32 158 166 165 162 168 33 33 32 32 32 32 33 32 90 159 154 153 152 151 152 151 150 150 104 30 30 30 31 138 144 143 141 141 137 29 29 29 28 28 92 138 135 135 137 49 25 25 25 25 25 24 24 23 23 22 21 21 20 20 20 19 18 18 18 18 18 18 138 131 131 130 130 129 127 125 129 36 18 18 18 19 19 20 21 21 22 23 103 103 102 99 99 99 98 97 103 28 28 29 30 30 30 31 85 104 104 105 106 107 108 111 111 115 30 30 30 30 30 29 28 29 29 29 29 29 29 29 28 28 89 85 84 83 81 79 79 77 81 26 26 26 26 26 26 26 26 26 25 74 68 68 68 68 68 70 70 52 25 25 26 26 26 26 26 26 26 26 26 39 81 77 77 78 78 79 79 81 82 82 83 84 85 84 85 89 27 27 27 27 27 27 27 27 28 27 28 28 32 32 30 160 165 166 163 168 33 32 32 33 32 32 32 32 32 139 157 154 152 152 151 150 151 157 73 30 31 30 30 98 145 143 144 144 98 30 30 29 29 29 45 141 137 135 136 104 26 25 24 24 24 23 23 22 22 22 22 21 21 21 20 20 19 18 19 18 18 18 136 131 130 129 127 127 124 122 124 34 18 18 18 18 18 19 19 21 21 23 102 97 95 95 94 94 94 92 95 28 28 28 28 30 29 29 75 101 99 102 103 105 106 107 110 117 30 30 30 30 29 28 28 28 28 28 28 28 28 28 27 27 94 86 84 83 82 81 79 77 71 26 25 25 25 25 25 26 25 25 24 74 70 68 68 68 68 70 68 52 24 25 24 25 25 25 25 25 25 26 26 26 79 77 77 78 79 79 79 81 82 82 83 83 84 86 84 77 27 27 27 27 26 26 27 26 27 28 28 28 30 31 30 117 170 169 168 125 32 31 31 31 30 31 32 32 31 31 128 157 158 155 154 153 153 114 29 29 29 28 29 28 136 146 146 129 30 30 29 28 29 29 29 131 136 137 135 138 70 25 24 23 23 23 22 22 22 22 21 21 21 21 20 19 19 19 18 18 18 18 135 129 127 125 124 122 120 119 120 16 17 17 17 18 17 18 19 21 21 52 98 90 92 89 89 88 87 87 82 27 28 28 28 28 28 28 64 96 96 97 98 101 102 104 105 113 48 29 29 28 28 28 28 27 27 27 27 27 26 26 26 26 95 87 85 84 83 82 81 78 55 23 23 23 23 23 23 24 24 23 23 73 67 67 68 67 68 68 68 51 23 21 22 22 22 23 23 24 24 24 25 25 55 78 78 79 79 79 79 82 82 83 83 84 84 86 89 50 26 26 26 26 26 26 26 26 26 26 27 28 31 30 30 31 34 59 41 31 30 30 30 30 30 30 30 30 30 30 30 37 86 101 99 86 44 28 28 28 27 27 28 28 28 46 45 29 29 30 29 28 28 29 28 79 140 137 136 135 137 88 23 23 23 23 23 22 21 52 95 76 21 20 20 20 19 18 18 19 18 18 132 125 123 122 120 119 114 113 115 14 14 13 14 15 15 15 17 19 20 77 89 86 86 85 84 84 84 85 61 27 28 27 27 27 28 28 55 90 92 93 95 96 98 102 103 104 79 28 28 28 27 27 27 26 26 26 26 26 25 25 25 37 95 89 87 85 84 82 81 79 52 22 22 21 22 21 21 22 21 21 20 73 67 66 67 66 66 67 67 51 22 21 21 21 21 21 22 22 22 22 23 24 24 83 78 78 79 81 81 82 83 83 83 84 85 85 90 25 25 26 26 25 25 25 25 26 26 26 26 26 32 32 31 30 30 30 30 30 30 29 30 30 30 30 30 29 29 29 28 28 28 28 28 28 28 28 28 28 27 26 26 27 27 27 27 27 28 28 28 27 26 26 26 26 133 137 137 135 136 137 132 107 87 78 83 101 125 131 131 128 20 20 20 20 19 18 18 18 18 18 129 121 120 119 115 113 111 108 108 15 17 17 14 14 13 14 16 18 44 90 84 83 83 82 81 81 81 82 25 25 26 26 26 27 27 26 39 88 87 89 92 94 95 97 99 102 101 27 27 26 26 26 26 26 25 24 23 23 23 23 23 36 96 89 87 86 85 83 81 79 61 21 21 21 21 21 21 21 21 21 20 72 67 65 66 66 65 66 66 49 21 21 21 20 21 20 21 21 21 21 22 23 23 76 79 79 81 82 82 83 83 83 84 84 86 85 71 24 25 25 25 25 24 23 23 24 25 25 25 25 32 30 31 31 30 30 30 29 29 29 29 29 29 29 29 28 28 27 27 27 27 28 27 27 27 28 27 27 27 27 26 27 26 26 26 25 25 25 25 26 26 25 25 25 49 139 136 138 136 135 133 135 136 136 135 131 130 131 129 127 20 20 19 19 18 18 18 17 18 18 124 117 115 113 111 108 105 104 102 81 17 17 17 15 15 17 17 42 88 83 82 81 81 79 78 78 77 78 23 23 24 25 25 25 25 26 26 85 84 86 87 90 93 93 97 98 103 79 26 25 25 25 23 23 22 22 21 21 21 21 21 22 98 89 88 86 85 83 81 79 77 21 21 21 21 21 22 22 21 21 21 71 64 65 65 65 64 65 65 48 21 21 21 21 20 20 20 20 21 21 21 21 21 49 81 79 81 82 83 83 83 83 84 85 87 94 22 22 23 23 23 23 23 22 21 19 20 23 23 23 30 30 30 31 30 30 29 29 29 28 28 29 29 28 28 28 28 27 27 26 26 26 26 26 26 26 27 27 27 27 27 27 26 26 26 25 25 25 24 25 25 25 25 25 24 57 136 139 137 136 135 135 133 133 133 132 131 130 135 60 18 18 18 18 18 18 18 17 17 17 121 113 111 108 105 103 101 99 96 96 96 84 67 60 58 62 78 86 83 81 79 78 78 77 77 78 79 55 21 20 20 21 22 23 24 25 25 75 81 83 84 86 88 92 94 96 99 105 86 37 23 23 22 21 21 51 50 21 20 21 21 21 97 90 88 87 86 84 82 79 81 46 21 21 21 21 22 22 21 21 62 65 65 64 64 64 64 64 64 48 21 21 21 21 20 20 20 20 21 21 21 21 21 21 82 79 82 83 83 83 84 84 85 86 86 87 21 21 21 21 21 21 21 21 21 21 18 18 20 22 27 30 31 31 30 30 30 30 30 26 28 29 28 28 28 28 28 26 26 26 26 26 26 26 26 26 27 27 27 27 27 27 27 26 26 25 25 25 24 24 24 24 23 23 22 21 21 104 140 139 136 136 136 135 133 135 136 120 50 18 18 17 17 17 17 17 17 17 16 17 117 110 106 105 102 99 97 95 92 90 88 88 86 86 84 84 82 79 79 79 79 79 78 78 78 78 83 12 13 18 19 15 15 17 18 21 23 48 82 79 82 84 86 88 90 94 96 98 101 107 107 108 110 112 110 105 104 99 21 21 21 21 96 90 88 88 86 85 83 81 78 81 34 21 21 21 21 21 21 67 65 65 63 62 63 64 62 62 62 47 21 20 21 20 20 20 19 19 20 20 20 20 20 20 70 81 82 82 83 84 85 85 86 87 89 62 20 20 20 20 20 20 20 21 21 21 19 16 15 18 22 22 21 19 18 23 30 30 29 27 26 28 28 28 28 28 28 27 26 26 25 26 26 25 26 26 26 26 27 27 26 26 26 26 26 25 25 25 23 23 22 22 21 21 18 18 19 20 18 74 98 112 116 114 105 85 44 17 17 17 17 17 17 17 16 16 16 13 11 14 113 105 102 99 98 96 94 92 89 88 87 85 84 83 82 82 82 82 82 82 82 82 82 81 81 84 46 9 8 11 12 9 8 10 18 18 18 21 79 77 78 81 83 85 88 90 94 96 99 101 104 105 105 105 104 103 102 105 47 21 21 21 76 93 90 88 86 86 83 82 81 77 78 65 41 22 42 62 73 65 65 64 63 62 62 62 60 61 62 46 21 21 20 20 20 19 18 18 19 20 19 19 19 18 47 83 82 84 84 85 85 86 86 87 90 19 18 15 14 17 21 21 20 21 20 20 20 16 12 11 17 17 18 17 16 15 18 26 27 23 29 30 30 28 28 28 28 28 26 26 26 26 26 27 26 26 26 26 26 25 25 25 25 25 25 24 23 23 23 22 21 20 18 16 13 13 14 14 14 13 12 12 12 12 15 17 18 16 16 16 15 16 16 17 16 15 13 11 9 10 110 103 98 96 95 93 90 88 87 86 85 83 83 83 83 84 83 83 83 83 83 83 83 82 84 73 17 13 10 8 10 8 8 6 8 14 17 18 57 78 77 78 81 83 86 88 90 94 97 99 102 104 105 105 105 104 104 107 54 20 20 20 20 97 90 87 87 85 84 83 79 79 76 75 77 75 72 70 67 67 65 64 63 62 61 60 61 61 61 45 20 20 20 19 19 19 18 18 19 19 18 18 18 18 18 81 83 84 84 85 86 86 86 88 78 17 15 17 13 14 20 20 20 18 18 15 12 8 7 8 16 15 17 16 16 15 17 21 29 26 29 30 28 28 29 29 29 28 28 28 27 28 26 26 26 26 25 26 26 26 25 25 24 24 24 23 23 23 22 21 21 20 18 15 12 11 10 11 11 11 11 11 12 12 13 15 15 14 12 12 13 14 14 14 13 12 11 9 8 8 106 98 96 94 92 90 88 87 85 85 84 84 85 85 84 84 85 85 84 85 85 85 85 86 76 12 10 12 11 9 9 8 6 6 5 6 6 6 9 74 76 77 78 81 84 86 88 92 95 98 99 102 104 105 105 105 104 106 46 19 19 20 19 76 92 90 88 86 85 83 81 78 76 76 74 72 71 68 67 66 65 64 63 62 61 61 60 60 59 45 19 20 19 19 19 18 18 18 18 18 18 18 18 18 18 85 84 85 86 86 87 88 88 89 54 14 12 14 15 14 17 19 18 17 18 15 13 11 8 8 17 17 17 16 15 14 14 17 21 27 28 26 25 26 28 29 29 29 28 28 28 27 26 26 26 26 26 26 26 25 25 24 23 23 23 23 21 21 21 21 20 20 18 15 12 11 10 11 11 9 9 9 9 9 9 11 11 9 9 9 10 12 11 10 10 12 11 9 9 9 102 95 93 92 89 88 87 86 87 82 90 85 87 86 86 86 86 86 87 86 86 87 88 65 8 8 8 10 11 10 9 8 6 5 6 6 6 6 7 6 79 74 77 78 82 83 87 89 94 96 98 102 103 104 105 105 104 106 19 19 18 19 18 18 96 88 88 86 84 83 81 78 77 75 74 72 70 70 67 65 66 63 62 62 61 60 59 58 59 43 18 18 18 19 18 18 18 18 18 18 18 18 18 18 54 83 85 85 87 88 88 88 90 95 15 13 14 14 17 17 17 18 18 17 18 16 14 14 11 9 19 19 18 18 16 14 15 17 18 21 25 25 21 23 27 28 29 29 29 29 28 28 28 28 28 28 27 27 27 26 26 24 23 21 20 19 17 15 14 17 18 17 15 14 12 11 11 10 10 10 9 9 9 9 9 9 9 11 10 9 9 9 9 9 10 11 11 9 9 9 99 93 92 90 88 87 87 87 92 8 43 81 93 94 90 88 88 89 90 92 92 70 9 10 9 9 9 10 11 11 10 9 8 6 6 6 6 5 6 5 5 79 75 78 79 82 85 87 92 95 97 99 101 104 105 104 112 61 19 19 19 18 18 18 18 94 89 87 85 83 82 79 77 75 74 73 72 70 70 70 48 67 63 62 61 60 59 59 59 42 18 18 18 18 18 18 18 18 18 18 18 18 18 18 75 84 86 86 87 89 89 90 90 79 15 14 16 15 15 16 17 16 13 11 14 15 14 13 12 12 20 20 20 19 17 16 18 18 18 18 20 20 20 21 23 24 25 27 28 29 29 29 29 29 28 28 28 28 27 27 27 25 21 18 17 15 15 13 12 14 14 15 15 14 12 11 11 11 11 11 11 10 10 11 9 9 8 10 10 9 9 9 9 8 9 9 9 10 11 11 98 92 90 89 87 87 88 89 92 9 9 8 8 39 61 66 70 65 57 37 9 10 10 10 11 10 9 9 10 11 11 9 9 9 8 7 6 7 7 6 5 6 70 78 79 79 84 86 89 92 95 98 99 104 105 110 67 19 19 19 19 18 18 18 18 18 81 90 86 83 82 79 78 76 75 73 73 72 70 18 18 66 63 63 62 61 60 59 62 13 15 17 18 18 18 18 18 18 18 18 18 18 18 18 85 85 87 88 89 92 92 93 99 36 15 15 14 11 10 10 13 12 11 9 11 12 13 12 12 12 20 20 19 18 18 18 18 17 17 17 17 17 18 17 18 19 21 25 28 28 28 28 28 28 28 28 28 28 28 28 28 26 23 20 18 17 16 15 15 15 15 16 15 14 12 11 11 12 12 12 12 11 11 11 11 9 9 10 9 9 9 9 8 8 8 9 10 11 11 12 97 92 90 89 89 89 89 90 95 11 11 9 8 9 9 9 9 9 9 10 11 11 11 11 11 10 9 9 10 11 10 10 10 9 9 8 6 6 7 6 5 6 10 15 61 77 84 89 93 96 99 102 102 96 78 17 18 18 18 18 15 15 14 16 17 14 12 39 71 85 85 85 84 81 79 75 65 42 14 14 12 15 67 68 66 65 64 62 44 11 6 9 15 17 18 17 18 18 17 18 18 18 15 57 87 86 89 90 92 94 94 94 94 15 13 12 11 8 8 8 9 8 9 8 10 12 12 12 12 12 20 20 20 18 18 18 18 17 17 17 16 15 16 15 16 18 17 17 20 24 27 28 28 27 28 27 27 28 27 28 27 26 24 20 19 18 18 17 17 17 17 17 17 16 14 13 12 13 13 12 12 11 11 12 11 11 11 11 10 10 10 9 9 9 8 8 9 11 11 11 96 89 90 90 90 90 92 93 96 11 12 11 11 11 10 11 11 11 11 11 11 11 11 11 11 10 9 8 8 10 10 10 11 10 9 8 6 5 5 5 5 5 7 12 15 17 17 16 36 41 37 17 17 15 16 16 17 15 15 12 9 10 10 10 11 10 9 9 9 8 8 8 34 11 12 12 11 9 9 9 8 8 8 8 8 9 11 12 14 10 8 6 8 16 18 18 17 18 17 17 12 10 8 84 85 88 90 93 94 96 97 98 76 13 10 11 9 8 7 7 7 7 8 8 8 9 12 12 12 12 20 20 20 20 19 18 18 18 17 15 15 14 14 15 15 14 15 15 15 16 18 21 24 26 26 26 26 25 26 26 25 24 23 21 20 18 18 18 18 18 18 18 18 17 17 15 14 14 14 13 12 11 10 10 11 10 10 10 10 10 10 10 10 10 9 10 11 12 12 11 96 90 92 93 92 94 94 94 97 11 11 11 11 11 11 11 11 11 12 12 11 12 12 11 11 11 10 9 9 11 11 11 11 10 9 9 8 7 5 4 5 4 6 11 13 13 15 15 15 15 16 15 17 14 13 15 15 15 14 10 8 9 9 9 9 10 9 9 9 9 8 8 9 10 12 11 9 7 7 7 8 7 6 5 6 8 8 7 7 9 8 6 6 9 14 16 14 15 15 9 8 8 41 90 88 92 94 96 97 98 101 103 39 12 11 11 10 9 8 8 8 8 7 7 8 9 10 11 12 12 22 21 21 21 20 20 19 18 16 15 14 14 14 14 14 14 14 15 15 15 15 16 17 20 21 21 22 21 21 23 20 20 18 18 18 18 18 17 17 17 18 18 17 17 17 16 15 14 14 14 12 12 12 11 11 10 10 10 11 11 11 11 11 11 11 11 12 12 12 11 96 93 94 94 94 95 95 96 97 11 12 12 12 12 12 12 12 12 12 12 12 12 12 12 11 11 10 9 9 11 10 9 9 8 8 8 8 6 6 5 4 4 5 8 11 12 12 15 15 15 14 15 14 12 9 11 13 12 11 8 7 8 9 8 9 10 10 10 10 9 9 10 11 11 12 11 8 8 7 7 6 6 8 5 7 8 9 8 5 7 7 7 6 6 9 15 15 12 12 9 8 8 85 90 92 94 97 98 101 102 102 99 10 11 10 10 9 9 11 12 11 10 8 8 8 9 10 11 10 8 24 23 23 23 23 21 20 18 17 15 15 15 14 14 14 13 13 14 14 14 14 15 15 16 17 18 21 20 20 19 17 17 17 17 18 18 18 18 18 18 18 18 18 17 16 16 15 15 14 14 14 13 12 12 12 11 9 10 11 11 12 12 12 12 11 11 11 11 11 9 98 94 95 95 96 96 97 97 98 11 12 12 13 14 13 13 12 12 13 13 13 13 13 12 12 11 11 10 10 9 10 9 8 6 5 5 5 5 5 5 4 4 5 5 6 8 10 11 12 11 11 12 9 8 6 6 8 9 8 7 8 9 10 10 10 10 9 10 10 10 10 10 10 9 9 9 8 8 8 7 6 6 7 6 7 9 8 6 6 5 59 71 63 5 6 7 12 14 11 11 11 68 93 93 95 98 101 102 103 105 110 71 13 12 11 11 11 11 12 14 11 10 9 9 8 9 9 9 10 8 25 24 23 22 22 21 20 19 17 16 15 16 17 15 14 14 13 13 14 13 14 15 15 16 16 17 18 18 18 18 17 17 15 16 18 18 17 17 17 18 17 17 17 17 17 17 16 15 15 14 14 14 13 12 12 11 10 11 11 12 14 14 13 12 12 11 11 11 10 9 99 95 96 97 98 97 98 98 99 11 14 14 14 15 15 14 14 14 14 14 14 14 14 14 13 11 10 11 11 10 11 10 9 8 7 5 5 4 5 4 4 4 5 5 5 5 7 8 9 9 8 8 8 8 8 8 8 8 8 8 8 10 10 10 10 9 9 9 9 9 8 8 9 9 10 9 8 7 7 6 6 6 7 6 6 7 6 6 5 43 75 73 73 78 68 35 9 12 12 12 62 97 95 98 101 103 105 106 108 108 116 11 11 12 12 14 13 12 11 12 9 9 10 11 10 10 10 9 9 8 25 24 23 21 20 20 20 18 18 17 17 18 17 16 15 13 12 13 13 14 14 14 14 15 17 16 17 17 17 17 15 14 12 14 17 18 17 16 15 15 17 17 17 17 17 17 17 16 15 14 14 14 14 12 12 10 10 11 11 13 14 14 14 14 14 13 12 11 10 9 102 97 98 98 99 99 99 98 99 11 14 15 15 15 15 15 15 15 15 15 15 15 14 14 14 12 12 12 12 12 12 11 10 9 8 7 6 5 5 4 4 4 5 6 6 6 6 7 8 8 8 9 9 9 9 9 9 9 8 8 8 9 9 9 8 8 8 8 8 8 8 8 9 10 11 9 8 8 6 6 6 6 6 6 6 6 6 6 6 71 75 77 78 79 81 86 83 72 73 89 98 97 101 102 104 106 107 111 111 114 90 8 8 11 14 14 12 11 9 9 9 10 11 11 11 10 10 9 9 9 25 25 24 22 20 19 18 18 19 18 18 18 18 16 14 12 13 14 14 13 13 13 14 14 15 15 15 15 15 15 15 14 12 12 14 17 17 17 17 17 17 17 17 18 17 17 17 17 15 15 14 13 13 12 11 9 11 11 11 13 14 14 15 16 14 14 13 12 11 11 103 98 99 99 101 101 99 101 99 12 14 15 16 16 16 16 17 16 16 17 16 16 15 15 15 14 14 15 15 14 14 13 12 9 8 8 8 7 5 4 4 5 6 7 8 8 8 7 8 8 9 9 9 10 10 10 10 10 9 8 8 8 9 8 8 8 8 8 8 9 9 9 10 10 11 10 8 8 6 6 6 6 7 6 6 6 6 6 6 79 79 82 84 85 86 88 90 93 95 97 99 102 103 106 108 111 112 114 115 121 6 8 8 9 11 11 11 10 10 9 8 10 9 10 9 10 11 10 9 9 26 25 23 21 20 18 18 18 18 19 18 18 17 16 15 14 13 14 14 14 13 12 13 14 15 14 14 14 15 15 15 15 14 15 17 18 18 17 18 18 18 18 18 17 18 18 17 17 17 17 15 13 12 12 11 11 10 11 11 12 14 14 14 15 15 14 14 13 14 12 103 101 101 102 102 101 101 101 101 14 15 17 17 16 17 16 16 17 17 17 17 17 17 17 16 17 16 16 16 15 14 14 13 12 11 11 10 8 6 4 5 5 5 7 8 8 8 9 9 8 8 9 10 11 11 10 10 11 10 9 9 9 9 8 8 8 8 8 9 9 9 9 10 10 11 11 10 9 8 7 7 7 7 7 6 6 6 6 6 79 84 85 88 89 92 93 95 98 99 103 104 106 108 111 113 115 116 117 122 83 6 6 8 8 8 9 9 10 9 9 9 9 10 9 9 11 12 12 11 9 25 25 22 20 18 16 16 17 18 18 18 18 18 17 15 15 14 14 14 13 12 13 14 14 14 14 14 15 15 15 16 16 17 18 20 19 19 19 19 19 18 18 18 17 17 18 18 18 18 17 16 15 14 12 12 11 11 11 12 12 14 14 14 14 14 15 15 14 15 14 105 102 102 102 103 102 102 102 102 15 16 17 16 16 17 17 17 17 17 17 17 17 17 17 17 17 17 16 15 15 15 14 14 13 12 11 11 9 7 6 6 6 5 6 7 9 10 11 11 10 9 8 9 11 11 11 11 11 10 10 9 8 9 8 9 9 9 9 10 11 10 10 10 11 11 11 10 10 9 8 9 8 8 8 8 6 6 6 6 53 94 92 92 95 97 99 101 104 105 108 108 112 113 115 117 119 120 120 120 6 7 7 8 8 9 9 8 9 9 9 10 9 10 11 11 12 13 13 12 10 25 23 21 20 17 16 17 16 18 20 20 19 18 17 15 15 15 15 14 14 13 13 15 14 14 14 14 14 15 15 15 18 20 19 19 19 20 19 18 18 18 18 18 18 18 18 18 18 18 17 17 15 14 13 13 14 13 13 14 13 14 14 13 13 14 14 14 15 15 15 106 101 104 103 103 102 102 102 103 17 17 17 17 17 17 17 17 17 18 17 17 17 17 17 17 17 16 16 15 15 15 14 14 13 12 12 10 9 8 8 7 6 5 6 8 9 11 11 11 9 8 8 9 10 11 11 11 11 11 11 11 10 9 9 10 10 11 11 11 11 10 10 11 11 11 11 11 10 11 10 10 9 8 8 7 7 6 6 6 5 84 96 98 99 102 104 106 108 110 113 114 116 117 119 120 122 122 129 35 5 6 6 7 9 9 10 9 9 10 11 12 12 12 12 12 13 13 14 13 12 25 23 21 20 20 18 18 19 20 21 21 20 20 18 16 15 15 15 15 16 16 15 15 15 14 13 14 14 14 15 17 18 19 18 18 19 19 18 18 17 17 18 18 18 19 18 18 18 18 18 17 17 16 15 15 17 17 16 16 16 15 15 14 14 14 15 15 15 16 17 97 103 104 104 103 103 103 102 99 18 19 18 18 18 18 18 18 18 18 18 17 17 17 17 17 17 16 16 16 15 14 14 14 13 13 11 11 10 9 7 6 6 6 7 9 11 11 11 10 8 7 7 8 8 9 11 11 12 12 12 11 10 10 10 9 10 11 11 11 11 11 11 11 11 11 11 11 11 11 11 11 11 9 8 8 7 6 6 6 6 6 90 107 105 106 110 111 113 115 116 119 120 122 123 125 125 131 63 4 5 5 6 6 6 9 9 9 9 9 9 11 12 12 12 12 12 12 13 13 12 25 24 21 20 20 20 20 22 22 21 21 21 21 19 18 17 17 17 17 17 17 16 15 15 14 14 14 14 15 17 18 18 18 18 18 18 18 18 17 18 18 18 18 19 19 19 19 19 19 18 18 18 18 18 18 18 18 18 18 18 17 17 17 17 16 18 18 19 18 18 54 111 105 105 104 104 103 106 64 20 20 20 19 19 19 19 19 18 18 18 18 18 18 17 18 18 17 17 16 15 15 14 14 13 12 12 11 11 9 7 6 8 8 8 10 11 10 9 8 6 6 6 8 8 9 10 12 13 12 12 11 11 11 9 9 10 10 11 11 11 11 11 11 11 11 11 11 12 12 11 11 11 10 8 8 7 6 6 6 6 6 6 63 112 115 114 114 117 119 121 123 123 127 127 129 133 51 6 5 4 5 5 5 5 6 7 6 8 8 8 9 9 9 9 11 12 12 13 13 14 25 24 21 20 20 21 23 25 24 23 23 21 22 21 20 18 17 17 17 17 17 16 16 15 15 14 14 15 18 18 18 17 17 17 17 17 18 18 18 18 19 19 20 20 19 19 19 20 20 20 18 20 20 20 19 18 19 19 19 19 18 19 18 19 19 19 20 20 19 18 18 78 108 107 105 105 106 82 20 20 20 20 21 20 20 20 20 20 20 19 19 19 18 18 18 18 18 17 17 16 15 14 14 13 13 12 12 11 9 7 7 8 8 8 8 8 8 8 6 5 5 6 8 8 9 9 11 12 12 12 13 12 11 10 11 10 10 11 11 11 10 10 11 11 11 11 11 11 11 11 11 11 11 9 8 7 7 7 7 7 6 6 8 8 71 112 125 123 124 125 125 130 131 135 106 5 5 6 5 5 5 5 5 5 6 6 5 6 7 7 8 8 8 8 9 12 13 13 13 14 25 23 22 21 21 25 26 26 26 23 23 22 23 23 21 20 18 18 18 18 17 17 17 17 17 15 16 18 19 18 17 17 17 17 18 18 18 18 18 18 20 20 21 21 21 21 20 20 21 20 20 20 20 20 21 20 20 20 20 20 20 20 20 20 20 20 20 20 20 19 18 19 46 83 95 85 48 21 21 21 21 22 21 21 21 21 20 20 20 21 20 20 19 19 19 19 18 18 17 17 16 15 15 14 14 12 11 11 9 8 8 8 8 8 8 8 8 8 8 7 8 8 8 7 7 8 10 11 13 13 12 11 11 10 10 10 10 9 10 11 10 10 10 10 9 9 10 11 11 11 11 10 11 10 9 8 7 7 8 8 7 7 8 9 10 11 36 76 97 110 110 101 78 5 5 6 6 5 5 6 5 5 5 6 6 5 5 6 6 6 6 6 8 7 8 11 12 13 13 13 26 23 26 26 26 27 27 28 28 26 25 25 25 25 23 20 20 19 20 19 20 18 18 18 18 17 17 18 18 18 18 18 18 18 18 18 17 17 17 18 21 21 22 22 21 22 21 22 22 22 21 21 21 21 21 21 21 21 21 21 21 21 21 21 21 21 20 21 20 21 21 21 21 21 21 21 21 21 22 23 22 22 23 22 22 21 21 21 21 21 20 20 20 20 20 19 19 18 18 17 17 17 15 14 14 12 12 11 9 8 9 9 8 8 8 9 9 9 9 9 9 9 8 8 8 8 9 12 14 14 13 10 9 9 10 9 9 9 9 9 9 8 8 9 8 9 10 10 11 11 10 11 11 11 10 9 8 8 9 8 8 9 9 10 11 11 11 11 11 11 10 9 7 5 5 6 7 5 5 5 5 5 5 6 6 5 5 5 6 6 5 6 8 8 9 11 12 12 13 12 25 23 30 31 30 30 30 30 30 29 29 28 26 25 24 21 21 21 21 21 21 21 21 21 20 19 20 18 18 19 19 19 19 19 19 19 18 16 17 19 22 23 23 23 23 23 23 23 24 24 23 23 23 24 23 23 23 23 23 23 23 23 23 23 22 22 22 22 21 22 22 23 22 23 23 23 23 23 23 22 23 23 23 23 23 23 23 21 21 21 21 21 20 20 20 20 19 18 18 18 18 17 16 15 14 12 11 10 9 9 9 10 9 9 9 9 9 9 9 10 9 9 9 9 8 9 10 13 14 12 12 10 9 11 9 9 9 9 9 8 8 8 7 8 8 9 9 9 9 10 11 11 11 11 10 10 10 9 9 9 9 9 10 11 11 11 11 11 11 11 10 9 7 6 6 6 8 5 5 5 6 6 6 6 6 6 5 5 5 5 5 6 8 10 9 11 12 12 12 13 