P2
150 84
255
66
66
66
66
66
66
66
66
66
66
66
66
66
66
66
66
66
66
66
66
66
66
66
66
66
66
66
66
66
66
66
66
66
66
66
66
66
66
66
66
66
66
66
66
66
66
66
66
66
66
66
66
66
66
66
66
66
66
66
66
66
66
66
66
66
66
66
66
66
66
69
83
91
101
100
110
111
111
109
102
100
86
80
66
66
66
66
66
66
66
66
66
66
66
66
66
66
66
66
66
66
66
66
66
66
66
66
66
66
66
66
66
66
66
66
66
66
66
66
66
66
66
66
66
66
66
66
66
66
66
66
66
66
66
66
66
66
66
66
66
66
66
66
66
66
66
66
66
66
66
66
66
66
66
66
66
66
66
66
66
66
66
66
66
66
66
66
66
66
66
66
66
66
66
66
66
66
66
66
66
66
66
66
66
66
66
66
66
66
66
66
66
66
66
66
66
66
66
66
66
66
66
66
66
66
66
66
66
66
66
66
66
66
66
66
70
90
111
136
162
184
183
157
138
122
110
102
103
103
103
103
103
101
115
105
102
93
76
67
66
66
66
66
66
66
66
66
66
66
66
66
66
66
66
66
66
66
66
66
66
66
66
66
66
66
66
66
66
66
66
66
66
66
66
66
66
66
66
66
66
66
66
66
66
66
66
66
66
66
66
66
66
66
66
66
66
66
66
66
66
66
66
66
66
66
66
66
66
66
66
66
66
66
66
66
66
66
66
66
66
66
66
66
66
66
66
66
66
66
66
66
66
66
66
66
66
66
66
66
66
66
66
66
66
66
66
66
66
66
66
66
66
66
66
66
66
66
66
66
66
66
66
74
102
136
180
182
171
134
105
86
70
67
66
66
66
66
66
66
66
66
66
66
66
66
66
68
76
80
68
66
66
66
66
66
66
66
66
66
66
66
66
66
66
66
66
66
66
66
66
66
66
66
66
66
66
66
66
66
66
66
66
66
66
66
66
66
66
66
66
66
66
66
66
66
66
66
66
66
66
66
66
66
66
66
66
66
66
66
66
66
66
66
66
66
66
66
66
66
66
66
66
66
66
66
66
66
66
66
66
66
66
66
66
66
66
66
66
66
66
66
66
66
66
66
66
66
66
66
66
66
66
66
66
66
66
66
66
66
66
66
66
66
66
66
66
66
66
66
67
92
133
183
183
167
121
89
67
66
66
66
66
66
66
66
66
66
66
66
66
66
66
66
66
66
66
66
66
66
66
66
66
66
66
66
66
66
66
66
66
66
66
66
66
66
66
66
66
66
66
66
66
66
66
66
66
66
66
66
66
66
66
66
66
66
66
66
66
66
66
66
66
66
66
66
66
66
66
66
66
66
66
66
66
66
66
66
66
66
66
66
66
66
66
66
66
66
66
66
66
66
66
66
66
66
66
66
66
66
66
66
66
66
66
66
66
66
66
66
66
66
66
66
66
66
66
66
66
66
66
66
66
66
66
66
66
66
66
66
66
66
66
66
66
66
66
66
69
103
160
183
183
140
95
68
66
66
66
66
66
66
66
66
66
66
72
74
76
80
83
82
76
74
72
66
66
66
66
66
66
66
66
66
66
66
66
66
66
66
66
66
66
66
66
66
66
66
66
66
66
66
66
66
66
66
66
66
66
66
66
66
66
66
66
66
66
66
66
66
66
66
66
66
66
66
66
66
66
66
66
66
66
66
66
66
66
66
66
66
66
66
66
66
66
66
66
66
66
66
66
66
66
66
66
66
66
66
66
66
66
66
66
66
66
66
66
66
66
66
66
66
66
66
66
66
66
66
66
66
66
66
66
66
66
66
66
66
66
66
66
66
66
66
66
66
66
100
162
183
183
129
82
66
66
66
66
66
66
66
67
76
86
94
100
108
108
108
107
101
98
95
99
103
108
107
99
91
80
70
66
66
66
66
66
66
66
66
66
66
66
66
66
66
66
66
66
66
66
66
66
66
66
66
66
66
66
66
66
66
66
66
66
66
66
66
66
66
66
66
66
66
66
66
66
66
66
66
66
66
66
66
66
66
66
66
66
66
66
66
66
66
66
66
66
66
66
66
66
66
66
66
66
66
66
66
66
66
66
66
66
66
66
66
66
66
66
66
66
66
66
66
66
66
66
66
66
66
66
66
66
66
66
66
66
66
66
66
66
66
66
66
66
66
66
83
148
183
183
141
83
66
66
66
66
66
66
69
81
95
106
108
108
108
108
108
108
108
108
108
108
108
98
88
80
79
88
103
108
108
96
81
68
66
66
66
66
66
66
66
66
66
66
66
66
66
66
66
66
66
66
66
66
66
66
66
66
66
66
66
66
66
66
66
66
66
66
66
66
66
66
66
66
66
66
66
66
66
66
66
66
66
66
66
66
66
66
66
66
66
66
66
66
66
66
66
66
66
66
66
66
66
66
66
66
66
66
66
66
66
66
66
66
66
66
66
66
66
66
66
66
66
66
66
66
66
66
66
66
66
66
66
66
66
66
66
66
66
66
66
66
66
66
70
117
182
183
166
95
67
66
66
66
66
66
74
92
106
108
108
108
108
108
108
108
108
108
108
108
108
108
108
108
108
108
103
83
68
77
97
108
108
104
84
67
66
66
66
66
66
66
66
66
66
66
66
66
66
66
66
66
66
66
66
66
66
66
66
66
66
66
66
66
66
66
66
66
66
66
66
66
66
66
66
66
66
66
66
66
66
66
66
66
66
66
66
66
66
66
66
66
66
66
66
66
66
66
66
66
66
66
66
66
66
66
66
66
66
66
66
66
66
66
66
66
66
66
66
66
66
66
66
66
66
66
66
66
66
66
66
66
66
66
66
66
66
66
66
66
66
66
66
80
154
183
183
131
71
66
66
66
66
66
72
94
105
108
108
108
108
108
108
108
108
108
108
108
108
108
108
108
108
108
108
108
108
108
100
72
66
79
105
108
108
100
74
66
66
66
66
66
66
66
66
66
66
66
66
66
66
66
66
66
66
66
66
66
66
66
66
66
66
66
66
66
66
66
66
66
66
66
66
66
66
66
66
66
66
66
66
66
66
66
66
66
66
66
66
66
66
66
66
66
66
66
66
66
66
66
66
66
66
66
66
66
66
66
66
66
66
66
66
66
66
66
66
66
66
66
66
66
66
66
66
66
66
66
66
66
66
66
66
66
66
66
66
66
66
66
66
66
95
174
183
177
103
66
66
66
66
66
68
86
105
96
104
108
108
108
108
108
108
108
108
108
108
108
108
108
108
108
108
108
108
108
108
108
108
103
68
66
77
108
108
108
107
80
66
66
66
66
66
66
66
66
66
66
66
66
66
66
66
66
66
66
66
66
66
66
66
66
66
66
66
66
66
66
66
66
66
66
66
66
66
66
66
66
66
66
66
66
66
66
66
66
66
66
66
66
66
66
66
66
66
66
66
66
66
66
66
66
66
66
66
66
66
66
66
66
66
66
66
66
66
66
66
66
66
66
66
66
66
66
66
66
66
66
66
66
66
66
66
66
66
66
66
66
66
66
67
115
184
183
161
86
66
66
66
66
66
72
99
102
86
106
108
108
108
108
108
108
108
108
108
108
108
108
108
108
108
108
108
108
108
108
108
108
108
108
74
66
66
103
108
108
108
108
80
66
66
66
66
66
66
66
66
66
66
66
66
66
66
66
66
66
66
66
66
66
66
66
66
66
66
66
66
66
66
66
66
66
66
66
66
66
66
66
66
66
66
66
66
66
66
66
66
66
66
66
66
66
66
66
66
66
66
66
66
66
66
66
66
66
66
66
66
66
66
66
66
66
66
66
66
66
66
66
66
66
66
66
66
66
66
66
66
66
66
66
66
66
66
66
66
66
66
66
66
68
122
183
183
158
77
66
66
66
66
66
76
105
97
81
107
108
108
108
108
108
108
108
108
108
108
108
108
108
108
108
108
108
108
108
108
108
108
108
108
104
68
68
84
108
108
108
108
108
105
69
66
66
66
66
66
66
66
66
66
66
66
66
66
66
66
66
66
66
66
66
66
66
66
66
66
66
66
66
66
66
66
66
66
66
66
66
66
66
66
66
66
66
66
66
66
66
66
66
66
66
66
66
66
66
66
66
66
66
66
66
66
66
66
66
66
66
66
66
66
66
66
66
66
66
66
66
66
66
66
66
66
66
66
66
66
66
66
66
66
66
66
66
66
66
66
66
66
66
68
127
183
183
152
74
66
66
66
66
66
77
105
96
77
106
108
108
108
108
108
108
108
108
108
108
108
108
108
108
108
108
108
108
108
108
108
108
108
108
106
91
94
105
108
108
108
108
108
100
92
68
66
66
66
66
66
66
66
66
66
66
66
66
66
66
66
66
66
66
66
66
66
66
66
66
66
66
66
66
66
66
66
66
66
66
66
66
66
66
66
66
66
66
66
66
66
66
66
66
66
66
66
66
66
66
66
66
66
66
66
66
66
66
66
66
66
66
66
66
66
66
66
66
66
66
66
66
66
66
66
66
66
66
66
66
66
66
66
66
66
66
66
66
66
66
66
66
66
66
125
183
183
157
73
66
66
66
66
66
77
106
98
72
103
108
108
108
108
108
108
108
108
108
108
108
108
108
108
108
108
108
108
108
108
108
108
108
108
108
108
108
108
106
99
89
81
74
68
66
66
66
66
66
66
66
66
66
66
66
66
66
66
66
66
66
66
66
66
66
66
66
66
66
66
66
66
66
66
66
66
66
66
66
66
66
66
66
66
66
66
66
66
66
66
66
66
66
66
66
66
66
66
66
66
66
66
66
66
66
66
66
66
66
66
66
66
66
66
66
66
66
66
66
66
66
66
66
66
66
66
66
66
66
66
66
66
66
66
66
66
66
66
66
66
66
66
66
66
120
183
183
160
77
66
66
66
66
66
72
105
104
71
96
108
108
108
108
108
108
108
108
108
108
108
108
108
108
108
108
108
108
108
108
108
108
108
108
108
100
91
82
74
67
66
66
66
66
66
66
66
66
66
66
67
82
94
98
83
66
66
66
66
66
66
66
66
66
66
66
66
66
66
66
66
66
66
66
66
66
66
66
66
66
66
66
66
66
66
66
66
66
66
66
66
66
66
66
66
66
66
66
66
66
66
66
66
66
66
66
66
66
66
66
66
66
66
66
66
66
66
66
66
66
66
66
66
66
66
66
66
66
66
66
66
66
66
66
66
66
66
66
66
66
66
66
66
66
102
183
183
174
85
66
66
66
66
66
68
101
108
77
80
108
108
108
108
108
108
108
108
108
108
108
108
108
108
108
108
108
108
108
108
108
105
96
86
77
68
66
66
66
66
66
66
66
66
66
68
78
79
89
123
145
166
165
165
165
165
142
76
66
66
66
66
66
66
66
66
66
66
66
66
66
66
66
66
66
66
66
66
66
66
66
66
66
66
66
66
66
66
66
66
66
66
66
66
66
66
66
66
66
66
66
66
66
66
66
66
66
66
66
66
66
66
66
66
66
66
66
66
66
66
66
66
66
66
66
66
66
66
66
66
66
66
66
66
66
66
66
66
66
66
66
66
66
66
87
180
183
183
96
66
66
66
66
66
66
89
108
91
68
103
108
108
108
108
108
108
108
108
108
108
108
108
108
108
108
108
108
105
94
84
74
67
66
66
66
66
66
66
66
66
67
77
94
112
132
158
165
117
108
165
165
165
165
165
165
165
165
138
67
66
66
66
66
66
66
66
66
66
66
66
66
66
66
66
66
66
66
66
66
66
66
66
66
66
66
66
66
66
66
66
66
66
66
66
66
66
66
66
66
66
66
66
66
66
66
66
66
66
66
66
66
66
66
66
66
66
66
66
66
66
66
66
66
66
66
66
66
66
66
66
66
66
66
66
66
66
66
66
66
66
66
66
66
71
162
183
183
125
66
66
66
66
66
66
74
108
106
71
83
108
108
108
108
108
108
108
108
108
108
108
108
108
108
106
96
85
74
67
66
66
66
66
66
66
66
66
66
66
66
105
155
165
165
165
165
165
165
115
108
165
165
165
126
123
165
165
165
165
77
66
66
66
66
66
66
66
66
66
66
66
66
66
66
66
66
66
66
66
66
66
66
66
66
66
66
66
66
66
66
66
66
66
66
66
66
66
66
66
66
66
66
66
66
66
66
66
66
66
66
66
66
66
66
66
66
66
66
66
66
66
66
66
66
66
66
66
66
66
66
66
66
66
66
66
66
66
66
66
66
66
66
66
67
133
183
183
161
71
66
66
66
66
66
66
95
108
91
67
101
108
108
108
108
108
108
108
108
108
108
108
102
87
77
68
66
66
66
66
66
66
66
71
93
116
134
142
124
95
67
117
165
165
165
165
165
165
148
82
108
165
165
165
80
66
130
165
165
165
80
66
66
66
66
66
66
66
66
66
66
66
66
66
66
66
66
66
66
66
66
66
66
66
66
66
66
66
66
66
66
66
66
66
66
66
66
66
66
66
66
66
66
66
66
66
66
66
66
66
66
66
66
66
66
66
66
66
66
66
66
66
66
66
66
66
66
66
66
66
66
66
66
66
66
66
66
66
66
66
66
66
66
66
96
183
183
183
91
66
66
66
66
66
66
74
108
108
77
74
108
108
108
108
108
108
108
108
108
97
85
72
66
66
66
66
66
66
66
66
66
66
101
155
165
165
165
165
165
165
96
117
165
165
165
117
89
74
67
66
108
165
165
165
80
68
147
165
165
153
67
66
66
66
66
66
66
66
66
66
66
66
66
66
66
66
66
66
66
66
66
66
66
66
66
66
66
66
66
66
66
66
66
66
66
66
66
66
66
66
66
66
66
66
66
66
66
66
66
66
66
66
66
66
66
66
66
66
66
66
66
66
66
66
66
66
66
66
66
66
66
66
66
66
66
66
66
66
66
66
66
66
66
71
167
183
183
131
66
66
66
66
66
66
66
91
108
108
78
88
108
108
108
108
108
105
94
80
70
66
66
66
66
66
66
66
66
66
66
66
67
117
165
165
165
165
165
165
165
165
109
118
165
165
165
82
66
66
77
69
108
165
165
165
86
120
165
165
165
97
66
66
66
66
66
66
66
66
66
66
66
66
66
66
66
66
66
66
66
66
66
66
66
66
66
66
66
66
66
66
66
66
66
66
66
66
66
66
66
66
66
66
66
66
66
66
66
66
66
66
66
66
66
66
66
66
66
66
66
66
66
66
66
66
66
66
66
66
66
66
66
66
66
66
66
66
66
66
66
66
66
66
66
116
183
183
180
80
66
66
66
66
66
66
67
104
108
108
108
108
108
108
104
92
78
68
66
66
66
66
66
66
67
80
96
98
82
66
66
66
105
165
165
165
165
165
146
139
162
140
77
117
165
165
165
120
126
153
165
81
108
165
165
165
158
165
165
165
103
67
66
66
66
66
66
66
66
66
66
66
66
66
66
66
66
66
66
66
66
66
66
66
66
66
66
66
66
66
66
66
66
66
66
66
66
66
66
66
66
66
66
66
66
66
66
66
66
66
66
66
66
66
66
66
66
66
66
66
66
66
66
66
66
66
66
66
66
66
66
66
66
66
66
66
66
66
66
66
66
66
66
66
78
178
183
183
124
66
66
66
66
66
66
66
74
108
108
108
108
104
91
77
67
66
66
66
66
66
66
69
88
117
151
165
165
165
165
126
68
74
159
165
165
165
135
79
67
66
67
67
66
117
165
165
165
165
165
165
165
81
108
165
165
165
165
165
165
165
100
66
66
66
66
66
66
66
66
66
66
66
66
66
66
66
66
66
66
66
66
66
66
66
66
66
66
66
66
66
66
66
66
66
66
66
66
66
66
66
66
66
66
66
66
66
66
66
66
66
66
66
66
66
66
66
66
66
66
66
66
66
66
66
66
66
66
66
66
66
66
66
66
66
66
66
66
66
66
66
66
66
66
66
124
183
183
182
79
66
66
66
66
66
66
66
80
108
104
88
77
67
66
66
66
66
66
66
66
66
80
156
165
165
165
165
165
165
165
165
98
104
165
165
165
150
70
66
67
72
88
106
100
118
165
165
165
165
165
150
117
68
108
165
165
165
148
165
165
165
164
91
66
66
66
66
66
66
66
66
66
66
66
66
66
66
66
66
66
66
66
66
66
66
66
66
66
66
66
66
66
66
66
66
66
66
66
66
66
66
66
66
66
66
66
66
66
66
66
66
66
66
66
66
66
66
66
66
66
66
66
66
66
66
66
66
66
66
66
66
66
66
66
66
66
66
66
66
66
66
66
66
66
77
182
183
183
128
66
66
66
66
66
66
66
66
67
74
67
66
66
66
66
66
66
67
98
128
153
99
83
165
165
165
153
132
155
165
165
165
115
130
165
165
165
104
67
116
142
165
165
165
117
117
165
165
165
100
73
66
66
66
108
165
165
165
86
139
165
165
165
160
85
66
66
66
66
66
66
66
66
66
66
66
66
66
66
66
66
66
66
66
66
66
66
66
66
66
66
66
66
66
66
66
66
66
66
66
66
66
66
66
66
66
66
66
66
66
66
66
66
66
66
66
66
66
66
66
66
66
66
66
66
66
66
66
66
66
66
66
66
66
66
66
66
66
66
66
66
66
66
66
66
117
183
183
183
88
66
66
66
66
66
66
66
66
66
66
66
66
66
66
66
66
66
67
165
165
165
138
83
165
165
165
116
66
97
165
165
165
114
148
165
165
165
83
68
164
165
165
165
165
117
115
165
165
165
82
66
66
66
68
108
165
165
165
80
77
149
165
165
165
131
66
66
66
66
66
66
66
66
66
66
66
66
66
66
66
66
66
66
66
66
66
66
66
66
66
66
66
66
66
66
66
66
66
66
66
66
66
66
66
66
66
66
66
66
66
66
66
66
66
66
66
66
66
66
66
66
66
66
66
66
66
66
66
66
66
66
66
66
66
66
66
66
66
66
66
66
66
66
66
69
168
183
183
158
67
66
66
66
66
66
66
66
66
66
66
66
71
99
129
133
76
66
67
165
165
165
137
83
165
165
165
116
66
103
165
165
165
92
168
165
165
165
82
67
154
165
165
165
165
117
115
165
165
165
94
96
114
137
137
108
165
165
165
80
66
83
160
165
165
121
66
66
66
66
66
66
66
66
66
66
66
66
66
66
66
66
66
66
66
66
66
66
66
66
66
66
66
66
66
66
66
66
66
66
66
66
66
66
66
66
66
66
66
66
66
66
66
66
66
66
66
66
66
66
66
66
66
66
66
66
66
66
66
66
66
66
66
66
66
66
66
66
66
66
66
66
66
66
66
97
183
183
183
114
66
66
66
66
66
66
66
66
66
66
66
66
98
165
165
165
98
66
67
165
165
165
137
83
165
165
165
116
75
151
165
165
139
68
156
165
165
165
87
66
74
77
169
165
165
117
115
165
165
165
165
165
165
165
136
108
165
165
157
71
66
66
84
125
113
71
66
66
66
66
66
66
66
66
66
66
66
66
66
66
66
66
66
66
66
66
66
66
66
66
66
66
66
66
66
66
66
66
66
66
66
66
66
66
66
66
66
66
66
66
66
66
66
66
66
66
66
66
66
66
66
66
66
66
66
66
66
66
66
66
66
66
66
66
66
66
66
66
66
66
66
66
66
66
66
135
183
183
183
84
66
66
66
66
66
66
66
76
83
83
68
66
98
165
165
165
99
66
67
165
165
165
137
83
165
165
165
137
148
165
165
150
76
66
134
165
165
165
119
66
66
69
167
165
165
117
115
165
165
165
165
165
165
165
106
104
135
111
80
66
66
67
67
67
67
66
66
66
66
66
66
66
66
66
66
66
66
66
66
66
66
66
66
66
66
66
66
66
66
66
66
66
66
66
66
66
66
66
66
66
66
66
66
66
66
66
66
66
66
66
66
66
66
66
66
66
66
66
66
66
66
66
66
66
66
66
66
66
66
66
66
66
66
66
66
66
66
66
66
66
66
66
66
66
74
181
183
183
165
67
66
66
66
66
72
100
140
165
165
165
144
77
98
165
165
165
99
66
67
165
165
165
137
83
165
165
165
165
165
165
165
123
67
66
105
165
165
165
165
131
118
142
165
165
165
105
115
165
165
164
164
134
109
90
67
66
67
71
97
125
148
166
165
165
160
134
105
72
66
66
66
66
66
66
66
66
66
66
66
66
66
66
66
66
66
66
66
66
66
66
66
66
66
66
66
66
66
66
66
66
66
66
66
66
66
66
66
66
66
66
66
66
66
66
66
66
66
66
66
66
66
66
66
66
66
66
66
66
66
66
66
66
66
66
66
66
66
66
66
66
66
66
66
66
95
183
183
183
131
66
66
66
86
120
160
165
165
165
165
165
165
118
98
165
165
165
99
66
67
165
165
165
137
83
165
165
165
165
165
165
165
165
123
69
73
153
165
165
165
165
165
165
165
165
148
73
109
126
103
83
68
67
66
66
66
71
112
159
165
165
165
165
165
165
165
165
165
148
72
66
66
66
66
66
66
66
66
66
66
66
66
66
66
66
66
66
66
66
66
66
66
66
66
66
66
66
66
66
66
66
66
66
66
66
66
66
66
66
66
66
66
66
66
66
66
66
66
66
66
66
66
66
66
66
66
66
66
66
66
66
66
66
66
66
66
66
66
66
66
66
66
66
66
66
127
183
183
183
104
66
66
66
165
165
165
165
155
157
165
165
165
139
98
165
165
165
99
66
67
165
165
165
137
83
165
165
165
125
140
165
165
165
165
128
67
85
152
165
165
165
165
165
165
130
75
66
67
66
66
66
66
66
66
66
87
151
165
165
165
165
165
165
165
165
165
165
165
165
97
66
66
66
66
66
66
66
66
66
66
66
66
66
66
66
66
66
66
66
66
66
66
66
66
66
66
66
66
66
66
66
66
66
66
66
66
66
66
66
66
66
66
66
66
66
66
66
66
66
66
66
66
66
66
66
66
66
66
66
66
66
66
66
66
66
66
66
66
66
66
66
66
66
66
66
162
183
183
183
84
66
66
66
166
165
165
151
68
80
165
165
165
127
98
165
165
165
99
66
67
165
165
165
137
83
165
165
165
116
74
143
165
165
165
165
81
66
72
106
130
140
128
107
81
67
66
66
74
94
116
105
66
66
66
94
161
165
165
165
165
165
165
165
165
165
165
165
165
165
100
66
66
66
66
66
66
66
66
66
66
66
66
66
66
66
66
66
66
66
66
66
66
66
66
66
66
66
66
66
66
66
66
66
66
66
66
66
66
66
66
66
66
66
66
66
66
66
66
66
66
66
66
66
66
66
66
66
66
66
66
66
66
66
66
66
66
66
66
66
66
66
66
66
66
76
183
183
183
184
71
66
66
66
166
165
165
147
66
82
165
165
165
95
98
165
165
165
99
66
67
165
165
165
139
83
165
165
165
116
66
76
145
165
165
165
77
66
66
66
66
66
66
66
66
66
70
123
165
165
165
117
66
66
83
160
165
165
165
165
165
165
165
165
165
165
165
165
165
159
77
66
66
66
66
66
66
66
66
66
66
66
66
66
66
66
66
66
66
66
66
66
66
66
66
66
66
66
66
66
66
66
66
66
66
66
66
66
66
66
66
66
66
66
66
66
66
66
66
66
66
66
66
66
66
66
66
66
66
66
66
66
66
66
66
66
66
66
66
66
66
66
66
66
66
91
183
183
183
161
66
66
66
66
166
165
165
147
74
135
165
165
121
67
98
165
165
165
99
66
70
165
165
165
128
83
165
165
165
116
66
66
75
125
136
97
66
66
66
66
66
66
66
66
66
66
123
165
165
165
165
117
66
68
144
165
165
165
165
165
165
157
114
95
82
82
97
114
117
83
66
66
66
66
66
66
66
66
66
66
66
66
66
66
66
66
66
66
66
66
66
66
66
66
66
66
66
66
66
66
66
66
66
66
66
66
66
66
66
66
66
66
66
66
66
66
66
66
66
66
66
66
66
66
66
66
66
66
66
66
66
66
66
66
66
66
66
66
66
66
66
66
66
66
66
106
183
183
183
148
66
66
66
66
166
165
165
161
158
165
165
165
114
71
98
165
165
165
105
66
91
165
165
165
108
83
165
165
165
88
66
66
66
66
66
66
71
88
92
73
66
66
66
66
66
70
165
165
165
165
165
117
66
100
165
165
165
165
165
165
128
71
66
66
66
66
66
66
66
66
66
66
66
66
66
66
66
66
66
66
66
66
66
66
66
66
66
66
66
66
66
66
66
66
66
66
66
66
66
66
66
66
66
66
66
66
66
66
66
66
66
66
66
66
66
66
66
66
66
66
66
66
66
66
66
66
66
66
66
66
66
66
66
66
66
66
66
66
66
66
66
66
66
66
66
121
183
183
183
122
66
66
66
66
166
165
165
165
165
165
165
165
165
140
99
165
165
165
151
117
155
165
165
165
82
83
164
130
90
66
66
66
66
69
102
131
164
165
165
160
86
66
66
66
66
83
165
165
165
165
165
117
66
139
165
165
165
165
165
137
68
66
66
66
66
66
68
82
101
121
91
66
66
66
66
66
66
66
66
66
66
66
66
66
66
66
66
66
66
66
66
66
66
66
66
66
66
66
66
66
66
66
66
66
66
66
66
66
66
66
66
66
66
66
66
66
66
66
66
66
66
66
66
66
66
66
66
66
66
66
66
66
66
66
66
66
66
66
66
66
66
66
66
66
66
138
183
183
183
121
66
66
66
66
166
165
165
159
99
97
160
165
165
165
111
165
165
165
165
165
165
165
165
120
66
71
74
66
66
70
91
121
67
81
165
165
165
165
165
165
160
83
66
66
66
82
165
165
165
165
165
117
77
165
165
165
165
165
164
83
66
67
78
91
111
134
164
164
165
165
97
66
66
66
66
66
66
66
66
66
66
66
66
66
66
66
66
66
66
66
66
66
66
66
66
66
66
66
66
66
66
66
66
66
66
66
66
66
66
66
66
66
66
66
66
66
66
66
66
66
66
66
66
66
66
66
66
66
66
66
66
66
66
66
66
66
66
66
66
66
66
66
66
66
66
148
183
183
183
117
66
66
66
66
166
165
165
147
66
66
139
165
165
165
90
145
165
165
165
165
165
165
120
69
66
66
67
84
123
160
165
167
67
80
165
165
165
165
165
165
165
151
77
66
66
82
165
165
165
165
165
117
94
165
165
165
165
165
148
67
66
97
165
165
165
165
165
165
165
165
97
66
66
66
66
66
66
66
66
66
66
66
66
66
66
66
66
66
66
66
66
66
66
66
66
66
66
66
66
66
66
66
66
66
66
66
66
66
66
66
66
66
66
66
66
66
66
66
66
66
66
66
66
66
66
66
66
66
66
66
66
66
66
66
66
66
66
66
66
66
66
66
66
66
66
155
183
183
183
106
66
66
66
66
166
165
165
147
66
70
153
165
165
165
77
77
133
166
165
154
120
84
66
66
66
66
98
165
165
165
165
167
67
80
165
165
165
165
165
165
165
165
146
74
66
82
165
165
165
165
165
118
103
165
165
165
165
165
124
66
66
97
165
165
165
165
165
165
165
165
97
66
66
66
66
66
66
66
66
66
66
66
66
66
66
66
66
66
66
66
66
66
66
66
66
66
66
66
66
66
66
66
66
66
66
66
66
66
66
66
66
66
66
66
66
66
66
66
66
66
66
66
66
66
66
66
66
66
66
66
66
66
66
66
66
66
66
66
66
66
66
66
66
66
66
184
183
183
183
106
66
66
66
66
166
165
165
147
77
130
165
165
165
128
66
66
67
70
71
67
67
68
66
66
66
77
163
165
165
165
165
167
67
80
165
165
165
165
165
165
165
165
165
134
69
82
165
165
165
165
165
118
117
165
165
165
165
165
117
66
66
92
165
165
165
165
165
165
165
165
97
66
66
66
66
66
66
66
66
66
66
66
66
66
66
66
66
66
66
66
66
66
66
66
66
66
66
66
66
66
66
66
66
66
66
66
66
66
66
66
66
66
66
66
66
66
66
66
66
66
66
66
66
66
66
66
66
66
66
66
66
66
66
66
66
66
66
66
66
66
66
66
66
66
66
186
183
183
183
109
66
66
66
66
166
165
165
162
165
165
165
165
146
75
66
66
66
66
66
97
152
166
134
83
66
104
165
165
165
165
165
167
67
80
165
165
165
165
165
165
165
165
165
165
119
83
165
165
165
165
165
118
116
165
165
165
165
165
133
66
66
71
143
165
145
165
165
165
165
165
97
66
66
66
66
66
66
66
66
66
66
66
66
66
66
66
66
66
66
66
66
66
66
66
66
66
66
66
66
66
66
66
66
66
66
66
66
66
66
66
66
66
66
66
66
66
66
66
66
66
66
66
66
66
66
66
66
66
66
66
66
66
66
66
66
66
66
66
66
66
66
66
66
66
66
186
183
183
183
120
66
66
66
66
166
165
165
165
165
165
165
119
71
66
66
66
66
66
90
165
165
165
165
153
70
115
165
165
165
165
165
167
67
80
165
165
165
165
165
165
165
165
165
165
165
123
165
165
165
165
165
117
110
165
165
165
165
165
159
70
66
66
66
67
83
165
165
165
165
165
97
66
66
66
66
66
66
66
66
66
66
66
66
66
66
66
66
66
66
66
66
66
66
66
66
66
66
66
66
66
66
66
66
66
66
66
66
66
66
66
66
66
66
66
66
66
66
66
66
66
66
66
66
66
66
66
66
66
66
66
66
66
66
66
66
66
66
66
66
66
66
66
66
66
66
163
183
183
183
120
66
66
66
66
166
165
165
165
159
117
80
66
66
67
66
66
66
70
145
165
165
165
165
165
82
115
165
165
165
165
165
167
67
80
165
165
165
165
165
165
165
165
165
165
165
165
165
165
165
165
165
117
94
165
165
165
165
165
165
107
67
66
66
66
88
165
165
165
165
165
98
66
66
66
66
66
66
66
66
66
66
66
66
66
66
66
66
66
66
66
66
66
66
66
66
66
66
66
66
66
66
66
66
66
66
66
66
66
66
66
66
66
66
66
66
66
66
66
66
66
66
66
66
66
66
66
66
66
66
66
66
66
66
66
66
66
66
66
66
66
66
66
66
66
66
148
183
183
183
137
66
66
66
66
168
165
147
103
72
66
66
75
108
108
66
66
66
106
165
165
165
165
165
164
75
115
165
165
165
165
165
167
67
80
165
165
165
165
165
165
165
165
165
165
165
165
165
165
165
165
165
117
76
165
165
165
165
165
165
165
123
97
97
113
157
165
165
165
165
165
91
66
66
66
66
66
66
66
66
66
66
66
66
66
66
66
66
66
66
66
66
66
66
66
66
66
66
66
66
66
66
66
66
66
66
66
66
66
66
66
66
66
66
66
66
66
66
66
66
66
66
66
66
66
66
66
66
66
66
66
66
66
66
66
66
66
66
66
66
66
66
66
66
66
66
147
183
183
183
149
66
66
66
66
131
91
67
66
66
88
125
165
165
116
66
66
76
159
165
165
165
165
165
114
66
115
165
165
165
165
165
167
67
80
165
165
165
165
165
131
148
165
165
165
165
165
165
165
165
165
165
117
66
131
165
165
165
165
165
165
165
165
165
165
165
165
165
165
165
159
71
66
66
66
66
66
66
66
66
66
66
66
66
66
66
66
66
66
66
66
66
66
66
66
66
66
66
66
66
66
66
66
66
66
66
66
66
66
66
66
66
66
66
66
66
66
66
66
66
66
66
66
66
66
66
66
66
66
66
66
66
66
66
66
66
66
66
66
66
66
66
66
66
66
66
127
183
183
183
184
67
66
66
66
66
66
66
100
146
165
165
165
165
116
66
66
123
165
165
165
165
165
149
71
66
115
165
165
165
165
165
167
67
80
165
165
165
165
165
117
82
158
165
165
165
165
165
165
165
165
165
117
66
82
164
165
165
165
165
165
165
165
165
165
165
165
165
165
165
103
66
66
66
66
66
66
66
66
66
66
66
66
66
66
66
66
66
66
66
66
66
66
66
66
66
66
66
66
66
66
66
66
66
66
66
66
66
66
66
66
66
66
66
66
66
66
66
66
66
66
66
66
66
66
66
66
66
66
66
66
66
66
66
66
66
66
66
66
66
66
66
66
66
66
66
117
183
183
183
183
79
66
66
66
66
66
66
140
165
165
165
165
165
116
66
88
165
165
165
165
165
164
89
66
66
115
165
165
165
165
165
167
67
80
165
165
165
165
165
117
66
87
162
165
165
165
165
165
165
165
165
117
66
66
99
165
165
165
165
165
165
165
165
165
165
165
165
162
103
66
66
66
66
66
66
66
66
66
66
66
66
66
66
66
66
66
66
66
66
66
66
66
66
66
66
66
66
66
66
66
66
66
66
66
66
66
66
66
66
66
66
66
66
66
66
66
66
66
66
66
66
66
66
66
66
66
66
66
66
66
66
66
66
66
66
66
66
66
66
66
66
66
66
66
66
100
183
183
183
183
95
66
66
66
66
66
66
140
165
165
165
165
165
116
68
142
165
165
165
165
165
124
67
66
66
115
165
165
165
165
165
167
67
80
165
165
165
165
165
117
66
66
100
165
165
165
165
165
165
165
165
117
66
66
66
92
153
165
165
165
165
165
165
165
165
165
128
81
66
66
66
66
66
66
66
66
66
66
66
66
66
66
66
66
66
66
66
66
66
66
66
66
66
66
66
66
66
66
66
66
66
66
66
66
66
66
66
66
66
66
66
66
66
66
66
66
66
66
66
66
66
66
66
66
66
66
66
66
66
66
66
66
66
66
66
66
66
66
66
66
66
66
66
66
66
85
183
183
183
183
116
66
66
66
66
66
66
140
165
165
165
165
165
116
103
165
165
165
165
165
157
74
66
66
66
115
165
165
165
165
165
167
67
80
165
165
165
165
165
117
66
66
66
110
165
165
165
165
165
165
165
117
66
66
66
66
71
99
128
151
167
167
147
127
104
77
66
66
66
66
66
66
66
66
66
66
66
66
66
66
66
66
66
66
66
66
66
66
66
66
66
66
66
66
66
66
66
66
66
66
66
66
66
66
66
66
66
66
66
66
66
66
66
66
66
66
66
66
66
66
66
66
66
66
66
66
66
66
66
66
66
66
66
66
66
66
66
66
66
66
66
66
66
66
66
69
182
183
183
183
156
66
66
66
66
66
66
140
165
165
165
165
165
125
158
165
165
165
165
165
98
66
66
66
66
115
165
165
165
165
165
167
67
80
165
165
165
165
165
117
66
66
66
66
122
165
165
165
165
165
165
106
66
66
66
66
66
66
66
67
67
67
66
66
66
66
66
66
66
66
66
66
66
66
66
66
66
66
66
66
66
66
66
66
66
66
66
66
66
66
66
66
66
66
66
66
66
66
66
66
66
66
66
66
66
66
66
66
66
66
66
66
66
66
66
66
66
66
66
66
66
66
66
66
66
66
66
66
66
66
66
66
66
66
66
66
66
66
66
66
66
66
66
66
66
66
148
183
183
183
184
75
66
66
66
66
66
140
165
165
165
165
165
166
165
165
165
165
165
133
66
66
66
66
66
115
165
165
165
165
165
167
67
80
165
165
165
165
165
120
66
66
66
66
69
134
165
165
165
165
160
79
66
66
66
66
66
66
66
66
68
77
87
95
74
66
66
66
66
66
66
66
66
66
66
66
66
66
66
66
66
66
66
66
66
66
66
66
66
66
66
66
66
66
66
66
66
66
66
66
66
66
66
66
66
66
66
66
66
66
66
66
66
66
66
66
66
66
66
66
66
66
66
66
66
66
66
66
66
66
66
66
66
66
66
66
66
66
66
66
66
66
66
66
66
66
114
183
183
183
183
105
66
66
66
66
66
140
165
165
165
165
165
165
165
165
165
165
165
108
66
66
66
66
66
115
165
165
165
165
165
167
67
80
165
165
165
165
165
119
66
66
66
66
66
70
125
165
165
148
90
66
66
66
66
66
68
77
88
98
108
108
108
108
83
66
66
66
66
66
66
66
66
66
66
66
66
66
66
66
66
66
66
66
66
66
66
66
66
66
66
66
66
66
66
66
66
66
66
66
66
66
66
66
66
66
66
66
66
66
66
66
66
66
66
66
66
66
66
66
66
66
66
66
66
66
66
66
66
66
66
66
66
66
66
66
66
66
66
66
66
66
66
66
66
66
90
183
183
183
183
145
67
66
66
66
66
140
165
165
165
165
165
165
165
165
165
165
165
164
100
66
66
66
66
115
165
165
165
165
165
167
67
80
165
165
165
165
165
110
66
66
66
66
66
66
66
75
78
68
66
66
67
74
86
96
107
108
108
108
108
108
108
108
74
66
66
66
66
66
66
66
66
66
66
66
66
66
66
66
66
66
66
66
66
66
66
66
66
66
66
66
66
66
66
66
66
66
66
66
66
66
66
66
66
66
66
66
66
66
66
66
66
66
66
66
66
66
66
66
66
66
66
66
66
66
66
66
66
66
66
66
66
66
66
66
66
66
66
66
66
66
66
66
66
66
68
171
183
183
183
183
82
66
66
66
66
140
165
165
165
165
165
165
165
165
165
165
165
165
165
100
67
66
66
115
165
165
165
165
165
167
67
80
165
165
165
165
164
80
66
66
66
66
66
66
66
66
66
70
80
91
104
108
108
108
108
108
106
91
104
108
108
101
67
66
66
76
98
67
66
66
66
66
66
66
66
66
66
66
66
66
66
66
66
66
66
66
66
66
66
66
66
66
66
66
66
66
66
66
66
66
66
66
66
66
66
66
66
66
66
66
66
66
66
66
66
66
66
66
66
66
66
66
66
66
66
66
66
66
66
66
66
66
66
66
66
66
66
66
66
66
66
66
66
66
66
128
183
183
183
183
122
66
66
66
66
140
165
165
165
165
165
165
165
165
165
165
165
165
165
165
100
66
66
115
165
165
165
165
165
155
67
80
165
165
165
159
94
66
66
66
66
66
66
66
74
86
98
108
108
108
108
108
108
108
108
108
85
66
85
108
108
83
66
66
66
118
183
151
90
66
66
66
66
66
66
66
66
66
66
66
66
66
66
66
66
66
66
66
66
66
66
66
66
66
66
66
66
66
66
66
66
66
66
66
66
66
66
66
66
66
66
66
66
66
66
66
66
66
66
66
66
66
66
66
66
66
66
66
66
66
66
66
66
66
66
66
66
66
66
66
66
66
66
66
66
90
183
183
183
183
176
73
66
66
66
140
165
165
165
165
165
122
134
165
165
165
165
165
165
165
165
100
66
115
165
165
165
165
165
126
66
81
165
132
99
72
66
66
66
66
67
78
88
103
108
108
108
108
108
108
108
108
108
108
108
106
70
66
97
108
103
68
66
66
74
177
183
183
183
142
83
66
66
66
66
66
66
66
66
66
66
66
66
66
66
66
66
66
66
66
66
66
66
66
66
66
66
66
66
66
66
66
66
66
66
66
66
66
66
66
66
66
66
66
66
66
66
66
66
66
66
66
66
66
66
66
66
66
66
66
66
66
66
66
66
66
66
66
66
66
66
66
66
66
66
67
160
183
183
183
183
118
66
66
66
140
165
165
165
165
165
117
71
137
165
165
165
165
165
165
165
165
77
115
165
165
165
165
160
82
66
71
74
66
66
66
66
68
79
93
105
108
108
108
108
108
108
108
108
108
108
108
108
108
108
89
66
78
108
108
81
66
66
66
122
183
183
183
183
183
183
130
78
66
66
66
66
66
66
66
66
66
66
66
66
66
66
66
66
66
66
66
66
66
66
66
66
66
66
66
66
66
66
66
66
66
66
66
66
66
66
66
66
66
66
66
66
66
66
66
66
66
66
66
66
66
66
66
66
66
66
66
66
66
66
66
66
66
66
66
66
66
66
66
66
66
107
183
183
183
183
177
78
66
66
140
165
165
165
165
165
117
66
73
145
165
165
165
165
165
165
165
97
115
165
165
164
133
81
66
66
66
66
66
69
80
94
106
108
108
108
108
108
108
108
108
108
108
108
108
108
108
108
108
105
70
68
101
108
97
66
66
66
81
182
183
183
183
183
183
183
183
153
66
66
66
66
66
66
66
66
66
66
66
66
66
66
66
66
66
66
66
66
66
66
66
66
66
66
66
66
66
66
66
66
66
66
66
66
66
66
66
66
66
66
66
66
66
66
66
66
66
66
66
66
66
66
66
66
66
66
66
66
66
66
66
66
66
66
66
66
66
66
66
66
66
72
173
183
183
183
183
131
66
66
140
165
165
165
165
165
117
66
66
77
148
165
165
165
165
165
165
91
115
151
109
80
67
66
66
66
68
80
94
106
108
108
108
108
108
108
108
108
108
108
108
108
108
108
108
108
108
108
108
84
66
88
108
105
71
66
66
66
140
183
183
183
183
183
183
183
183
102
66
66
66
66
66
66
66
66
66
66
66
66
66
66
66
66
66
66
66
66
66
66
66
66
66
66
66
66
66
66
66
66
66
66
66
66
66
66
66
66
66
66
66
66
66
66
66
66
66
66
66
66
66
66
66
66
66
66
66
66
66
66
66
66
66
66
66
66
66
66
66
66
66
66
116
183
183
183
183
183
94
66
140
165
165
165
165
165
117
66
66
66
76
148
165
165
165
165
145
69
74
67
66
66
66
68
79
94
106
108
108
108
108
108
108
108
108
108
108
108
108
108
108
108
108
108
108
108
108
108
97
66
80
108
108
78
66
66
66
100
183
183
183
183
183
183
183
183
165
69
66
66
66
66
66
66
66
66
66
66
66
66
66
66
66
66
66
66
66
66
66
66
66
66
66
66
66
66
66
66
66
66
66
66
66
66
66
66
66
66
66
66
66
66
66
66
66
66
66
66
66
66
66
66
66
66
66
66
66
66
66
66
66
66
66
66
66
66
66
66
66
66
66
66
73
171
183
183
183
183
167
75
140
165
165
165
165
165
117
66
66
66
66
77
129
165
165
125
76
66
66
66
67
77
91
105
108
108
108
108
108
108
108
108
108
108
108
108
108
108
108
108
108
108
108
108
108
108
108
104
71
76
106
108
83
66
66
66
77
174
183
183
183
183
183
183
183
183
102
66
66
66
66
66
66
66
66
66
66
66
66
66
66
66
66
66
66
66
66
66
66
66
66
66
66
66
66
66
66
66
66
66
66
66
66
66
66
66
66
66
66
66
66
66
66
66
66
66
66
66
66
66
66
66
66
66
66
66
66
66
66
66
66
66
66
66
66
66
66
66
66
66
66
66
66
107
183
183
183
183
183
101
140
165
165
165
165
165
112
66
66
66
66
66
66
67
67
66
66
66
71
87
103
108
108
108
108
108
108
108
108
108
108
108
108
108
108
108
108
108
108
108
108
108
108
108
108
108
106
75
77
105
108
84
66
66
66
68
143
183
183
183
183
183
183
183
183
154
67
66
66
66
66
66
66
66
66
66
66
66
66
66
66
66
66
66
66
66
66
66
66
66
66
66
66
66
66
66
66
66
66
66
66
66
66
66
66
66
66
66
66
66
66
66
66
66
66
66
66
66
66
66
66
66
66
66
66
66
66
66
66
66
66
66
66
66
66
66
66
66
66
66
66
66
66
70
157
183
183
183
183
101
140
165
165
165
165
165
94
66
66
66
66
66
66
66
66
68
81
97
108
108
108
108
108
108
108
108
108
108
108
108
108
108
108
108
108
108
108
108
108
108
108
108
108
108
108
106
78
81
106
106
83
66
66
66
66
119
183
183
183
183
183
183
183
183
183
88
66
66
66
66
66
66
66
66
66
66
66
66
66
66
66
66
66
66
66
66
66
66
66
66
66
66
66
66
66
66
66
66
66
66
66
66
66
66
66
66
66
66
66
66
66
66
66
66
66
66
66
66
66
66
66
66
66
66
66
66
66
66
66
66
66
66
66
66
66
66
66
66
66
66
66
66
66
66
90
184
183
183
183
101
140
165
165
165
165
137
70
66
66
66
66
66
66
70
88
104
108
108
108
108
108
108
108
108
108
108
108
108
108
108
108
108
108
108
108
108
108
108
108
108
108
108
108
108
105
79
89
108
104
77
66
66
66
66
100
183
183
183
183
183
183
183
183
183
123
66
66
66
66
66
66
66
66
66
66
66
66
66
66
66
66
66
66
66
66
66
66
66
66
66
66
66
66
66
66
66
66
66
66
66
66
66
66
66
66
66
66
66
66
66
66
66
66
66
66
66
66
66
66
66
66
66
66
66
66
66
66
66
66
66
66
66
66
66
66
66
66
66
66
66
66
66
66
66
68
123
183
183
183
101
140
165
165
137
96
69
66
66
66
66
66
66
66
99
108
108
108
108
108
108
108
108
108
108
108
108
108
108
108
108
108
108
108
108
108
108
108
108
108
108
108
108
108
100
83
101
108
94
71
66
66
66
66
89
179
183
183
183
183
183
183
183
183
163
71
66
66
66
66
66
66
66
66
66
66
66
66
66
66
66
66
66
66
66
66
66
66
66
66
66
66
66
66
66
66
66
66
66
66
66
66
66
66
66
66
66
66
66
66
66
66
66
66
66
66
66
66
66
66
66
66
66
66
66
66
66
66
66
66
66
66
66
66
66
66
66
66
66
66
66
66
66
66
66
66
71
156
183
183
101
137
119
86
86
67
66
66
66
66
66
66
66
66
83
108
108
108
108
108
108
108
108
108
108
108
108
108
108
108
108
108
108
108
108
108
108
108
108
108
108
108
108
99
97
108
102
80
66
66
66
66
66
86
175
183
183
183
183
183
183
183
183
182
86
66
66
66
66
66
66
66
66
66
66
66
66
66
66
66
66
66
66
66
66
66
66
66
66
66
66
66
66
66
66
66
66
66
66
66
66
66
66
66
66
66
66
66
66
66
66
66
66
66
66
66
66
66
66
66
66
66
66
66
66
66
66
66
66
66
66
66
66
66
66
66
66
66
66
66
66
66
66
66
66
66
66
83
176
183
101
81
117
173
184
107
66
66
66
66
66
66
66
66
66
80
105
108
108
108
108
108
108
108
108
108
108
108
108
108
108
108
108
108
108
108
108
108
108
108
108
108
107
108
103
83
68
66
66
66
66
66
89
175
183
183
183
183
183
183
183
183
183
108
66
66
66
66
66
66
66
66
66
66
66
66
66
66
66
66
66
66
66
66
66
66
66
66
66
66
66
66
66
66
66
66
66
66
66
66
66
66
66
66
66
66
66
66
66
66
66
66
66
66
66
66
66
66
66
66
66
66
66
66
66
66
66
66
66
66
66
66
66
66
66
66
66
66
66
66
66
66
66
66
66
66
66
66
99
183
159
183
183
183
183
183
128
70
66
66
66
66
66
66
66
66
69
88
105
108
108
108
108
108
108
108
108
108
108
108
108
108
108
108
108
108
108
108
108
108
108
108
97
80
68
66
66
66
66
66
66
102
181
183
183
183
183
183
183
183
183
183
127
67
66
66
66
66
66
66
66
66
66
66
66
66
66
66
66
66
66
66
66
66
66
66
66
66
66
66
66
66
66
66
66
66
66
66
66
66
66
66
66
66
66
66
66
66
66
66
66
66
66
66
66
66
66
66
66
66
66
66
66
66
66
66
66
66
66
66
66
66
66
66
66
66
66
66
66
66
66
66
66
66
66
66
66
66
66
111
183
183
183
183
183
183
183
155
82
66
66
66
66
66
66
66
66
66
68
82
96
107
108
108
108
108
108
108
108
108
108
108
108
108
108
108
108
108
108
96
84
71
66
66
66
66
66
66
66
70
121
183
183
183
183
183
183
183
183
183
183
142
70
66
66
66
66
66
66
66
66
66
66
66
66
66
66
66
66
66
66
66
66
66
66
66
66
66
66
66
66
66
66
66
66
66
66
66
66
66
66
66
66
66
66
66
66
66
66
66
66
66
66
66
66
66
66
66
66
66
66
66
66
66
66
66
66
66
66
66
66
66
66
66
66
66
66
66
66
66
66
66
66
66
66
66
66
66
66
66
122
183
183
183
183
183
183
183
180
113
69
66
66
66
66
66
66
66
66
66
66
68
77
86
94
100
107
108
108
108
108
108
108
106
100
93
86
77
68
66
66
66
66
66
66
66
66
66
79
148
183
183
183
183
183
183
183
183
183
183
149
71
66
66
66
66
66
66
66
66
66
66
66
66
66
66
66
66
66
66
66
66
66
66
66
66
66
66
66
66
66
66
66
66
66
66
66
66
66
66
66
66
66
66
66
66
66
66
66
66
66
66
66
66
66
66
66
66
66
66
66
66
66
66
66
66
66
66
66
66
66
66
66
66
66
66
66
66
66
66
66
66
66
66
66
66
66
66
66
66
67
121
182
183
183
183
183
183
183
183
156
94
67
66
66
66
66
66
66
66
66
66
66
66
66
66
67
68
68
73
72
69
68
67
66
66
66
66
66
66
66
66
66
66
66
66
70
111
177
183
183
183
183
183
183
183
183
183
183
151
74
66
66
66
66
66
66
66
66
66
66
66
66
66
66
66
66
66
66
66
66
66
66
66
66
66
66
66
66
66
66
66
66
66
66
66
66
66
66
66
66
66
66
66
66
66
66
66
66
66
66
66
66
66
66
66
66
66
66
66
66
66
66
66
66
66
66
66
66
66
66
66
66
66
66
66
66
66
66
66
66
66
66
66
66
66
66
66
66
66
66
66
120
183
183
183
183
183
183
183
183
183
146
94
67
66
66
66
66
66
66
66
66
66
66
66
66
66
66
66
66
66
66
66
66
66
66
66
66
66
66
66
66
66
66
97
159
183
183
183
183
183
183
183
183
183
183
183
142
74
66
66
66
66
66
66
66
66
66
66
66
66
66
66
66
66
66
66
66
66
66
66
66
66
66
66
66
66
66
66
66
66
66
66
66
66
66
66
66
66
66
66
66
66
66
66
66
66
66
66
66
66
66
66
66
66
66
66
66
66
66
66
66
66
66
66
66
66
66
66
66
66
66
66
66
66
66
66
66
66
66
66
66
66
66
66
66
66
66
66
66
66
66
108
184
183
183
183
183
183
183
183
183
183
157
103
74
66
66
66
66
66
66
66
66
66
66
66
66
66
66
66
66
66
66
66
66
66
66
66
66
66
70
102
155
183
183
183
183
183
183
183
183
183
183
183
183
138
69
66
66
66
66
66
66
66
66
66
66
66
66
66
66
66
66
66
66
66
66
66
66
66
66
66
66
66
66
66
66
66
66
66
66
66
66
66
66
66
66
66
66
66
66
66
66
66
66
66
66
66
66
66
66
66
66
66
66
66
66
66
66
66
66
66
66
66
66
66
66
66
66
66
66
66
66
66
66
66
66
66
66
66
66
66
66
66
66
66
66
66
66
66
66
66
92
174
183
183
183
183
183
183
183
183
183
183
182
136
102
77
66
66
66
66
66
66
66
66
66
66
66
66
66
66
66
66
66
66
66
67
90
123
173
183
183
183
183
183
183
183
183
183
183
183
183
183
116
67
66
66
66
66
66
66
66
66
66
66
66
66
66
66
66
66
66
66
66
66
66
66
66
66
66
66
66
66
66
66
66
66
66
66
66
66
66
66
66
66
66
66
66
66
66
66
66
66
66
66
66
66
66
66
66
66
66
66
66
66
66
66
66
66
66
66
66
66
66
66
66
66
66
66
66
66
66
66
66
66
66
66
66
66
66
66
66
66
66
66
66
66
66
66
66
66
66
80
149
183
183
183
183
183
183
183
183
183
183
183
183
183
160
125
104
87
74
66
66
66
66
66
66
66
66
66
66
74
88
108
134
173
183
183
183
183
183
183
183
183
183
183
183
183
183
183
172
94
66
66
66
66
66
66
66
66
66
66
66
66
66
66
66
66
66
66
66
66
66
66
66
66
66
66
66
66
66
66
66
66
66
66
66
66
66
66
66
66
66
66
66
66
66
66
66
66
66
66
66
66
66
66
66
66
66
66
66
66
66
66
66
66
66
66
66
66
66
66
66
66
66
66
66
66
66
66
66
66
66
66
66
66
66
66
66
66
66
66
66
66
66
66
66
66
66
66
66
66
69
114
181
183
183
183
183
183
183
183
183
183
183
183
183
183
183
183
183
185
154
148
148
136
134
144
148
151
181
184
183
183
183
183
183
183
183
183
183
183
183
183
183
183
183
183
183
137
77
66
66
66
66
66
66
66
66
66
66
66
66
66
66
66
66
66
66
66
66
66
66
66
66
66
66
66
66
66
66
66
66
66
66
66
66
66
66
66
66
66
66
66
66
66
66
66
66
66
66
66
66
66
66
66
66
66
66
66
66
66
66
66
66
66
66
66
66
66
66
66
66
66
66
66
66
66
66
66
66
66
66
66
66
66
66
66
66
66
66
66
66
66
66
66
66
66
66
66
66
66
66
67
82
145
183
183
183
183
183
183
183
183
183
183
183
183
183
183
183
183
183
183
183
183
183
183
183
183
183
183
183
183
183
183
183
183
183
183
183
183
183
183
183
183
183
168
99
67
66
66
66
66
66
66
66
66
66
66
66
66
66
66
66
66
66
66
66
66
66
66
66
66
66
66
66
66
66
66
66
66
66
66
66
66
66
66
66
66
66
66
66
66
66
66
66
66
66
66
66
66
66
66
66
66
66
66
66
66
66
66
66
66
66
66
66
66
66
66
66
66
66
66
66
66
66
66
66
66
66
66
66
66
66
66
66
66
66
66
66
66
66
66
66
66
66
66
66
66
66
66
66
66
66
66
97
159
183
183
183
183
183
183
183
183
183
183
183
183
183
183
183
183
183
183
183
183
183
183
183
183
183
183
183
183
183
183
183
183
183
183
183
183
183
174
117
71
66
66
66
66
66
66
66
66
66
66
66
66
66
66
66
66
66
66
66
66
66
66
66
66
66
66
66
66
66
66
66
66
66
66
66
66
66
66
66
66
66
66
66
66
66
66
66
66
66
66
66
66
66
66
66
66
66
66
66
66
66
66
66
66
66
66
66
66
66
66
66
66
66
66
66
66
66
66
66
66
66
66
66
66
66
66
66
66
66
66
66
66
66
66
66
66
66
66
66
66
66
66
66
66
66
66
66
66
66
68
99
154
183
183
183
183
183
183
183
183
183
183
183
183
183
183
183
183
183
183
183
183
183
183
183
183
183
183
183
183
183
183
183
183
183
172
117
74
66
66
66
66
66
66
66
66
66
66
66
66
66
66
66
66
66
66
66
66
66
66
66
66
66
66
66
66
66
66
66
66
66
66
66
66
66
66
66
66
66
66
66
66
66
66
66
66
66
66
66
66
66
66
66
66
66
66
66
66
66
66
66
66
66
66
66
66
66
66
66
66
66
66
66
66
66
66
66
66
66
66
66
66
66
66
66
66
66
66
66
66
66
66
66
66
66
66
66
66
66
66
66
66
66
66
66
66
66
66
66
66
66
67
91
132
180
183
183
183
183
183
183
183
183
183
183
183
183
183
183
183
183
183
183
183
183
183
183
183
183
183
183
183
183
148
103
71
66
66
66
66
66
66
66
66
66
66
66
66
66
66
66
66
66
66
66
66
66
66
66
66
66
66
66
66
66
66
66
66
66
66
66
66
66
66
66
66
66
66
66
66
66
66
66
66
66
66
66
66
66
66
66
66
66
66
66
66
66
66
66
66
66
66
66
66
66
66
66
66
66
66
66
66
66
66
66
66
66
66
66
66
66
66
66
66
66
66
66
66
66
66
66
66
66
66
66
66
66
66
66
66
66
66
66
66
66
66
66
66
66
66
66
66
66
66
74
100
135
177
183
183
183
183
183
183
183
183
183
183
183
183
183
183
183
183
183
183
183
183
183
183
151
112
82
66
66
66
66
66
66
66
66
66
66
66
66
66
66
66
66
66
66
66
66
66
66
66
66
66
66
66
66
66
66
66
66
66
66
66
66
66
66
66
66
66
66
66
66
66
66
66
66
66
66
66
66
66
66
66
66
66
66
66
66
66
66
66
66
66
66
66
66
66
66
66
66
66
66
66
66
66
66
66
66
66
66
66
66
66
66
66
66
66
66
66
66
66
66
66
66
66
66
66
66
66
66
66
66
66
66
66
66
66
66
66
66
66
66
66
66
66
66
66
66
66
66
66
67
69
88
110
130
159
184
183
183
183
183
183
183
183
183
183
183
183
183
165
138
115
94
74
67
66
66
66
66
66
66
66
66
66
66
66
66
66
66
66
66
66
66
66
66
66
66
66
66
66
66
66
66
66
66
66
66
66
66
66
66
66
66
66
66
66
66
66
66
66
66
66
66
66
66
66
66
66
66
66
66
66
66
66
66
66
66
66
66
66
66
66
66
66
66
66
66
66
66
66
66
66
66
66
66
66
66
66
66
66
66
66
66
66
66
66
66
66
66
66
66
66
66
66
66
66
66
66
66
66
66
66
66
66
66
66
66
66
66
66
66
66
66
66
66
66
66
66
66
66
66
66
66
66
66
66
66
82
85
98
100
103
103
103
101
99
86
83
68
66
66
66
66
66
66
66
66
66
66
66
66
66
66
66
66
66
66
66
66
66
66
66
66
66
66
66
66
66
66
66
66
66
66
66
66
66
66
66
66
66
66
66
66
66
66
66
66
66
66
66
66
66
66
66
66
66
66
66
66
66
66
66
66
66
66
66
