P2
150 76
255
0
0
0
0
0
0
0
0
0
0
0
0
0
0
0
0
0
0
0
0
0
0
0
0
0
0
0
0
0
0
0
0
0
0
0
0
0
0
0
0
0
0
0
0
0
0
0
0
0
0
0
0
0
0
0
0
0
0
0
0
0
0
0
0
0
0
0
0
0
0
0
0
0
0
0
0
0
0
0
0
0
0
0
0
0
0
0
0
0
0
0
0
0
0
0
0
0
0
0
0
0
0
0
0
0
0
0
0
0
0
0
0
0
0
0
0
0
0
0
0
0
0
0
0
0
0
0
0
0
0
0
0
0
0
0
0
0
0
0
0
0
0
0
0
0
0
0
0
0
0
0
0
0
0
0
0
0
0
0
0
0
0
0
0
0
0
0
0
0
0
0
0
0
0
0
0
0
0
0
0
0
0
0
0
0
0
0
0
0
0
0
0
0
0
0
0
0
0
0
0
0
0
0
0
0
0
0
0
0
0
0
0
0
0
0
0
0
0
0
0
0
0
0
0
0
0
0
0
0
0
0
0
0
0
0
0
0
0
0
0
0
0
0
0
0
0
0
0
0
0
0
0
0
0
0
0
0
0
0
0
0
0
0
0
0
0
0
0
0
0
0
0
0
0
0
0
0
0
0
0
0
0
0
0
0
0
0
0
0
0
0
0
0
0
0
0
0
0
0
0
0
0
0
0
0
0
0
0
0
0
0
0
0
0
0
0
0
0
0
0
0
0
0
0
0
0
0
0
0
0
0
0
0
0
0
0
0
0
0
0
0
0
0
0
0
0
0
0
0
0
0
0
0
0
0
0
0
0
0
0
0
0
0
0
0
0
0
0
0
0
0
0
0
0
0
0
0
0
0
0
0
0
0
0
0
0
0
0
0
0
0
0
0
0
0
0
0
0
0
0
0
0
0
0
0
0
0
0
0
0
0
0
0
0
0
0
0
0
0
0
0
0
0
0
0
0
0
0
0
0
0
0
0
0
0
0
0
0
0
0
0
0
0
0
0
0
0
0
0
0
0
0
0
0
0
0
0
0
0
0
0
0
0
0
0
0
0
0
0
0
0
0
0
0
0
0
0
0
0
0
0
0
0
0
0
0
0
0
0
0
0
0
0
0
0
0
0
0
0
0
0
0
0
0
0
0
0
0
0
0
0
0
0
0
0
0
0
0
0
0
0
0
0
0
0
0
0
0
0
0
0
0
0
0
0
0
0
0
0
0
0
0
0
0
0
0
0
0
0
0
0
0
0
0
0
0
0
0
0
0
0
0
0
0
0
0
0
0
0
0
0
0
0
0
0
0
0
0
0
0
0
0
0
0
0
0
0
0
0
0
0
0
0
0
0
0
0
0
0
0
0
0
0
0
0
0
0
0
0
0
0
0
0
0
0
0
0
0
0
0
0
0
0
0
0
0
0
0
0
0
0
0
0
0
0
0
0
0
0
0
0
0
0
0
0
0
0
0
0
0
0
0
0
0
0
0
0
0
0
0
0
0
0
0
0
0
0
0
0
0
0
0
0
0
0
0
0
0
0
0
0
0
0
0
0
0
0
0
0
0
0
0
0
0
0
0
0
0
0
0
0
0
0
0
0
0
0
0
0
0
0
0
0
0
0
0
0
0
0
0
0
0
0
0
0
0
0
0
0
0
0
0
0
0
0
0
0
0
0
0
0
0
0
0
0
0
0
0
0
0
0
0
0
0
0
0
0
0
0
0
0
0
0
0
0
0
0
0
0
0
0
0
0
0
0
0
0
0
0
0
0
0
0
0
0
0
0
0
0
0
0
0
0
0
0
0
0
0
0
0
0
0
0
0
0
0
0
0
0
0
0
0
0
0
0
0
0
0
0
0
0
0
0
0
0
0
0
0
0
0
0
0
0
0
0
0
0
0
0
0
0
0
0
0
0
0
0
0
0
0
0
0
0
0
0
0
0
0
0
0
0
0
0
0
0
0
0
0
0
0
0
0
0
0
0
0
0
0
0
0
0
0
0
0
0
0
0
0
0
0
0
0
0
0
0
0
0
0
0
0
0
0
0
0
0
0
0
0
0
0
0
0
0
0
0
0
0
0
0
0
0
0
0
0
0
0
0
0
0
0
0
0
0
0
0
0
0
0
0
0
0
0
0
0
0
0
0
0
0
0
0
0
0
0
0
0
0
0
0
0
0
0
0
0
0
0
0
0
0
0
0
0
0
0
0
0
0
0
0
0
0
0
0
0
0
0
0
0
0
0
0
0
0
0
0
0
0
0
0
0
0
0
0
0
0
0
0
0
0
0
0
0
0
0
0
0
0
0
0
0
0
0
0
0
0
0
0
0
0
0
0
0
0
0
0
0
0
0
0
0
0
0
0
0
0
0
0
0
0
0
0
0
0
0
0
0
0
0
0
0
0
0
0
0
0
0
0
0
0
0
0
0
0
0
0
0
0
0
0
0
0
0
0
0
0
0
0
0
0
0
0
0
0
0
0
0
0
0
0
0
0
0
0
0
0
0
0
0
0
0
0
0
0
0
0
0
0
0
0
0
0
0
0
0
0
0
0
0
0
0
0
0
0
0
0
0
0
0
0
0
0
0
0
0
0
0
0
0
0
0
0
0
0
0
0
0
0
0
0
0
0
0
0
0
0
0
0
0
0
0
0
0
0
0
0
0
0
0
0
0
0
0
0
0
0
0
0
0
0
0
0
0
0
0
0
0
0
0
0
0
0
0
0
0
0
0
0
0
0
0
0
0
0
0
0
0
0
0
0
0
0
0
0
0
0
0
0
0
0
0
0
0
0
0
0
0
1
0
0
0
0
0
0
1
1
0
0
0
0
0
0
0
0
0
0
0
0
0
0
0
0
0
0
0
0
0
0
0
0
0
0
0
0
0
0
0
0
0
0
0
0
0
0
0
0
0
0
0
0
0
0
0
0
0
0
0
0
0
0
0
0
0
0
0
0
0
0
0
0
0
0
0
0
0
0
0
0
0
0
0
0
0
0
0
0
0
0
0
0
0
0
0
0
0
0
0
0
0
0
0
0
0
0
0
0
0
0
0
0
0
0
0
0
0
0
0
0
0
0
0
0
0
0
0
0
0
0
0
0
0
0
0
0
0
0
0
0
0
0
0
0
0
0
0
0
0
0
1
1
1
1
1
0
1
1
1
1
1
0
0
0
0
0
0
0
0
0
0
0
0
0
0
0
0
0
0
0
0
0
0
0
0
0
0
0
0
0
0
0
0
0
0
0
0
0
0
0
0
0
0
0
0
0
0
0
0
0
0
0
0
0
0
0
0
0
0
0
0
0
0
0
0
0
0
0
0
0
0
0
0
0
0
0
0
0
0
0
0
0
0
0
0
0
0
0
0
0
0
0
0
0
0
0
0
0
0
0
0
0
0
0
0
0
0
0
0
0
0
0
0
0
0
0
0
0
0
0
0
0
0
0
0
0
0
0
0
0
0
0
0
0
0
0
0
0
0
1
1
1
2
0
0
0
0
0
2
2
2
1
0
0
0
0
0
0
0
0
0
0
0
0
0
0
0
0
0
0
0
0
0
0
0
0
0
0
0
0
0
0
0
0
0
0
0
0
0
0
0
0
0
0
0
0
0
0
0
0
0
0
0
0
0
0
0
0
0
0
0
0
0
0
0
0
0
0
0
0
0
0
0
0
0
0
0
0
0
0
0
0
0
0
0
0
0
0
0
0
0
0
0
0
0
0
0
0
0
0
0
0
0
0
0
0
0
0
0
0
0
0
0
0
0
0
0
0
0
0
0
0
0
0
0
0
0
0
0
0
0
0
0
0
0
0
0
0
1
1
3
32
130
164
178
180
172
157
110
6
2
0
0
0
0
0
0
0
0
0
0
0
0
0
0
0
0
0
0
0
0
0
0
0
0
0
0
0
0
0
0
0
0
0
0
0
0
0
0
0
0
0
0
0
0
0
0
0
0
0
0
0
0
0
0
0
0
0
0
0
0
0
0
0
0
0
0
0
0
0
0
0
0
0
0
0
0
0
0
0
0
0
0
0
0
0
0
0
0
0
0
0
0
0
0
0
0
0
0
0
0
0
0
0
0
0
0
0
0
0
0
0
0
0
0
0
0
0
0
0
0
0
0
0
0
0
0
0
0
0
0
0
0
0
0
0
0
0
1
1
1
162
180
178
177
176
175
177
177
129
0
1
0
0
0
0
0
0
0
0
0
0
0
0
0
0
0
0
0
0
0
0
0
0
0
0
0
0
0
0
0
0
0
0
0
0
0
0
0
0
0
0
0
0
0
0
0
0
0
0
0
0
0
0
0
0
0
0
0
0
0
0
0
0
0
0
0
0
0
0
0
0
0
0
0
0
0
0
0
0
0
0
0
0
0
0
0
0
0
0
0
0
0
0
0
0
0
0
0
0
0
0
0
0
0
0
0
0
0
0
0
0
0
0
0
0
0
0
0
0
0
0
0
0
0
0
0
0
0
0
0
0
0
0
0
0
0
0
0
2
86
184
177
177
176
175
175
174
174
173
31
0
0
0
0
0
0
0
0
0
0
0
0
0
0
0
0
0
0
0
0
0
0
0
0
0
0
0
0
0
0
0
0
0
0
0
0
0
0
0
0
0
0
0
0
0
0
0
0
0
0
0
0
0
0
0
0
0
0
0
0
0
0
0
0
0
0
0
0
0
0
0
0
0
0
0
0
0
0
0
0
0
0
0
0
0
0
0
0
0
0
0
0
0
0
0
0
0
0
0
0
0
0
0
0
0
0
0
0
0
0
0
0
0
0
0
0
0
0
0
0
0
0
0
0
0
0
0
0
0
0
0
0
0
0
0
0
0
0
1
118
178
177
176
176
175
175
174
173
174
71
0
0
0
0
0
0
0
0
0
0
0
0
0
0
0
0
0
0
0
0
0
0
0
0
0
0
0
0
0
0
0
0
0
0
0
0
0
0
0
0
0
0
0
0
0
0
0
0
0
0
0
0
0
0
0
0
0
0
0
0
0
0
0
0
0
0
0
0
0
0
0
0
0
0
0
0
0
0
0
0
0
0
0
0
0
0
0
0
0
0
0
0
0
0
0
0
0
0
0
0
0
0
0
0
0
0
0
0
0
0
0
0
0
0
0
0
0
0
0
0
0
0
0
0
0
0
0
0
0
0
0
0
0
0
0
0
0
0
0
121
176
176
176
175
175
174
173
172
175
72
1
0
0
0
0
0
0
0
0
0
0
0
0
0
0
0
0
0
0
0
0
0
0
0
0
0
0
0
0
0
0
0
0
0
0
0
0
0
0
0
0
0
0
0
0
0
0
0
0
0
0
0
0
0
0
0
0
0
0
0
0
0
0
0
0
0
0
0
0
0
0
0
0
0
0
0
0
0
0
0
0
0
0
0
0
0
0
0
0
0
0
0
0
0
0
0
0
0
0
0
0
0
0
0
0
0
0
0
0
0
0
0
0
0
0
0
0
0
0
0
0
0
0
0
0
0
0
0
0
0
0
0
0
0
0
0
0
0
0
118
177
175
176
175
174
173
172
171
174
71
0
0
0
0
0
0
0
0
0
0
0
0
0
0
0
0
0
0
0
0
0
0
0
0
0
0
0
0
0
0
0
0
0
0
0
0
0
0
0
0
0
0
0
0
0
0
0
0
0
0
0
0
0
0
0
0
0
0
0
0
0
0
0
0
0
0
0
0
0
0
0
0
0
0
0
0
0
0
0
0
0
0
0
0
0
0
0
0
0
0
0
0
0
0
0
0
0
0
0
0
0
0
0
0
0
0
0
0
0
0
0
0
0
0
0
0
0
0
0
0
0
0
0
0
0
0
0
0
0
0
0
0
0
0
0
0
0
0
0
119
177
175
175
174
173
171
172
171
173
71
0
0
0
0
0
0
0
0
0
0
0
0
0
0
0
0
0
0
0
0
0
0
0
0
0
0
0
0
0
0
0
0
0
0
0
0
0
0
0
0
0
0
0
0
0
0
0
0
0
0
0
0
0
0
0
0
0
0
0
0
0
0
0
0
0
0
0
0
0
0
0
0
0
0
0
0
0
0
0
0
0
0
0
0
0
0
0
0
0
0
0
0
0
0
0
0
0
0
0
0
0
0
0
0
0
0
0
0
0
0
0
0
0
0
0
0
0
0
0
0
0
0
0
0
0
0
0
0
0
0
0
0
0
0
0
0
0
0
0
119
176
174
174
173
172
171
172
170
173
71
1
0
0
0
0
0
0
0
0
0
0
0
0
0
0
0
0
0
0
0
0
0
0
0
0
0
0
0
0
0
0
0
0
0
0
0
0
0
0
0
0
0
0
0
0
0
0
0
0
0
0
0
0
0
0
0
0
0
0
0
0
0
0
0
0
0
0
0
0
0
0
0
0
0
0
0
0
0
0
0
0
0
0
0
0
0
0
0
0
0
0
0
0
0
0
0
0
0
0
0
0
0
0
0
0
0
0
0
0
0
0
0
0
0
0
0
0
0
0
0
0
0
0
0
0
0
0
0
0
0
0
0
0
0
0
0
0
0
0
119
175
173
173
172
171
170
171
169
171
70
0
0
0
0
0
0
0
0
0
0
0
0
0
0
0
0
0
0
0
0
0
0
0
0
0
0
0
0
0
0
0
0
0
0
0
0
0
0
0
0
0
0
0
0
0
0
0
0
0
0
0
0
0
0
0
0
0
0
0
0
0
0
0
0
0
0
0
0
0
0
0
0
0
0
0
0
0
0
0
0
0
0
0
0
0
0
0
0
0
0
0
0
0
0
0
0
0
0
0
0
0
0
0
0
0
0
0
0
0
0
0
0
0
0
0
0
0
0
0
0
0
0
0
0
0
0
0
0
0
0
0
0
0
1
1
2
2
1
1
121
173
173
172
172
171
170
169
168
171
77
1
1
1
1
1
1
0
0
0
1
1
1
1
1
1
1
1
1
1
0
0
0
0
0
0
0
0
0
0
0
0
0
0
1
1
1
1
1
1
1
1
1
1
0
0
0
0
0
0
0
0
0
0
0
0
1
1
1
1
1
1
1
1
1
1
1
1
1
0
0
0
0
0
0
0
0
0
0
0
0
0
0
0
0
0
0
0
0
0
0
0
0
0
0
0
0
0
0
0
0
0
0
0
0
0
0
0
0
0
0
0
0
0
0
0
0
0
0
0
0
0
0
0
0
0
0
0
0
0
0
0
0
0
1
2
7
69
90
97
161
172
172
172
171
170
169
169
168
168
141
88
86
85
83
59
4
1
0
0
1
2
13
79
105
112
104
75
7
3
1
1
0
0
0
0
0
0
0
0
0
0
0
1
2
1
37
84
96
96
85
47
0
1
2
0
0
0
0
0
1
0
0
1
1
1
1
0
18
50
65
75
77
76
70
55
29
1
1
1
1
1
0
1
1
0
0
0
0
0
0
0
0
0
0
0
0
0
0
0
0
0
0
0
0
0
0
0
0
0
0
0
0
0
0
0
0
0
0
0
0
0
0
0
0
0
0
0
0
0
0
0
0
0
0
0
0
0
0
0
0
0
0
0
1
52
159
177
176
175
174
172
171
171
170
169
168
168
167
167
165
166
165
164
163
162
143
36
1
1
2
52
146
158
156
154
152
156
134
32
1
1
1
0
0
0
0
0
0
0
0
0
1
1
2
81
137
138
135
134
136
134
98
2
1
1
0
0
0
0
0
1
1
1
1
39
86
110
119
121
118
118
118
116
115
114
114
108
86
46
3
1
1
0
0
0
0
0
0
0
0
0
0
0
0
0
0
0
0
0
0
0
0
0
0
0
0
0
0
0
0
0
0
0
0
0
0
0
0
0
0
0
0
0
0
0
0
0
0
0
0
0
0
0
0
0
0
0
0
0
0
0
0
1
0
145
176
174
173
172
172
171
171
170
169
168
167
167
166
166
165
164
163
162
161
162
161
129
2
1
1
133
155
156
154
153
153
153
153
123
2
2
1
0
0
0
0
0
0
0
0
0
1
1
55
139
136
136
135
135
134
132
134
64
2
0
0
0
0
0
0
1
1
48
102
121
121
119
119
118
117
116
116
115
114
114
112
113
111
111
96
50
2
2
1
0
0
0
0
0
0
0
0
0
0
0
0
0
0
0
0
0
0
0
0
0
0
0
0
0
0
0
0
0
0
0
0
0
0
0
0
0
0
0
0
0
0
0
0
0
0
0
0
0
0
0
0
0
0
0
0
0
0
1
26
173
174
172
173
172
171
171
170
169
168
167
167
167
166
164
164
163
162
161
161
160
160
155
13
2
0
150
155
154
155
154
153
151
151
153
64
2
0
0
0
0
0
0
0
0
0
0
1
0
120
136
135
134
135
134
133
132
132
93
1
1
0
0
0
1
0
14
93
124
121
120
119
119
118
117
116
116
115
114
113
113
112
112
110
109
108
109
83
14
2
0
0
0
0
0
0
0
0
0
0
0
0
0
0
0
0
0
0
0
0
0
0
0
0
0
0
0
0
0
0
0
0
0
0
0
0
0
0
0
0
0
0
0
0
0
0
0
0
0
0
0
0
0
0
0
0
0
0
1
48
178
173
173
172
171
171
170
169
168
168
167
166
166
165
164
163
161
161
161
160
160
158
163
28
2
0
144
154
153
153
152
151
150
149
149
122
1
1
0
0
0
0
0
0
0
0
0
1
51
137
137
135
134
134
132
131
130
132
80
1
1
0
1
0
2
37
114
121
121
120
120
119
118
117
116
116
115
114
112
113
112
111
110
109
108
107
106
105
97
29
2
1
1
0
0
0
0
0
0
0
0
0
0
0
0
0
0
0
0
0
0
0
0
0
0
0
0
0
0
0
0
0
0
0
0
0
0
0
0
0
0
0
0
0
0
0
0
0
0
0
0
0
0
0
0
0
0
0
1
48
177
173
172
172
171
170
169
168
168
167
166
166
165
163
163
161
161
161
160
159
158
157
164
29
1
1
108
155
152
152
152
150
149
148
148
144
28
1
0
0
0
0
0
0
0
0
0
1
102
136
135
134
134
132
131
131
131
130
19
1
1
0
0
1
44
119
122
122
121
120
119
118
117
117
116
115
113
112
113
112
111
110
110
108
107
106
105
104
104
99
27
2
0
0
0
0
0
0
0
0
0
0
0
0
0
0
0
0
0
0
0
0
0
0
0
0
0
0
0
0
0
0
0
0
0
0
0
0
0
0
0
0
0
0
0
0
0
0
0
0
0
0
0
0
0
0
0
0
0
38
175
173
172
171
170
168
168
168
167
166
165
164
164
163
162
161
160
160
159
158
158
158
155
18
1
1
46
155
152
152
150
149
149
148
147
149
87
1
0
0
0
0
0
0
0
0
0
0
129
136
134
134
133
131
131
130
130
109
1
2
0
0
1
34
120
122
121
119
119
119
118
117
117
115
116
113
113
111
112
111
111
110
109
106
106
106
106
104
104
103
95
10
1
0
0
0
0
0
0
0
0
0
0
0
0
0
0
0
0
0
0
0
0
0
0
0
0
0
0
0
0
0
0
0
0
0
0
0
0
0
0
0
0
0
0
0
0
0
0
0
0
0
0
0
0
0
0
0
1
0
160
172
171
170
169
168
167
167
166
166
164
163
163
161
161
160
160
159
158
158
157
156
139
1
1
1
0
135
150
150
149
149
148
147
146
145
127
0
1
0
0
0
0
0
0
0
1
64
139
134
134
132
131
130
129
129
131
70
1
1
0
0
4
110
119
122
121
120
119
118
117
116
116
117
112
99
88
85
89
98
111
110
108
106
106
105
104
104
103
101
101
78
1
1
0
0
0
0
0
0
0
0
0
0
0
0
0
0
0
0
0
0
0
0
0
0
0
0
0
0
0
0
0
0
0
0
0
0
0
0
0
0
0
0
0
0
0
0
0
0
0
0
0
0
0
0
0
0
1
2
93
172
170
169
168
168
167
166
166
165
164
163
161
161
160
161
159
159
159
157
156
157
77
1
1
1
1
91
151
150
149
148
147
146
146
144
145
37
2
1
0
0
0
0
0
1
1
109
133
134
131
131
131
130
129
128
123
0
1
1
2
2
86
125
121
122
119
119
118
117
117
116
113
69
7
1
0
0
0
0
21
79
107
107
105
104
103
103
101
100
99
102
47
2
1
0
0
0
0
0
0
0
0
0
0
0
0
0
0
0
0
0
0
0
0
0
0
0
0
0
0
0
0
0
0
0
0
0
0
0
0
0
0
0
0
0
0
0
0
0
0
0
0
0
0
0
0
0
1
2
0
73
126
137
142
166
166
165
165
164
163
162
163
161
160
156
133
128
126
126
115
59
2
2
1
1
1
16
146
149
148
147
146
145
145
143
144
95
2
1
1
0
0
1
1
1
13
131
134
132
131
131
131
129
128
128
95
2
1
0
1
36
125
121
121
120
119
118
117
117
117
100
19
2
1
1
0
0
0
1
1
2
45
105
104
103
103
101
100
100
99
98
85
3
2
0
0
0
0
0
0
0
0
0
0
0
0
0
0
0
0
0
0
0
0
0
0
0
0
0
0
0
0
0
0
0
0
0
0
0
0
0
0
0
0
0
0
0
0
0
0
0
0
0
0
0
0
0
0
1
1
1
1
1
1
123
165
164
164
163
162
161
160
160
160
87
1
1
1
1
1
0
1
1
1
0
2
2
119
148
147
146
145
144
144
143
141
126
0
1
1
0
1
0
1
2
71
136
133
131
130
130
130
128
128
129
47
2
1
1
2
98
120
120
119
119
118
117
117
116
103
9
1
1
2
0
1
0
0
0
0
1
2
50
105
104
101
100
100
99
98
97
99
40
1
0
0
0
0
0
0
0
0
0
0
0
0
0
0
0
0
0
0
0
0
0
0
0
0
0
0
0
0
0
0
0
0
0
0
0
0
0
0
0
0
0
0
0
0
0
0
0
0
0
0
0
0
0
0
0
0
0
0
0
1
113
166
164
163
162
161
161
160
160
160
66
0
0
0
0
0
1
0
0
0
0
1
1
69
151
146
145
144
143
143
141
141
146
41
1
0
1
1
1
1
1
110
132
132
131
130
129
128
127
127
115
0
2
1
1
26
125
120
120
119
118
117
116
116
114
34
2
1
1
0
0
0
0
0
0
0
1
1
1
83
101
100
100
99
98
97
96
96
80
1
0
0
0
0
0
0
0
0
0
0
0
0
0
0
0
0
0
0
0
0
0
0
0
0
0
0
0
0
0
0
0
0
0
0
0
0
0
0
0
0
0
0
0
0
0
0
0
0
0
0
0
0
0
0
0
1
0
1
1
0
110
165
162
163
161
161
160
160
158
160
67
0
0
0
0
0
0
0
1
0
0
1
1
0
136
145
144
143
143
142
141
140
139
102
1
0
0
0
1
2
21
130
131
131
131
130
128
127
127
126
81
1
1
1
2
91
121
119
119
118
117
117
116
116
83
2
1
1
0
0
1
0
0
0
0
0
1
1
1
34
102
100
99
98
97
96
94
94
94
9
0
0
0
0
0
0
0
0
0
0
0
0
0
0
0
0
0
0
0
0
0
0
0
0
0
0
0
0
0
0
0
0
0
0
0
0
0
0
0
0
0
0
0
0
0
0
0
0
0
0
0
0
0
0
0
0
0
0
0
1
110
163
162
162
161
160
159
159
158
159
66
0
0
0
0
0
0
0
0
0
0
0
0
1
102
145
143
143
141
141
140
139
139
128
3
1
1
1
1
2
77
134
131
130
129
128
127
127
126
125
24
0
1
1
2
112
121
119
118
117
117
116
114
113
33
1
1
0
0
0
0
0
0
0
0
0
0
1
1
3
91
99
98
97
96
95
95
94
97
41
0
0
0
0
0
0
0
0
0
0
0
0
0
0
0
0
0
0
0
0
0
0
0
0
0
0
0
0
0
0
0
0
0
0
0
0
0
0
0
0
0
0
0
0
0
0
0
0
0
0
0
0
0
0
0
0
0
0
0
1
109
162
161
161
160
159
158
158
158
159
66
0
0
0
0
0
0
0
0
0
0
0
0
1
43
143
143
142
141
140
139
140
139
141
49
2
1
1
1
1
113
130
131
130
128
127
127
125
124
103
2
1
0
1
35
125
119
118
118
117
116
116
114
101
0
1
1
0
0
0
0
0
0
0
0
0
0
0
1
1
79
99
97
96
96
94
93
91
94
65
2
1
1
1
0
0
0
0
0
0
0
0
0
0
0
0
0
0
0
0
0
0
0
0
0
0
0
0
0
0
0
0
0
0
0
0
0
0
0
0
0
0
0
0
0
0
0
0
0
0
0
0
0
0
0
0
0
0
0
1
109
162
160
160
159
159
158
157
157
158
66
0
0
0
0
0
0
0
0
0
0
0
0
1
0
124
143
141
140
139
140
140
139
135
104
2
1
1
2
22
133
129
129
128
127
126
126
124
126
64
1
1
0
1
83
119
118
117
118
117
115
113
114
85
1
1
0
0
0
0
0
0
0
0
0
0
0
1
1
1
66
97
96
96
95
93
92
91
90
79
2
1
0
0
0
0
0
0
0
0
0
0
0
0
0
0
0
0
0
0
0
0
0
0
0
0
0
0
0
0
0
0
0
0
0
0
0
0
0
0
0
0
0
0
0
0
0
0
0
0
0
0
0
0
0
0
0
0
0
0
109
162
160
159
159
158
157
157
156
158
66
0
0
0
0
0
0
0
0
0
0
0
0
0
2
82
143
140
139
139
140
138
136
135
130
0
1
1
2
87
131
129
128
127
126
126
125
123
119
2
1
0
1
1
101
119
118
117
116
115
114
114
115
67
1
0
1
0
0
0
0
0
0
0
0
0
0
0
1
1
54
97
95
95
94
93
94
92
91
84
2
2
1
0
0
0
0
0
0
0
0
0
0
0
0
0
0
0
0
0
0
0
0
0
0
0
0
0
0
0
0
0
0
0
0
0
0
0
0
0
0
0
0
0
0
0
0
0
0
0
0
0
0
0
0
0
0
0
0
0
108
161
158
159
158
157
156
156
155
156
64
0
0
0
0
0
0
0
0
0
0
0
0
0
1
19
137
140
139
140
137
136
136
135
137
64
1
1
1
117
128
128
127
126
126
125
124
123
91
1
0
1
1
0
112
117
116
116
115
114
112
112
116
53
1
1
0
0
0
0
0
0
1
1
1
1
1
1
1
1
44
99
95
93
93
92
91
90
89
86
0
1
1
0
0
0
0
0
0
0
0
0
0
0
0
0
0
0
0
0
0
0
0
0
0
0
0
0
0
0
0
0
0
0
0
0
0
0
0
0
0
0
0
0
0
0
0
0
0
0
0
0
0
0
0
0
0
0
0
0
108
160
157
158
157
156
155
155
155
156
64
0
0
0
0
0
0
0
0
0
0
0
0
0
0
1
111
140
140
138
136
136
135
134
133
104
1
1
31
132
128
127
126
126
125
124
123
125
47
2
0
0
0
22
118
116
116
115
114
113
112
112
114
54
1
1
0
0
1
1
1
1
0
0
0
0
1
1
1
1
50
97
94
93
92
91
90
89
89
90
0
2
0
0
0
0
0
0
0
0
0
0
0
0
0
0
0
0
0
0
0
0
0
0
0
0
0
0
0
0
0
0
0
0
0
0
0
0
0
0
0
0
0
0
0
0
0
0
0
0
0
0
0
0
0
0
0
0
0
0
108
160
157
157
156
156
155
154
153
155
64
0
0
0
0
0
0
0
0
0
0
0
0
0
0
1
62
142
138
136
136
135
134
134
133
130
0
2
92
129
129
127
126
125
123
122
122
111
0
0
0
0
0
45
119
116
115
114
113
113
112
111
111
103
81
79
78
77
78
77
77
77
75
75
75
74
74
73
72
74
87
94
93
92
91
90
90
89
88
90
0
1
1
0
0
0
0
0
0
0
0
0
0
0
0
0
0
0
0
0
0
0
0
0
0
0
0
0
0
0
0
0
0
0
0
0
0
0
0
0
0
0
0
0
0
0
0
0
0
0
0
0
0
0
0
0
0
0
0
0
107
159
157
156
155
155
155
153
153
155
64
0
0
0
0
0
0
0
0
0
0
0
0
0
1
1
2
128
136
136
135
134
133
132
131
132
75
0
121
128
127
126
125
124
122
122
123
77
1
1
1
0
0
59
118
115
114
113
112
112
111
110
109
107
106
106
105
104
104
103
102
101
99
99
98
98
97
97
94
95
94
93
92
91
90
90
89
89
87
88
0
1
0
0
0
0
0
0
0
0
0
0
0
0
0
0
0
0
0
0
0
0
0
0
0
0
0
0
0
0
0
0
0
0
0
0
0
0
0
0
0
0
0
0
0
0
0
0
0
0
0
0
0
0
0
0
0
0
1
1
106
157
156
156
155
154
154
154
153
153
63
0
0
0
0
0
0
0
0
0
0
0
0
0
1
1
1
95
135
136
134
134
132
132
131
130
126
116
129
127
126
125
124
124
122
121
120
26
1
1
1
0
1
69
116
114
113
113
112
111
110
109
108
106
106
106
105
104
103
102
101
100
100
99
98
97
96
96
94
93
93
92
91
90
90
90
88
87
85
84
0
1
0
1
0
0
0
0
0
0
0
0
0
0
0
0
0
0
0
0
0
0
0
0
0
0
0
0
0
0
0
0
0
0
0
0
0
0
0
0
0
0
0
0
0
0
0
0
0
0
0
0
0
0
0
0
0
0
1
1
104
156
156
155
154
153
152
152
151
152
64
0
0
0
0
0
0
0
0
0
0
0
0
0
1
1
1
42
136
135
133
132
131
131
131
130
127
128
127
126
125
124
122
123
121
121
100
1
1
0
1
0
0
74
115
113
113
112
111
111
109
107
107
105
106
105
104
103
103
101
100
100
99
98
97
96
96
95
94
93
93
91
90
90
89
88
87
85
86
79
1
1
0
0
0
0
0
0
0
0
0
0
0
0
0
0
0
0
0
0
0
0
0
0
0
0
0
0
0
0
0
0
0
0
0
0
0
0
0
0
0
0
0
0
0
0
0
0
0
0
0
0
0
0
0
0
0
0
1
0
103
156
155
154
154
152
152
151
150
151
69
0
0
0
0
0
0
0
0
0
0
0
0
0
1
1
1
0
117
134
132
131
130
130
130
128
128
127
126
125
123
123
122
122
121
123
63
1
1
0
1
0
0
78
114
113
112
111
110
110
109
106
106
105
105
104
104
102
101
100
100
99
98
97
96
95
94
94
93
93
92
91
90
89
88
87
86
84
85
67
2
1
0
1
0
0
0
0
0
0
0
0
0
0
0
0
0
0
0
0
0
0
0
0
0
0
0
0
0
0
0
0
0
0
0
0
0
0
0
0
0
0
0
0
0
0
0
0
0
0
0
0
0
0
0
0
0
0
0
0
94
157
154
153
153
152
151
150
148
150
83
1
0
0
0
0
0
0
0
0
0
0
0
0
0
0
1
1
79
135
131
132
131
129
128
127
127
126
125
124
123
122
122
121
120
114
6
1
0
0
1
0
1
79
113
112
111
111
110
108
107
106
106
105
104
104
103
101
100
100
99
98
97
96
95
94
93
93
93
92
91
89
89
87
86
86
86
83
88
37
1
1
0
1
0
0
0
0
0
0
0
0
0
0
0
0
0
0
0
0
0
0
0
0
0
0
0
0
0
0
0
0
0
0
0
0
0
0
0
0
0
0
0
0
0
0
0
0
0
0
0
0
0
0
0
0
0
0
0
1
63
160
154
153
152
151
150
150
147
149
105
2
1
0
0
0
0
0
0
0
0
0
0
0
0
0
0
1
23
128
130
130
129
128
127
127
126
125
124
123
122
121
120
120
119
90
2
1
0
0
1
0
0
79
112
111
110
109
109
107
106
106
105
104
104
102
101
100
99
98
98
97
96
95
94
93
93
92
92
91
90
89
88
86
85
86
84
86
67
2
1
1
0
1
0
0
0
0
0
0
0
0
0
0
0
0
0
0
0
0
0
0
0
0
0
0
0
0
0
0
0
0
0
0
0
0
0
0
0
0
0
0
0
0
0
0
0
0
0
0
0
0
0
0
0
0
0
0
0
0
16
160
153
152
151
149
149
148
148
146
126
1
3
1
0
0
0
0
0
0
0
0
0
0
0
0
0
0
1
106
131
129
127
127
127
126
125
123
123
122
121
121
120
119
121
47
2
0
0
0
1
1
0
75
111
110
109
108
107
107
106
104
103
105
108
107
107
106
105
105
104
103
102
101
99
99
98
98
97
96
96
94
93
93
91
85
74
49
1
2
0
0
0
0
0
0
0
0
0
0
0
0
0
0
0
0
0
0
0
0
0
0
0
0
0
0
0
0
0
0
0
0
0
0
0
0
0
0
0
0
0
0
0
0
0
0
0
0
0
0
0
0
0
0
0
0
0
0
0
0
1
146
153
152
151
149
148
147
146
147
147
52
2
1
0
0
1
1
1
1
0
0
0
0
0
0
0
1
1
61
131
129
127
127
126
125
123
123
122
121
121
121
120
119
108
0
2
0
0
0
1
0
0
69
110
109
108
106
106
106
105
105
105
64
3
2
2
1
1
1
1
1
1
1
1
1
1
1
0
0
1
0
0
3
0
0
0
2
2
1
0
0
0
0
0
0
0
0
0
0
0
0
0
0
0
0
0
0
0
0
0
0
0
0
0
0
0
0
0
0
0
0
0
0
0
0
0
0
0
0
0
0
0
0
0
0
0
0
0
0
0
0
0
0
0
0
0
0
0
0
2
130
151
150
149
149
148
147
145
145
145
129
19
0
1
1
1
1
1
0
1
1
0
0
0
0
0
0
1
3
119
129
127
126
125
123
122
122
121
121
121
120
118
119
77
2
1
0
0
0
0
0
1
59
112
108
107
106
106
104
104
103
104
28
1
1
1
1
1
1
1
1
1
1
1
1
1
0
0
0
0
0
0
1
1
1
1
0
0
0
0
0
0
0
0
0
0
0
0
0
0
0
0
0
0
0
0
0
0
0
0
0
0
0
0
0
0
0
0
0
0
0
0
0
0
0
0
0
0
0
0
0
0
0
0
0
0
0
0
0
0
0
0
0
0
0
0
0
1
0
1
104
151
149
148
148
147
146
146
143
143
143
133
77
26
18
26
46
75
90
84
23
1
1
0
0
0
0
0
1
89
127
125
125
124
123
122
121
121
121
120
120
118
116
30
2
1
0
0
0
0
0
1
47
111
107
106
106
105
104
104
103
104
35
1
1
1
1
0
0
0
0
1
1
1
0
0
0
0
0
0
1
1
1
1
1
0
0
0
0
0
0
0
0
0
0
0
0
0
0
0
0
0
0
0
0
0
0
0
0
0
0
0
0
0
0
0
0
0
0
0
0
0
0
0
0
0
0
0
0
0
0
0
0
0
0
0
0
0
0
0
0
0
0
0
0
0
0
1
1
2
48
154
148
148
147
146
145
144
143
142
142
141
142
142
139
141
142
140
136
138
130
26
2
0
0
0
0
0
1
43
127
124
123
123
122
121
121
121
120
119
118
117
100
1
1
0
0
0
0
1
0
1
29
108
106
106
105
104
104
102
102
104
47
1
1
0
0
0
0
0
0
0
0
0
0
0
0
0
0
0
0
0
0
0
0
0
0
0
0
0
0
0
0
0
0
0
0
0
0
0
0
0
0
0
0
0
0
0
0
0
0
0
0
0
0
0
0
0
0
0
0
0
0
0
0
0
0
0
0
0
0
0
0
0
0
0
0
0
0
0
0
0
0
0
0
0
0
0
0
1
0
127
147
146
146
144
144
143
142
141
141
140
140
140
139
136
136
136
135
134
134
74
1
0
0
0
0
1
2
0
111
124
122
122
121
121
121
120
119
118
117
119
66
2
1
0
0
0
0
0
1
1
1
102
106
105
104
104
103
101
100
100
71
1
1
0
0
0
0
0
0
0
0
0
0
0
0
0
0
0
0
0
0
0
0
0
0
0
0
0
0
0
0
0
0
0
0
0
0
0
0
0
0
0
0
0
0
0
0
0
0
0
0
0
0
0
0
0
0
0
0
0
0
0
0
0
0
0
0
0
0
0
0
0
0
0
0
0
0
0
0
0
0
0
0
0
0
0
1
1
1
61
148
147
146
144
144
143
142
141
140
139
140
139
138
136
136
135
134
132
133
81
1
0
0
0
0
0
1
1
74
124
122
121
121
121
119
119
118
117
117
112
10
1
0
0
0
0
0
0
0
0
0
94
105
104
104
103
101
101
100
99
88
1
1
0
1
0
0
0
0
0
0
0
0
0
0
0
0
0
0
0
0
0
0
0
0
0
0
0
0
0
0
0
0
0
0
0
0
0
0
0
0
0
0
0
0
0
0
0
0
0
0
0
0
0
0
0
0
0
0
0
0
0
0
0
0
0
0
0
0
0
0
0
0
0
0
0
0
0
0
0
0
0
0
0
0
0
0
0
1
0
108
148
144
145
143
142
141
140
139
140
139
138
136
136
136
134
133
133
135
65
2
0
0
0
0
0
0
1
23
120
121
121
121
120
119
118
117
117
115
87
1
1
1
0
0
0
0
0
0
1
2
79
101
104
102
101
100
100
100
98
99
35
2
1
0
0
0
0
0
0
0
0
0
0
0
0
0
0
0
0
0
0
0
0
0
0
0
0
0
0
0
0
0
0
0
0
0
0
0
0
0
0
0
0
0
0
0
0
0
0
0
0
0
0
0
0
0
0
0
0
0
0
0
0
0
0
0
0
0
0
0
0
0
0
0
0
0
0
0
0
0
0
0
0
0
0
0
0
1
1
7
126
143
142
142
141
140
140
139
139
137
137
136
135
134
133
132
131
125
19
1
0
0
0
0
0
0
0
1
90
123
120
120
119
117
118
117
116
115
38
1
0
0
0
0
0
0
0
0
0
1
41
110
102
102
100
100
99
99
97
96
78
1
2
1
0
0
0
0
0
0
0
0
0
0
0
0
0
0
0
0
0
0
0
0
0
0
0
0
0
0
0
0
0
0
0
0
0
0
0
0
0
0
0
0
0
0
0
0
0
0
0
0
0
0
0
0
0
0
0
0
0
0
0
0
0
0
0
0
0
0
0
0
0
0
0
0
0
0
0
0
0
0
0
0
0
0
0
0
1
2
17
117
143
141
141
140
138
138
137
136
136
135
135
134
133
132
133
75
1
1
0
0
0
0
0
0
0
1
22
115
119
119
117
118
118
116
117
81
2
1
1
0
0
0
0
0
0
0
0
1
4
99
102
100
100
99
98
97
96
96
96
49
3
1
0
1
1
0
0
0
0
0
0
0
0
0
0
1
1
1
0
1
0
0
1
0
0
0
0
0
0
0
0
0
0
0
0
0
0
0
0
0
0
0
0
0
0
0
0
0
0
0
0
0
0
0
0
0
0
0
0
0
0
0
0
0
0
0
0
0
0
0
0
0
0
0
0
0
0
0
0
0
0
0
0
0
0
0
1
1
2
2
84
133
142
139
139
138
136
135
136
134
133
133
133
126
70
0
1
0
0
0
0
0
0
1
1
1
2
48
114
120
118
117
118
115
88
8
2
1
1
1
0
0
0
0
0
0
0
1
2
78
101
98
99
98
97
96
96
95
92
91
38
2
1
1
1
1
0
0
0
0
0
0
0
0
0
1
0
1
1
1
1
1
1
0
0
0
0
0
0
0
0
0
0
0
0
0
0
0
0
0
0
0
0
0
0
0
0
0
0
0
0
0
0
0
0
0
0
0
0
0
0
0
0
0
0
0
0
0
0
0
0
0
0
0
0
0
0
0
0
0
0
0
0
0
0
0
0
0
1
2
2
4
77
109
125
134
138
137
136
130
122
106
78
9
2
1
0
1
0
0
0
0
0
0
1
1
1
2
9
63
78
80
73
40
1
1
1
1
1
0
0
0
0
0
0
0
0
1
1
28
103
98
98
97
96
96
94
93
93
92
91
50
2
1
1
1
1
0
0
0
0
0
0
1
1
1
1
2
1
12
36
25
2
2
0
0
0
0
0
0
0
0
0
0
0
0
0
0
0
0
0
0
0
0
0
0
0
0
0
0
0
0
0
0
0
0
0
0
0
0
0
0
0
0
0
0
0
0
0
0
0
0
0
0
0
0
0
0
0
0
0
0
0
0
0
0
0
0
0
1
0
1
1
1
2
6
12
14
11
7
2
1
2
1
0
1
0
0
0
0
0
0
0
0
0
0
1
1
1
0
1
1
1
1
1
1
0
0
0
0
0
0
0
0
0
0
0
0
1
2
82
98
96
95
96
95
93
93
92
91
90
91
71
32
1
2
1
0
0
0
0
1
1
2
1
2
8
41
65
75
77
75
44
1
0
0
0
0
0
0
0
0
0
0
0
0
0
0
0
0
0
0
0
0
0
0
0
0
0
0
0
0
0
0
0
0
0
0
0
0
0
0
0
0
0
0
0
0
0
0
0
0
0
0
0
0
0
0
0
0
0
0
0
0
0
0
0
0
0
0
0
0
0
1
1
1
1
0
0
0
1
1
1
0
0
0
0
0
0
0
0
0
0
0
0
0
0
0
0
0
0
0
0
0
0
0
0
0
0
0
0
0
0
0
0
0
0
0
0
2
28
96
97
95
95
93
92
92
91
91
89
88
88
88
75
54
29
12
4
1
1
3
7
21
42
62
74
77
75
73
72
72
70
0
0
0
0
0
0
0
0
0
0
0
0
0
0
0
0
0
0
0
0
0
0
0
0
0
0
0
0
0
0
0
0
0
0
0
0
0
0
0
0
0
0
0
0
0
0
0
0
0
0
0
0
0
0
0
0
0
0
0
0
0
0
0
0
0
0
0
0
0
0
0
0
0
0
0
0
0
0
0
0
0
0
0
0
0
0
0
0
0
0
0
0
0
0
0
0
0
0
0
0
0
0
0
0
0
0
0
0
0
0
0
0
0
0
0
1
1
2
66
97
94
92
92
92
91
90
90
89
88
88
86
85
86
86
82
79
75
75
76
77
79
78
76
77
75
74
72
72
71
71
4
0
0
0
0
0
0
0
0
0
0
0
0
0
0
0
0
0
0
0
0
0
0
0
0
0
0
0
0
0
0
0
0
0
0
0
0
0
0
0
0
0
0
0
0
0
0
0
0
0
0
0
0
0
0
0
0
0
0
0
0
0
0
0
0
0
0
0
0
0
0
0
0
0
0
0
0
0
0
0
0
0
0
0
0
0
0
0
0
0
0
0
0
0
0
0
0
0
0
0
0
0
0
0
0
0
0
0
0
0
0
0
0
0
0
0
1
1
3
83
92
94
92
91
90
89
89
87
86
85
84
84
84
83
82
81
80
78
78
78
76
77
76
75
73
73
72
71
70
67
0
0
0
0
0
0
0
0
0
0
0
0
0
0
0
0
0
0
0
0
0
0
0
0
0
0
0
0
0
0
0
0
0
0
0
0
0
0
0
0
0
0
0
0
0
0
0
0
0
0
0
0
0
0
0
0
0
0
0
0
0
0
0
0
0
0
0
0
0
0
0
0
0
0
0
0
0
0
0
0
0
0
0
0
0
0
0
0
0
0
0
0
0
0
0
0
0
0
0
0
0
0
0
0
0
0
0
0
0
0
0
0
0
0
0
0
0
1
2
12
89
93
91
91
89
89
87
86
85
85
84
83
82
82
81
80
79
79
78
78
77
76
75
74
72
72
71
70
70
60
1
0
0
0
0
0
0
0
0
0
0
0
0
0
0
0
0
0
0
0
0
0
0
0
0
0
0
0
0
0
0
0
0
0
0
0
0
0
0
0
0
0
0
0
0
0
0
0
0
0
0
0
0
0
0
0
0
0
0
0
0
0
0
0
0
0
0
0
0
0
0
0
0
0
0
0
0
0
0
0
0
0
0
0
0
0
0
0
0
0
0
0
0
0
0
0
0
0
0
0
0
0
0
0
0
0
0
0
0
0
0
0
0
0
0
0
0
0
1
1
22
87
90
89
89
88
86
85
85
84
83
82
82
82
80
80
79
78
77
77
76
75
73
73
72
71
71
68
72
16
2
0
0
0
0
0
0
0
0
0
0
0
0
0
0
0
0
0
0
0
0
0
0
0
0
0
0
0
0
0
0
0
0
0
0
0
0
0
0
0
0
0
0
0
0
0
0
0
0
0
0
0
0
0
0
0
0
0
0
0
0
0
0
0
0
0
0
0
0
0
0
0
0
0
0
0
0
0
0
0
0
0
0
0
0
0
0
0
0
0
0
0
0
0
0
0
0
0
0
0
0
0
0
0
0
0
0
0
0
0
0
0
0
0
0
0
0
0
0
1
1
12
76
91
88
87
86
85
85
83
82
81
81
80
79
79
78
78
77
76
75
73
73
72
71
70
70
71
37
2
1
0
0
0
0
0
0
0
0
0
0
0
0
0
0
0
0
0
0
0
0
0
0
0
0
0
0
0
0
0
0
0
0
0
0
0
0
0
0
0
0
0
0
0
0
0
0
0
0
0
0
0
0
0
0
0
0
0
0
0
0
0
0
0
0
0
0
0
0
0
0
0
0
0
0
0
0
0
0
0
0
0
0
0
0
0
0
0
0
0
0
0
0
0
0
0
0
0
0
0
0
0
0
0
0
0
0
0
0
0
0
0
0
0
0
0
0
0
0
0
1
2
2
54
86
88
85
84
85
83
82
81
80
79
79
78
77
76
76
75
73
72
72
71
70
72
66
29
1
1
1
0
0
0
0
0
0
0
0
0
0
0
0
0
0
0
0
0
0
0
0
0
0
0
0
0
0
0
0
0
0
0
0
0
0
0
0
0
0
0
0
0
0
0
0
0
0
0
0
0
0
0
0
0
0
0
0
0
0
0
0
0
0
0
0
0
0
0
0
0
0
0
0
0
0
0
0
0
0
0
0
0
0
0
0
0
0
0
0
0
0
0
0
0
0
0
0
0
0
0
0
0
0
0
0
0
0
0
0
0
0
0
0
0
0
0
0
0
0
0
0
1
1
1
13
61
81
85
82
82
81
80
79
79
78
77
75
75
75
73
72
71
71
70
69
46
6
1
1
0
0
0
0
0
0
0
0
0
0
0
0
0
0
0
0
0
0
0
0
0
0
0
0
0
0
0
0
0
0
0
0
0
0
0
0
0
0
0
0
0
0
0
0
0
0
0
0
0
0
0
0
0
0
0
0
0
0
0
0
0
0
0
0
0
0
0
0
0
0
0
0
0
0
0
0
0
0
0
0
0
0
0
0
0
0
0
0
0
0
0
0
0
0
0
0
0
0
0
0
0
0
0
0
0
0
0
0
0
0
0
0
0
0
0
0
0
0
0
0
0
0
0
0
1
1
1
4
45
66
77
82
79
80
77
76
76
76
76
74
73
76
68
55
38
2
1
1
0
0
0
0
0
0
0
0
0
0
0
0
0
0
0
0
0
0
0
0
0
0
0
0
0
0
0
0
0
0
0
0
0
0
0
0
0
0
0
0
0
0
0
0
0
0
0
0
0
0
0
0
0
0
0
0
0
0
0
0
0
0
0
0
0
0
0
0
0
0
0
0
0
0
0
0
0
0
0
0
0
0
0
0
0
0
0
0
0
0
0
0
0
0
0
0
0
0
0
0
0
0
0
0
0
0
0
0
0
0
0
0
0
0
0
0
0
0
0
0
0
0
0
0
0
0
0
1
1
1
0
1
0
14
36
48
54
56
56
54
51
46
32
13
0
1
1
0
1
0
0
0
0
0
0
0
0
0
0
0
0
0
0
0
0
0
0
0
0
0
0
0
0
0
0
0
0
0
0
0
0
0
0
0
0
0
0
0
0
0
0
0
0
0
0
0
0
0
0
0
0
0
0
0
0
0
0
0
0
0
0
0
0
0
0
0
0
0
0
0
0
0
0
0
0
0
0
0
0
0
0
0
0
0
0
0
0
0
0
0
0
0
0
0
0
0
0
0
0
0
0
0
0
0
0
0
0
0
0
0
0
0
0
0
0
0
0
0
0
0
0
0
0
0
0
0
0
0
0
1
1
0
0
0
2
1
1
1
1
1
1
1
1
1
1
1
1
1
0
0
0
0
0
0
0
0
0
0
0
0
0
0
0
0
0
0
0
0
0
0
0
0
0
0
0
0
0
0
0
0
0
0
0
0
0
0
0
0
0
0
0
0
0
0
0
0
0
0
0
0
0
0
0
0
0
0
0
0
0
0
0
0
0
0
0
0
0
0
0
0
0
0
0
0
0
0
0
0
0
0
0
0
0
0
0
0
0
0
0
0
0
0
0
0
0
0
0
0
0
0
0
0
0
0
0
0
0
0
0
0
0
0
0
0
0
0
0
0
0
0
0
0
0
0
0
0
0
1
1
1
1
0
1
1
1
1
0
0
0
0
1
1
1
1
1
0
0
1
1
0
0
0
0
0
0
0
0
0
0
0
0
0
0
0
0
0
0
0
0
0
0
0
0
0
0
0
0
0
0
0
0
0
0
0
0
0
0
0
0
0
0
0
0
0
0
0
0
0
0
0
0
0
0
0
0
0
0
0
0
0
0
0
0
0
0
0
0
0
0
0
0
0
0
0
0
0
0
0
0
0
0
0
0
0
0
0
0
0
0
0
0
0
0
0
0
0
0
0
0
0
0
0
0
0
0
0
0
0
0
0
0
0
0
0
0
0
0
0
0
0
0
0
0
0
0
0
0
0
0
0
0
1
0
0
0
0
0
0
0
0
0
0
1
0
0
0
0
0
0
0
0
0
0
0
0
0
0
0
0
0
0
0
0
0
0
0
0
0
0
0
0
0
0
0
0
0
0
0
0
0
0
0
0
0
0
0
0
0
0
0
0
0
0
0
0
0
0
0
0
0
0
0
0
0
0
0
0
0
0
0
0
0
0
0
0
0
0
0
0
0
0
0
0
0
0
0
0
0
0
0
0
0
0
0
0
0
0
0
0
0
0
0
0
0
0
0
0
0
0
0
0
0
0
0
0
0
0
0
0
0
0
0
0
0
0
0
0
0
0
0
0
0
0
0
0
0
0
0
0
0
0
0
0
0
0
0
0
0
0
0
0
0
0
0
0
0
0
0
0
0
0
0
0
0
0
0
0
0
0
0
0
0
0
0
0
0
0
0
0
0
0
0
0
0
0
0
0
0
0
0
0
0
0
0
0
0
0
0
0
0
0
0
0
0
0
0
0
0
0
0
0
0
0
0
0
0
0
0
0
0
0
0
0
0
0
0
0
0
0
0
0
0
0
0
0
0
0
0
0
0
0
0
0
0
0
0
0
0
0
0
0
0
0
0
0
0
0
0
0
0
0
0
0
0
0
0
0
0
0
0
0
0
0
0
0
0
0
0
0
0
0
0
0
0
0
0
0
0
0
0
0
0
0
0
0
0
0
0
0
0
0
0
0
0
0
0
0
0
0
0
0
0
0
0
0
0
0
0
0
0
0
0
0
0
0
0
0
0
0
0
0
0
0
0
0
0
0
0
0
0
0
0
0
0
0
0
0
0
0
0
0
0
0
0
0
0
0
0
0
0
0
0
0
0
0
0
0
0
0
0
0
0
0
0
0
0
0
0
0
0
0
0
0
0
0
0
0
0
0
0
0
0
0
0
0
0
0
0
0
0
0
0
0
0
0
0
0
0
0
0
0
0
0
0
0
0
0
0
0
0
0
0
0
0
0
0
0
0
0
0
0
0
0
0
0
0
0
0
0
0
0
0
0
0
0
0
0
0
0
0
0
0
0
0
0
0
0
0
0
0
0
0
0
0
0
0
0
0
0
0
0
0
0
0
0
0
0
0
0
0
0
0
0
0
0
0
0
