P2
150 84
255
0
0
0
0
0
0
0
0
0
0
0
0
0
0
0
0
0
0
0
0
0
0
0
0
0
0
0
0
0
0
0
0
0
0
0
0
0
0
0
0
0
0
0
0
0
0
0
0
0
0
0
0
0
0
0
0
0
0
0
0
0
0
0
0
0
0
0
0
0
0
0
0
0
0
0
0
0
0
0
0
0
0
0
0
0
0
0
0
0
0
0
0
0
0
0
0
0
0
0
0
0
0
0
0
0
0
0
0
0
0
0
0
0
0
0
0
0
0
0
0
0
0
0
0
0
0
0
0
0
0
0
0
0
0
0
0
0
0
0
0
0
0
0
0
0
0
0
0
0
0
0
0
0
0
0
0
0
0
0
0
0
0
0
0
0
0
0
0
0
0
0
0
0
0
0
0
0
0
0
0
0
0
0
0
0
0
2
3
3
3
3
3
3
3
3
3
3
3
3
3
3
3
3
3
3
3
3
3
3
3
3
3
3
3
3
3
3
3
3
3
3
3
3
3
3
3
3
3
3
3
3
3
3
3
3
3
3
3
3
3
3
3
3
3
3
3
3
3
3
3
3
3
3
3
3
3
3
3
3
3
3
2
2
1
0
0
0
0
0
0
0
0
0
0
0
0
0
0
0
0
0
0
0
0
0
0
0
0
0
0
0
0
0
0
0
0
0
0
0
0
0
0
0
0
0
0
0
0
0
0
0
0
0
0
0
0
0
0
0
0
0
0
0
0
0
0
0
0
0
0
0
0
0
0
0
4
117
178
181
183
184
184
185
185
185
188
188
188
188
188
188
188
188
188
188
188
188
188
188
188
188
188
188
188
188
188
188
188
188
188
188
188
188
188
188
188
188
188
188
188
188
188
188
188
188
188
188
188
188
188
188
188
188
188
188
188
188
188
188
188
188
188
188
188
188
188
188
188
188
188
188
188
175
71
3
0
0
0
0
0
0
0
0
0
0
0
0
0
0
0
0
0
0
0
0
0
0
0
0
0
0
0
0
0
0
0
0
0
0
0
0
0
0
0
0
0
0
0
0
0
0
0
0
0
0
0
0
0
0
0
0
0
0
0
0
0
0
0
0
0
0
0
0
0
3
149
249
251
251
251
251
251
251
251
251
251
251
251
251
251
251
251
251
251
251
251
251
251
251
251
251
251
251
251
251
251
251
251
251
251
251
251
251
251
251
251
251
251
251
251
251
251
251
251
251
251
251
251
251
251
251
251
251
251
251
251
251
251
251
251
251
251
251
251
251
251
251
251
251
251
251
251
251
237
82
1
0
0
0
0
0
0
0
0
0
0
0
0
0
0
0
0
0
0
0
0
0
0
0
0
0
0
0
0
0
0
0
0
0
0
0
0
0
0
0
0
0
0
0
0
0
0
0
0
0
0
0
0
0
0
0
0
0
0
0
0
0
0
0
0
0
0
0
0
1
229
251
237
196
195
195
195
195
196
196
196
196
196
196
196
196
196
196
196
197
250
251
251
251
251
251
251
251
251
251
251
251
251
251
251
251
251
251
251
251
252
251
251
251
251
251
251
251
251
251
251
251
251
251
251
251
251
251
251
233
195
196
196
197
197
197
197
198
199
199
199
199
201
201
202
201
206
248
251
187
3
0
0
0
0
0
0
0
0
0
0
0
0
0
0
0
0
0
0
0
0
0
0
0
0
0
0
0
0
0
0
0
0
0
0
0
0
0
0
0
0
0
0
0
0
0
0
0
0
0
0
0
0
0
0
0
0
0
0
0
0
0
0
0
0
0
0
0
0
0
242
251
158
117
117
117
117
117
117
117
117
117
117
117
117
117
117
117
117
118
251
251
251
251
251
251
251
251
251
251
251
251
251
251
247
215
178
141
114
88
82
114
146
188
230
251
251
251
251
251
251
251
251
251
251
251
251
251
251
215
117
117
117
117
117
117
117
117
117
117
117
117
117
117
117
117
116
202
251
200
3
0
0
0
0
0
0
0
0
0
0
0
0
0
0
0
0
0
0
0
0
0
0
0
0
0
0
0
0
0
0
0
0
0
0
0
0
0
0
0
0
0
0
0
0
0
0
0
0
0
0
0
0
0
0
0
0
0
0
0
0
0
0
0
0
0
0
0
0
4
229
251
152
117
117
117
117
117
117
117
117
117
117
117
117
117
117
117
117
118
251
251
251
251
251
251
251
251
251
251
251
251
220
156
50
29
116
162
178
198
192
171
126
21
3
117
209
251
251
251
251
251
251
251
251
251
251
251
251
216
117
117
117
117
117
117
117
117
117
117
117
117
117
117
117
117
116
196
251
187
3
0
0
0
0
0
0
0
0
0
0
0
0
0
0
0
0
0
0
0
0
0
0
0
0
0
0
0
0
0
0
0
0
0
0
0
0
0
0
0
0
0
0
0
0
0
0
0
0
0
0
0
0
0
0
0
0
0
0
0
0
0
0
0
0
0
0
0
0
5
223
251
159
117
117
117
117
117
117
117
117
117
117
117
117
117
117
117
117
118
251
251
251
251
251
251
251
251
251
251
251
164
2
16
193
245
251
250
251
251
251
251
251
243
195
101
4
135
238
251
251
251
251
251
251
251
251
251
251
216
117
117
117
117
117
117
117
117
117
117
117
117
117
117
117
117
117
204
251
178
2
0
0
0
0
0
0
0
0
0
0
0
0
0
0
0
0
0
0
0
0
0
0
0
0
0
0
0
0
0
0
0
0
0
0
0
0
0
0
0
0
0
0
0
0
0
0
0
0
0
0
0
0
0
0
0
0
0
0
0
0
0
0
0
0
0
0
0
0
4
215
251
170
117
117
117
117
117
117
117
117
117
117
117
117
117
117
117
117
118
251
251
251
251
251
251
251
251
251
251
230
39
5
48
158
246
251
251
251
251
251
251
251
251
251
249
197
63
82
225
251
251
251
251
251
251
251
251
251
216
117
117
117
117
117
117
117
117
117
117
117
117
117
117
117
117
117
213
251
168
2
0
0
0
0
0
0
0
0
0
0
0
0
0
0
0
0
0
0
0
0
0
0
0
0
0
0
0
0
0
0
0
0
0
0
0
0
0
0
0
0
0
0
0
0
0
0
0
0
0
0
0
0
0
0
0
0
0
0
0
0
0
0
0
0
0
0
0
0
3
201
251
184
117
117
117
117
117
117
117
117
117
117
117
117
117
117
117
117
118
251
251
251
251
251
251
251
248
231
189
68
3
156
239
251
250
251
251
251
251
251
251
251
251
251
251
251
236
120
61
227
251
251
251
251
251
251
251
251
216
117
117
117
117
117
117
117
117
117
117
117
117
117
117
117
117
116
225
251
142
2
0
0
0
0
0
0
0
0
0
0
0
0
0
0
0
0
0
0
0
0
0
0
0
0
0
0
0
0
0
0
0
0
0
0
0
0
0
0
0
0
0
0
0
0
0
0
0
0
0
0
0
0
0
0
0
0
0
0
0
0
0
0
0
0
0
0
0
0
3
187
251
194
117
117
117
117
117
117
117
117
117
117
117
117
117
117
117
117
118
251
251
251
251
251
251
251
186
6
5
5
157
172
115
5
0
98
166
232
251
251
251
251
251
251
251
251
251
245
131
93
242
251
251
251
251
251
251
251
216
117
117
117
117
117
117
117
117
117
117
117
117
117
117
117
117
115
228
251
125
1
0
0
0
0
0
0
0
0
0
0
0
0
0
0
0
0
0
0
0
0
0
0
0
0
0
0
0
0
0
0
0
0
0
0
0
0
0
0
0
0
0
0
0
0
0
0
0
0
0
0
0
0
0
0
0
0
0
0
0
0
0
0
0
0
0
0
0
0
3
178
251
200
116
117
117
117
117
117
117
117
117
117
117
117
117
117
117
117
118
251
251
251
251
251
251
251
249
155
5
5
4
5
15
23
5
5
5
34
186
250
251
251
251
251
251
251
251
251
242
92
158
251
251
251
251
251
251
251
216
117
117
117
117
117
117
117
117
117
117
117
117
117
117
117
117
115
236
251
115
1
0
0
0
0
0
0
0
0
0
0
0
0
0
0
0
0
0
0
0
0
0
0
0
0
0
0
0
0
0
0
0
0
0
0
0
0
0
0
0
0
0
0
0
0
0
0
0
0
0
0
0
0
0
0
0
0
0
0
0
0
0
0
0
0
0
0
0
0
2
167
251
210
117
117
117
117
117
117
117
117
117
117
117
117
117
117
117
117
118
251
251
251
251
251
244
119
0
0
5
29
153
218
211
112
5
5
5
5
5
167
251
251
251
251
251
251
251
251
251
210
7
227
251
251
251
251
251
251
216
117
117
117
117
117
117
117
117
117
117
117
117
117
117
117
117
110
250
252
63
0
0
0
0
0
0
0
0
0
0
0
0
0
0
0
0
0
0
0
0
0
0
0
0
0
0
0
0
0
0
0
0
0
0
0
0
0
0
0
0
0
0
0
0
0
0
0
0
0
0
0
0
0
0
0
0
0
0
0
0
0
0
0
0
0
0
0
0
0
2
139
251
224
117
116
117
117
117
117
117
117
117
117
117
117
117
117
117
117
118
251
251
251
251
251
232
23
111
171
208
243
251
172
4
139
217
229
221
190
112
181
251
251
251
251
251
251
251
251
251
250
96
154
251
251
251
251
251
251
216
117
117
117
117
117
117
117
117
117
117
117
117
117
117
117
117
120
250
249
0
0
0
0
0
0
0
0
0
0
0
0
0
0
0
0
0
0
0
0
0
0
0
0
0
0
0
0
0
0
0
0
0
0
0
0
0
0
0
0
0
0
0
0
0
0
0
0
0
0
0
0
0
0
0
0
0
0
0
0
0
0
0
0
0
0
0
0
0
0
2
124
251
227
116
117
117
117
117
117
117
117
117
117
117
117
117
117
117
117
118
251
251
251
251
251
251
163
116
251
251
251
194
6
174
251
251
251
251
251
251
251
251
251
251
251
251
251
251
251
251
251
179
45
245
251
251
251
251
251
216
116
117
117
117
117
117
117
117
117
117
117
117
117
117
117
117
134
251
242
2
0
0
0
0
0
0
0
0
0
0
0
0
0
0
0
0
0
0
0
0
0
0
0
0
0
0
0
0
0
0
0
0
0
0
0
0
0
0
0
0
0
0
0
0
0
0
0
0
0
0
0
0
0
0
0
0
0
0
0
0
0
0
0
0
0
0
0
0
0
1
113
251
234
115
117
117
117
117
117
117
117
117
117
117
117
117
117
117
117
118
251
251
251
251
251
251
192
0
244
251
239
57
120
250
251
251
251
251
251
251
251
251
251
251
251
251
251
251
251
236
251
217
5
212
251
251
251
251
251
216
116
117
117
117
117
117
117
117
117
117
117
117
117
117
117
117
150
251
232
5
0
0
0
0
0
0
0
0
0
0
0
0
0
0
0
0
0
0
0
0
0
0
0
0
0
0
0
0
0
0
0
0
0
0
0
0
0
0
0
0
0
0
0
0
0
0
0
0
0
0
0
0
0
0
0
0
0
0
0
0
0
0
0
0
0
0
0
0
0
1
58
252
248
111
117
117
117
117
117
117
117
117
117
117
117
117
117
117
117
118
251
251
251
251
251
221
62
136
251
240
108
5
211
251
251
251
251
251
251
251
251
251
251
251
251
251
251
251
252
106
250
239
0
179
251
251
251
251
251
216
116
117
117
117
117
117
117
117
117
117
117
117
117
117
117
117
167
251
222
4
0
0
0
0
0
0
0
0
0
0
0
0
0
0
0
0
0
0
0
0
0
0
0
0
0
0
0
0
0
0
0
0
0
0
0
0
0
0
0
0
0
0
0
0
0
0
0
0
0
0
0
0
0
0
0
0
0
0
0
0
0
0
0
0
0
0
0
0
0
0
0
249
250
118
117
117
117
117
117
117
117
117
117
117
117
117
117
117
117
118
251
251
251
251
251
114
30
235
251
163
5
62
249
251
251
251
251
251
251
251
251
251
251
251
251
251
251
251
252
0
211
251
24
146
251
251
251
251
251
216
116
117
117
117
117
117
117
117
117
117
117
117
117
117
117
117
176
251
208
4
0
0
0
0
0
0
0
0
0
0
0
0
0
0
0
0
0
0
0
0
0
0
0
0
0
0
0
0
0
0
0
0
0
0
0
0
0
0
0
0
0
0
0
0
0
0
0
0
0
0
0
0
0
0
0
0
0
0
0
0
0
0
0
0
0
0
0
0
0
0
4
241
251
131
117
117
117
117
117
117
117
117
117
117
117
117
117
117
117
118
251
251
251
251
251
116
111
250
250
68
5
147
251
251
251
251
251
251
251
251
251
251
251
251
251
251
251
251
251
116
146
250
46
73
237
251
251
251
251
216
116
117
117
117
117
117
117
117
117
117
117
117
117
117
117
117
183
251
201
3
0
0
0
0
0
0
0
0
0
0
0
0
0
0
0
0
0
0
0
0
0
0
0
0
0
0
0
0
0
0
0
0
0
0
0
0
0
0
0
0
0
0
0
0
0
0
0
0
0
0
0
0
0
0
0
0
0
0
0
0
0
0
0
0
0
0
0
0
0
0
5
231
251
149
117
117
117
117
117
117
117
117
117
117
117
117
117
117
117
118
251
251
251
251
251
170
71
251
230
3
5
187
251
251
251
251
251
251
251
251
251
251
251
251
251
251
251
251
251
223
40
244
33
5
176
251
251
251
251
216
117
117
117
117
117
117
117
117
117
117
117
117
117
117
117
117
198
251
190
3
0
0
0
0
0
0
0
0
0
0
0
0
0
0
0
0
0
0
0
0
0
0
0
0
0
0
0
0
0
0
0
0
0
0
0
0
0
0
0
0
0
0
0
0
0
0
0
0
0
0
0
0
0
0
0
0
0
0
0
0
0
0
0
0
0
0
0
0
0
0
4
221
251
163
117
117
117
117
117
117
117
117
117
117
117
117
117
117
117
118
251
251
251
251
251
210
3
233
206
5
110
232
251
251
251
251
251
251
251
251
251
251
251
251
251
251
251
251
251
251
114
200
0
5
208
251
251
251
251
216
117
117
117
117
117
117
117
117
117
117
117
117
117
117
117
117
209
251
169
3
0
0
0
0
0
0
0
0
0
0
0
0
0
0
0
0
0
0
0
0
0
0
0
0
0
0
0
0
0
0
0
0
0
0
0
0
0
0
0
0
0
0
0
0
0
0
0
0
0
0
0
0
0
0
0
0
0
0
0
0
0
0
0
0
0
0
0
0
0
0
4
207
251
176
117
117
117
117
117
117
117
117
117
117
117
117
117
117
117
118
251
251
251
251
251
241
10
199
192
44
244
250
251
251
251
251
251
251
251
251
251
251
251
251
251
251
251
251
251
251
168
61
5
23
243
251
251
251
251
216
117
117
117
117
117
117
117
117
117
117
117
117
117
117
117
117
213
251
159
2
0
0
0
0
0
0
0
0
0
0
0
0
0
0
0
0
0
0
0
0
0
0
0
0
0
0
0
0
0
0
0
0
0
0
0
0
0
0
0
0
0
0
0
0
0
0
0
0
0
0
0
0
0
0
0
0
0
0
0
0
0
0
0
0
0
0
0
0
0
0
3
201
251
183
117
117
117
117
117
117
117
117
117
117
117
117
117
117
117
118
251
251
251
251
251
251
111
152
155
46
152
157
154
156
164
169
194
242
251
251
251
249
207
174
159
150
149
148
154
176
142
5
5
137
251
251
251
251
251
216
117
117
117
117
117
117
117
117
117
117
117
117
117
117
117
117
224
251
145
2
0
0
0
0
0
0
0
0
0
0
0
0
0
0
0
0
0
0
0
0
0
0
0
0
0
0
0
0
0
0
0
0
0
0
0
0
0
0
0
0
0
0
0
0
0
0
0
0
0
0
0
0
0
0
0
0
0
0
0
0
0
0
0
0
0
0
0
0
0
0
3
188
251
197
117
117
117
117
117
117
117
117
117
117
117
117
117
117
117
118
251
251
251
251
251
228
94
0
4
135
94
113
110
5
72
47
6
75
208
213
212
118
5
5
0
2
110
138
20
144
75
5
5
127
244
251
251
251
251
216
117
117
117
117
117
117
117
117
117
117
117
117
117
117
117
116
233
251
121
1
0
0
0
0
0
0
0
0
0
0
0
0
0
0
0
0
0
0
0
0
0
0
0
0
0
0
0
0
0
0
0
0
0
0
0
0
0
0
0
0
0
0
0
0
0
0
0
0
0
0
0
0
0
0
0
0
0
0
0
0
0
0
0
0
0
0
0
0
0
0
3
168
251
208
117
117
117
117
117
117
117
117
117
117
117
117
117
117
117
118
251
251
251
251
251
168
0
136
6
5
147
196
117
199
202
167
5
5
5
98
16
5
5
68
183
203
145
210
116
147
215
4
151
0
193
251
251
251
251
216
117
117
117
117
117
117
117
117
117
117
117
117
117
117
117
114
242
251
87
1
0
0
0
0
0
0
0
0
0
0
0
0
0
0
0
0
0
0
0
0
0
0
0
0
0
0
0
0
0
0
0
0
0
0
0
0
0
0
0
0
0
0
0
0
0
0
0
0
0
0
0
0
0
0
0
0
0
0
0
0
0
0
0
0
0
0
0
0
0
0
2
158
251
213
117
117
117
117
117
117
117
117
117
117
117
117
117
117
117
118
251
251
251
251
251
169
104
251
106
5
1
5
117
59
60
0
0
5
23
245
164
71
101
0
5
0
145
78
5
220
240
50
252
73
191
251
251
251
251
216
117
117
117
117
117
117
117
117
117
117
117
117
117
117
117
109
249
252
54
1
0
0
0
0
0
0
0
0
0
0
0
0
0
0
0
0
0
0
0
0
0
0
0
0
0
0
0
0
0
0
0
0
0
0
0
0
0
0
0
0
0
0
0
0
0
0
0
0
0
0
0
0
0
0
0
0
0
0
0
0
0
0
0
0
0
0
0
0
0
0
2
143
251
222
117
117
117
117
117
117
117
117
117
117
117
117
117
117
117
118
251
251
251
251
251
198
64
250
41
5
78
147
139
244
252
240
218
3
112
251
230
137
252
237
230
247
204
100
32
244
238
113
244
0
213
251
251
251
251
216
117
117
117
117
117
117
117
117
117
117
117
117
117
117
117
125
252
250
0
0
0
0
0
0
0
0
0
0
0
0
0
0
0
0
0
0
0
0
0
0
0
0
0
0
0
0
0
0
0
0
0
0
0
0
0
0
0
0
0
0
0
0
0
0
0
0
0
0
0
0
0
0
0
0
0
0
0
0
0
0
0
0
0
0
0
0
0
0
0
0
1
120
251
232
116
117
117
117
117
117
117
117
117
117
117
117
117
117
117
118
251
251
251
251
251
232
4
226
118
5
19
212
251
251
251
251
212
5
156
251
251
251
251
251
251
251
250
200
142
251
250
246
214
10
241
251
251
251
251
216
117
117
117
117
117
117
117
117
117
117
117
117
117
117
117
148
251
233
0
0
0
0
0
0
0
0
0
0
0
0
0
0
0
0
0
0
0
0
0
0
0
0
0
0
0
0
0
0
0
0
0
0
0
0
0
0
0
0
0
0
0
0
0
0
0
0
0
0
0
0
0
0
0
0
0
0
0
0
0
0
0
0
0
0
0
0
0
0
0
0
1
85
251
241
115
117
117
117
117
117
117
117
117
117
117
117
117
117
117
118
251
251
251
251
251
251
99
187
157
5
125
101
208
251
192
142
33
5
217
251
251
251
251
251
251
227
145
79
232
251
251
251
172
110
251
251
251
251
251
216
117
117
117
117
117
117
117
117
117
117
117
117
117
117
117
153
251
227
4
0
0
0
0
0
0
0
0
0
0
0
0
0
0
0
0
0
0
0
0
0
0
0
0
0
0
0
0
0
0
0
0
0
0
0
0
0
0
0
0
0
0
0
0
0
0
0
0
0
0
0
0
0
0
0
0
0
0
0
0
0
0
0
0
0
0
0
0
0
0
0
1
53
251
248
110
117
117
117
117
117
117
117
117
117
117
117
117
117
117
118
251
251
251
251
251
251
173
127
187
5
165
251
251
251
227
151
179
45
251
251
251
251
210
200
250
240
220
244
251
251
251
251
109
173
251
251
251
251
251
216
117
117
117
117
117
117
117
117
117
117
117
117
117
117
117
168
251
221
4
0
0
0
0
0
0
0
0
0
0
0
0
0
0
0
0
0
0
0
0
0
0
0
0
0
0
0
0
0
0
0
0
0
0
0
0
0
0
0
0
0
0
0
0
0
0
0
0
0
0
0
0
0
0
0
0
0
0
0
0
0
0
0
0
0
0
0
0
0
0
0
0
0
249
251
121
117
117
117
117
117
117
117
117
117
117
117
117
117
117
118
251
251
251
251
251
251
215
9
110
5
81
248
251
251
224
79
212
36
226
251
251
251
195
5
173
250
251
251
251
251
251
240
10
215
251
251
251
251
251
216
117
117
117
117
117
117
117
117
117
117
117
117
117
117
117
182
251
204
4
0
0
0
0
0
0
0
0
0
0
0
0
0
0
0
0
0
0
0
0
0
0
0
0
0
0
0
0
0
0
0
0
0
0
0
0
0
0
0
0
0
0
0
0
0
0
0
0
0
0
0
0
0
0
0
0
0
0
0
0
0
0
0
0
0
0
0
0
0
0
0
0
0
233
251
146
117
117
117
117
117
117
117
117
117
117
117
117
117
117
118
251
251
251
251
251
251
243
0
5
5
6
170
220
147
4
5
59
15
64
176
197
161
39
5
4
209
251
251
251
251
251
199
50
247
251
251
251
251
251
216
117
117
117
117
117
117
117
117
117
117
117
117
117
117
117
191
251
192
3
0
0
0
0
0
0
0
0
0
0
0
0
0
0
0
0
0
0
0
0
0
0
0
0
0
0
0
0
0
0
0
0
0
0
0
0
0
0
0
0
0
0
0
0
0
0
0
0
0
0
0
0
0
0
0
0
0
0
0
0
0
0
0
0
0
0
0
0
0
0
0
0
4
226
251
151
117
117
117
117
117
117
117
117
117
117
117
117
117
117
118
251
251
251
251
251
251
251
121
5
5
5
5
5
5
5
20
162
190
80
5
1
173
241
186
2
39
190
251
251
239
170
86
152
251
251
251
251
251
251
216
117
117
117
117
117
117
117
117
117
117
117
117
117
117
117
200
251
182
3
0
0
0
0
0
0
0
0
0
0
0
0
0
0
0
0
0
0
0
0
0
0
0
0
0
0
0
0
0
0
0
0
0
0
0
0
0
0
0
0
0
0
0
0
0
0
0
0
0
0
0
0
0
0
0
0
0
0
0
0
0
0
0
0
0
0
0
0
0
0
0
0
4
221
251
165
117
117
117
117
117
117
117
117
117
117
117
117
117
117
118
251
251
251
251
251
251
251
204
5
5
5
86
110
5
127
224
251
251
247
223
233
251
251
251
186
50
3
230
251
159
5
34
226
251
251
251
251
251
251
216
117
117
117
117
117
117
117
117
117
117
117
117
117
117
117
209
251
170
2
0
0
0
0
0
0
0
0
0
0
0
0
0
0
0
0
0
0
0
0
0
0
0
0
0
0
0
0
0
0
0
0
0
0
0
0
0
0
0
0
0
0
0
0
0
0
0
0
0
0
0
0
0
0
0
0
0
0
0
0
0
0
0
0
0
0
0
0
0
0
0
0
4
204
251
182
117
117
117
117
117
117
117
117
117
117
117
117
117
117
118
251
251
251
251
251
251
251
251
228
135
19
239
208
5
145
199
203
198
164
86
123
179
199
202
189
95
5
228
251
119
152
236
251
251
251
251
251
251
251
216
117
117
117
117
117
117
117
117
117
117
117
117
117
117
116
222
251
147
2
0
0
0
0
0
0
0
0
0
0
0
0
0
0
0
0
0
0
0
0
0
0
0
0
0
0
0
0
0
0
0
0
0
0
0
0
0
0
0
0
0
0
0
0
0
0
0
0
0
0
0
0
0
0
0
0
0
0
0
0
0
0
0
0
0
0
0
0
0
0
0
0
3
192
251
190
116
117
117
117
117
117
117
117
117
117
117
117
117
117
118
251
251
251
251
251
251
251
251
251
169
78
252
225
5
5
5
5
16
179
196
194
164
58
5
5
5
33
244
252
78
194
251
251
251
251
251
251
251
251
216
117
117
117
117
117
117
117
117
117
117
117
117
117
117
116
228
251
128
2
0
0
0
0
0
0
0
0
0
0
0
0
0
0
0
0
0
0
0
0
0
0
0
0
0
0
0
0
0
0
0
0
0
0
0
0
0
0
0
0
0
0
0
0
0
0
0
0
0
0
0
0
0
0
0
0
0
0
0
0
0
0
0
0
0
0
0
0
0
0
0
0
3
183
251
199
117
117
117
117
117
117
117
117
117
117
117
117
117
117
118
251
251
251
251
251
251
251
251
251
206
0
238
245
25
5
5
5
5
35
35
20
5
0
113
91
5
182
251
243
0
211
251
251
251
251
251
251
251
251
216
117
117
117
117
117
117
117
117
117
117
117
117
117
117
115
234
251
119
1
0
0
0
0
0
0
0
0
0
0
0
0
0
0
0
0
0
0
0
0
0
0
0
0
0
0
0
0
0
0
0
0
0
0
0
0
0
0
0
0
0
0
0
0
0
0
0
0
0
0
0
0
0
0
0
0
0
0
0
0
0
0
0
0
0
0
0
0
0
0
0
0
2
170
251
209
117
116
117
117
117
117
117
117
117
117
117
117
117
117
118
251
251
251
251
251
251
251
251
251
245
55
188
251
127
4
5
5
5
160
229
221
221
241
251
226
38
247
251
213
3
239
251
251
251
251
251
251
251
251
216
117
117
117
117
117
117
117
117
117
117
117
117
117
117
113
247
252
69
1
0
0
0
0
0
0
0
0
0
0
0
0
0
0
0
0
0
0
0
0
0
0
0
0
0
0
0
0
0
0
0
0
0
0
0
0
0
0
0
0
0
0
0
0
0
0
0
0
0
0
0
0
0
0
0
0
0
0
0
0
0
0
0
0
0
0
0
0
0
0
0
0
2
147
251
220
117
117
117
117
117
117
117
117
117
117
117
117
117
117
118
251
251
251
251
251
251
251
251
251
251
150
82
246
197
155
103
5
5
40
216
251
251
251
251
238
139
251
251
157
113
251
251
251
251
251
251
251
251
251
216
117
117
117
117
117
117
117
117
117
117
117
117
117
117
119
251
250
0
0
0
0
0
0
0
0
0
0
0
0
0
0
0
0
0
0
0
0
0
0
0
0
0
0
0
0
0
0
0
0
0
0
0
0
0
0
0
0
0
0
0
0
0
0
0
0
0
0
0
0
0
0
0
0
0
0
0
0
0
0
0
0
0
0
0
0
0
0
0
0
0
0
2
130
251
227
116
117
117
117
117
117
117
117
117
117
117
117
117
117
118
251
251
251
251
251
251
251
251
251
251
190
5
169
250
244
175
5
5
183
218
251
251
251
251
251
243
251
237
39
188
251
251
251
251
251
251
251
251
251
216
117
117
117
117
117
117
117
117
117
117
117
117
117
117
129
251
243
3
0
0
0
0
0
0
0
0
0
0
0
0
0
0
0
0
0
0
0
0
0
0
0
0
0
0
0
0
0
0
0
0
0
0
0
0
0
0
0
0
0
0
0
0
0
0
0
0
0
0
0
0
0
0
0
0
0
0
0
0
0
0
0
0
0
0
0
0
0
0
0
0
0
1
119
251
233
115
117
117
117
117
117
117
117
117
117
117
117
117
117
118
251
251
251
251
251
251
251
251
251
251
238
35
1
191
251
222
5
5
204
251
251
251
251
251
251
251
250
144
51
241
251
251
251
251
251
251
251
251
251
216
117
117
117
117
117
117
117
117
117
117
117
117
117
117
149
251
233
5
0
0
0
0
0
0
0
0
0
0
0
0
0
0
0
0
0
0
0
0
0
0
0
0
0
0
0
0
0
0
0
0
0
0
0
0
0
0
0
0
0
0
0
0
0
0
0
0
0
0
0
0
0
0
0
0
0
0
0
0
0
0
0
0
0
0
0
0
0
0
0
0
0
1
76
251
246
112
117
117
117
117
117
117
117
117
117
117
117
117
117
118
251
251
251
251
251
251
251
251
251
251
251
176
5
4
132
178
0
0
238
251
251
251
251
251
251
251
176
5
182
251
251
251
251
251
251
251
251
251
251
216
117
117
117
117
117
117
117
117
117
117
117
117
117
116
166
251
222
4
0
0
0
0
0
0
0
0
0
0
0
0
0
0
0
0
0
0
0
0
0
0
0
0
0
0
0
0
0
0
0
0
0
0
0
0
0
0
0
0
0
0
0
0
0
0
0
0
0
0
0
0
0
0
0
0
0
0
0
0
0
0
0
0
0
0
0
0
0
0
0
0
0
0
0
250
251
118
117
117
117
117
117
117
117
117
117
117
117
117
117
118
251
251
251
251
251
251
251
251
251
251
251
248
131
5
5
5
5
91
251
251
251
251
245
251
238
151
5
147
250
251
251
251
251
251
251
251
251
251
251
216
117
117
117
117
117
117
117
117
117
117
117
117
117
116
174
251
209
4
0
0
0
0
0
0
0
0
0
0
0
0
0
0
0
0
0
0
0
0
0
0
0
0
0
0
0
0
0
0
0
0
0
0
0
0
0
0
0
0
0
0
0
0
0
0
0
0
0
0
0
0
0
0
0
0
0
0
0
0
0
0
0
0
0
0
0
0
0
0
0
0
0
0
3
244
251
127
117
117
117
117
117
117
117
117
117
117
117
117
117
118
251
251
251
251
251
251
251
251
251
251
251
251
245
132
5
5
5
72
250
251
251
251
164
137
38
6
154
248
251
251
251
251
251
251
251
251
251
251
251
216
117
117
117
117
117
117
117
117
117
117
117
117
117
117
182
251
202
4
0
0
0
0
0
0
0
0
0
0
0
0
0
0
0
0
0
0
0
0
0
0
0
0
0
0
0
0
0
0
0
0
0
0
0
0
0
0
0
0
0
0
0
0
0
0
0
0
0
0
0
0
0
0
0
0
0
0
0
0
0
0
0
0
0
0
0
0
0
0
0
0
0
0
5
233
251
148
117
117
117
117
117
117
117
117
117
117
117
117
117
118
251
251
251
251
251
251
251
251
251
251
251
251
251
248
162
2
5
6
205
251
251
247
91
5
11
180
250
251
251
251
251
251
251
251
251
251
251
251
251
216
117
117
117
117
117
117
117
117
117
117
117
117
117
117
198
250
189
3
0
0
0
0
0
0
0
0
0
0
0
0
0
0
0
0
0
0
0
0
0
0
0
0
0
0
0
0
0
0
0
0
0
0
0
0
0
0
0
0
0
0
0
0
0
0
0
0
0
0
0
0
0
0
0
0
0
0
0
0
0
0
0
0
0
0
0
0
0
0
0
0
0
0
4
223
251
162
117
117
117
117
117
117
117
117
117
117
117
117
117
118
251
251
251
251
251
251
251
251
251
251
251
251
251
251
250
201
50
5
78
236
251
165
5
83
215
251
251
251
251
251
251
251
251
251
251
251
251
251
251
216
116
117
117
117
117
117
117
117
117
117
117
117
117
117
207
251
169
3
0
0
0
0
0
0
0
0
0
0
0
0
0
0
0
0
0
0
0
0
0
0
0
0
0
0
0
0
0
0
0
0
0
0
0
0
0
0
0
0
0
0
0
0
0
0
0
0
0
0
0
0
0
0
0
0
0
0
0
0
0
0
0
0
0
0
0
0
0
0
0
0
0
0
4
210
251
174
116
117
117
117
117
117
117
117
117
117
117
117
117
118
251
251
251
251
251
251
251
251
251
251
251
251
251
215
148
133
87
5
5
100
226
29
5
68
95
133
247
251
251
251
251
251
251
251
251
251
251
251
251
216
117
117
117
117
117
117
117
117
117
117
117
117
117
117
211
251
161
2
0
0
0
0
0
0
0
0
0
0
0
0
0
0
0
0
0
0
0
0
0
0
0
0
0
0
0
0
0
0
0
0
0
0
0
0
0
0
0
0
0
0
0
0
0
0
0
0
0
0
0
0
0
0
0
0
0
0
0
0
0
0
0
0
0
0
0
0
0
0
0
0
0
0
3
203
251
182
117
117
117
117
117
117
117
117
117
117
117
117
117
118
251
251
251
251
251
251
251
251
251
251
251
251
251
167
5
5
5
5
5
5
1
5
5
5
5
5
235
251
251
251
251
251
251
251
251
251
251
251
251
216
117
117
117
117
117
117
117
117
117
117
117
117
117
117
223
251
143
2
0
0
0
0
0
0
0
0
0
0
0
0
0
0
0
0
0
0
0
0
0
0
0
0
0
0
0
0
0
0
0
0
0
0
0
0
0
0
0
0
0
0
0
0
0
0
0
0
0
0
0
0
0
0
0
0
0
0
0
0
0
0
0
0
0
0
0
0
0
0
0
0
0
0
3
192
251
196
117
117
117
117
117
117
117
117
117
117
117
117
117
118
251
251
251
251
251
251
251
251
251
251
251
251
251
164
5
5
5
5
5
5
5
5
5
5
5
5
237
251
251
251
251
251
251
251
251
251
251
251
251
216
117
117
117
117
117
117
117
117
117
117
117
117
117
116
232
251
119
2
0
0
0
0
0
0
0
0
0
0
0
0
0
0
0
0
0
0
0
0
0
0
0
0
0
0
0
0
0
0
0
0
0
0
0
0
0
0
0
0
0
0
0
0
0
0
0
0
0
0
0
0
0
0
0
0
0
0
0
0
0
0
0
0
0
0
0
0
0
0
0
0
0
0
3
171
252
206
117
117
117
117
117
117
117
117
117
117
117
117
117
118
251
251
251
251
251
251
251
251
251
251
251
251
251
188
42
49
58
74
77
5
5
98
137
129
109
76
245
251
251
251
251
251
251
251
251
251
251
251
251
216
117
117
117
117
117
117
117
117
117
117
117
117
117
115
240
251
89
1
0
0
0
0
0
0
0
0
0
0
0
0
0
0
0
0
0
0
0
0
0
0
0
0
0
0
0
0
0
0
0
0
0
0
0
0
0
0
0
0
0
0
0
0
0
0
0
0
0
0
0
0
0
0
0
0
0
0
0
0
0
0
0
0
0
0
0
0
0
0
0
0
0
0
2
161
251
210
117
117
117
117
117
117
117
117
117
117
117
117
117
118
251
251
251
251
251
251
251
251
251
251
251
251
251
251
251
251
251
251
163
5
5
169
251
251
251
251
251
251
251
251
251
251
251
251
251
251
251
251
251
216
117
117
117
117
117
117
117
117
117
117
117
117
117
112
248
252
50
1
0
0
0
0
0
0
0
0
0
0
0
0
0
0
0
0
0
0
0
0
0
0
0
0
0
0
0
0
0
0
0
0
0
0
0
0
0
0
0
0
0
0
0
0
0
0
0
0
0
0
0
0
0
0
0
0
0
0
0
0
0
0
0
0
0
0
0
0
0
0
0
0
0
0
2
148
251
222
117
117
117
117
117
117
117
117
117
117
117
117
117
118
251
251
251
251
251
251
251
251
251
251
251
251
251
251
251
251
251
245
61
5
5
116
251
251
251
251
251
251
251
251
251
251
251
251
251
251
251
251
251
216
117
117
117
117
117
117
117
117
117
117
117
117
117
120
251
248
0
0
0
0
0
0
0
0
0
0
0
0
0
0
0
0
0
0
0
0
0
0
0
0
0
0
0
0
0
0
0
0
0
0
0
0
0
0
0
0
0
0
0
0
0
0
0
0
0
0
0
0
0
0
0
0
0
0
0
0
0
0
0
0
0
0
0
0
0
0
0
0
0
0
0
0
1
122
251
231
116
117
117
117
117
117
117
117
117
117
117
117
117
118
251
251
251
251
251
251
251
251
251
251
251
251
251
251
251
251
251
199
5
5
5
17
248
251
251
251
251
251
251
251
251
251
251
251
251
251
251
251
251
216
117
117
117
117
117
117
117
117
117
117
117
117
117
144
250
233
1
0
0
0
0
0
0
0
0
0
0
0
0
0
0
0
0
0
0
0
0
0
0
0
0
0
0
0
0
0
0
0
0
0
0
0
0
0
0
0
0
0
0
0
0
0
0
0
0
0
0
0
0
0
0
0
0
0
0
0
0
0
0
0
0
0
0
0
0
0
0
0
0
0
0
0
1
94
251
239
115
117
117
117
117
117
117
117
117
117
117
117
117
118
251
251
251
251
251
251
251
251
251
251
251
251
251
251
251
251
251
118
5
99
5
5
233
251
251
251
251
251
251
251
251
251
251
251
251
251
251
251
251
216
117
117
117
117
117
117
117
117
117
117
117
117
117
152
251
227
4
0
0
0
0
0
0
0
0
0
0
0
0
0
0
0
0
0
0
0
0
0
0
0
0
0
0
0
0
0
0
0
0
0
0
0
0
0
0
0
0
0
0
0
0
0
0
0
0
0
0
0
0
0
0
0
0
0
0
0
0
0
0
0
0
0
0
0
0
0
0
0
0
0
0
0
0
64
251
247
111
117
117
117
117
117
117
117
117
117
117
117
117
118
251
251
251
251
251
251
251
251
251
251
251
251
251
251
251
251
224
2
5
180
5
5
214
251
251
251
251
251
251
251
251
251
251
251
251
251
251
251
251
216
117
117
117
117
117
117
117
117
117
117
117
117
116
163
251
219
4
0
0
0
0
0
0
0
0
0
0
0
0
0
0
0
0
0
0
0
0
0
0
0
0
0
0
0
0
0
0
0
0
0
0
0
0
0
0
0
0
0
0
0
0
0
0
0
0
0
0
0
0
0
0
0
0
0
0
0
0
0
0
0
0
0
0
0
0
0
0
0
0
0
0
0
0
0
251
251
118
117
117
117
117
117
117
117
117
117
117
117
117
118
251
251
251
251
251
251
251
251
251
251
251
251
251
251
251
251
152
5
58
229
5
5
201
251
251
251
251
251
251
251
251
251
251
251
251
251
251
251
251
216
117
117
117
117
117
117
117
117
117
117
117
117
116
182
251
202
4
0
0
0
0
0
0
0
0
0
0
0
0
0
0
0
0
0
0
0
0
0
0
0
0
0
0
0
0
0
0
0
0
0
0
0
0
0
0
0
0
0
0
0
0
0
0
0
0
0
0
0
0
0
0
0
0
0
0
0
0
0
0
0
0
0
0
0
0
0
0
0
0
0
0
0
0
0
235
251
144
117
117
117
117
117
117
117
117
117
117
117
117
118
251
251
251
251
251
251
251
251
251
251
251
251
251
251
251
231
9
5
166
233
5
5
197
251
251
251
251
251
251
251
251
251
251
251
251
251
251
251
251
216
117
117
117
117
117
117
117
117
117
117
117
117
117
190
251
191
3
0
0
0
0
0
0
0
0
0
0
0
0
0
0
0
0
0
0
0
0
0
0
0
0
0
0
0
0
0
0
0
0
0
0
0
0
0
0
0
0
0
0
0
0
0
0
0
0
0
0
0
0
0
0
0
0
0
0
0
0
0
0
0
0
0
0
0
0
0
0
0
0
0
0
0
0
5
228
251
152
117
116
117
117
117
117
117
117
117
117
117
117
117
251
251
251
251
251
251
251
251
251
251
251
251
251
251
251
162
5
0
228
231
5
5
197
251
251
251
251
251
251
251
251
251
251
251
251
251
251
251
251
216
116
117
117
117
117
117
117
117
117
117
117
117
117
196
251
180
3
0
0
0
0
0
0
0
0
0
0
0
0
0
0
0
0
0
0
0
0
0
0
0
0
0
0
0
0
0
0
0
0
0
0
0
0
0
0
0
0
0
0
0
0
0
0
0
0
0
0
0
0
0
0
0
0
0
0
0
0
0
0
0
0
0
0
0
0
0
0
0
0
0
0
0
0
4
223
251
196
175
174
174
173
173
174
173
173
173
173
173
173
174
251
251
251
251
251
251
251
251
251
251
251
251
251
251
250
190
109
138
251
229
5
5
198
251
251
251
251
251
251
251
251
251
251
251
251
251
251
251
251
227
173
173
173
173
173
173
173
173
173
173
173
173
174
222
251
165
3
0
0
0
0
0
0
0
0
0
0
0
0
0
0
0
0
0
0
0
0
0
0
0
0
0
0
0
0
0
0
0
0
0
0
0
0
0
0
0
0
0
0
0
0
0
0
0
0
0
0
0
0
0
0
0
0
0
0
0
0
0
0
0
0
0
0
0
0
0
0
0
0
0
0
0
0
4
205
251
251
251
251
251
251
251
251
251
251
251
251
251
251
251
251
251
251
251
251
251
251
251
251
251
251
251
251
251
251
251
251
244
251
231
88
129
224
251
251
251
251
251
251
251
251
251
251
251
251
251
251
251
251
251
251
251
251
251
251
251
251
251
251
251
251
251
251
251
251
141
2
0
0
0
0
0
0
0
0
0
0
0
0
0
0
0
0
0
0
0
0
0
0
0
0
0
0
0
0
0
0
0
0
0
0
0
0
0
0
0
0
0
0
0
0
0
0
0
0
0
0
0
0
0
0
0
0
0
0
0
0
0
0
0
0
0
0
0
0
0
0
0
0
0
0
0
0
3
194
251
251
251
251
251
251
251
251
251
251
251
251
251
251
251
251
251
251
251
251
251
251
251
251
251
251
251
251
251
251
251
251
251
251
250
251
251
251
251
251
251
251
251
251
251
251
251
251
251
251
251
251
251
251
251
251
251
251
251
251
251
251
251
251
251
251
251
251
251
251
128
2
0
0
0
0
0
0
0
0
0
0
0
0
0
0
0
0
0
0
0
0
0
0
0
0
0
0
0
0
0
0
0
0
0
0
0
0
0
0
0
0
0
0
0
0
0
0
0
0
0
0
0
0
0
0
0
0
0
0
0
0
0
0
0
0
0
0
0
0
0
0
0
0
0
0
0
0
3
185
251
251
251
251
251
251
251
251
251
251
251
251
251
251
251
251
251
251
251
251
251
251
251
251
251
251
251
251
251
251
251
251
251
251
251
251
251
251
251
251
251
251
251
251
251
251
251
251
251
251
251
251
251
251
251
251
251
251
251
251
251
251
251
251
251
251
251
251
251
251
114
1
0
0
0
0
0
0
0
0
0
0
0
0
0
0
0
0
0
0
0
0
0
0
0
0
0
0
0
0
0
0
0
0
0
0
0
0
0
0
0
0
0
0
0
0
0
0
0
0
0
0
0
0
0
0
0
0
0
0
0
0
0
0
0
0
0
0
0
0
0
0
0
0
0
0
0
0
2
170
251
251
251
251
251
251
251
251
251
251
251
251
251
249
233
230
230
231
231
232
233
250
251
248
230
230
230
230
230
230
241
246
230
230
230
230
230
230
230
230
230
230
230
230
235
251
251
251
251
251
251
235
213
200
197
199
210
232
250
251
251
251
251
251
251
251
251
251
251
252
47
1
0
0
0
0
0
0
0
0
0
0
0
0
0
0
0
0
0
0
0
0
0
0
0
0
0
0
0
0
0
0
0
0
0
0
0
0
0
0
0
0
0
0
0
0
0
0
0
0
0
0
0
0
0
0
0
0
0
0
0
0
0
0
0
0
0
0
0
0
0
0
0
0
0
0
0
0
2
151
251
251
251
251
251
251
251
251
251
251
251
251
251
197
5
5
5
5
5
5
2
235
251
206
5
5
5
5
5
5
165
189
5
5
5
5
5
5
5
5
5
5
5
5
97
251
251
251
234
174
86
0
5
5
5
5
5
4
70
242
251
251
251
251
251
251
251
251
251
248
2
0
0
0
0
0
0
0
0
0
0
0
0
0
0
0
0
0
0
0
0
0
0
0
0
0
0
0
0
0
0
0
0
0
0
0
0
0
0
0
0
0
0
0
0
0
0
0
0
0
0
0
0
0
0
0
0
0
0
0
0
0
0
0
0
0
0
0
0
0
0
0
0
0
0
0
0
0
2
133
251
251
251
251
251
251
251
251
251
251
251
251
251
205
51
5
5
5
5
3
154
251
251
218
38
5
5
5
53
147
225
203
40
5
5
5
5
5
6
5
5
5
5
5
151
251
247
176
27
5
5
5
6
4
3
5
5
5
63
251
251
251
251
251
251
251
251
251
251
242
5
0
0
0
0
0
0
0
0
0
0
0
0
0
0
0
0
0
0
0
0
0
0
0
0
0
0
0
0
0
0
0
0
0
0
0
0
0
0
0
0
0
0
0
0
0
0
0
0
0
0
0
0
0
0
0
0
0
0
0
0
0
0
0
0
0
0
0
0
0
0
0
0
0
0
0
0
0
1
121
251
251
251
251
251
251
251
251
251
251
251
251
251
251
175
5
5
5
5
136
251
251
251
200
31
5
5
127
238
251
251
250
166
5
5
5
5
133
206
206
204
186
2
5
192
247
137
5
5
5
5
104
202
236
239
200
34
5
140
251
251
251
251
251
251
251
251
251
251
229
5
0
0
0
0
0
0
0
0
0
0
0
0
0
0
0
0
0
0
0
0
0
0
0
0
0
0
0
0
0
0
0
0
0
0
0
0
0
0
0
0
0
0
0
0
0
0
0
0
0
0
0
0
0
0
0
0
0
0
0
0
0
0
0
0
0
0
0
0
0
0
0
0
0
0
0
0
0
1
78
251
251
251
251
251
251
251
251
251
251
251
251
251
251
162
5
5
5
5
185
251
250
176
4
5
6
161
247
251
251
251
251
150
5
5
5
5
196
251
251
251
251
91
3
226
160
5
5
5
5
135
246
251
251
251
251
152
5
182
251
251
251
251
251
251
251
251
251
251
217
4
0
0
0
0
0
0
0
0
0
0
0
0
0
0
0
0
0
0
0
0
0
0
0
0
0
0
0
0
0
0
0
0
0
0
0
0
0
0
0
0
0
0
0
0
0
0
0
0
0
0
0
0
0
0
0
0
0
0
0
0
0
0
0
0
0
0
0
0
0
0
0
0
0
0
0
0
0
0
7
250
251
251
251
251
251
251
251
251
251
251
251
251
251
109
5
5
5
5
219
244
143
5
5
23
191
251
251
251
251
251
251
86
5
5
5
5
226
251
251
251
251
230
223
222
5
5
5
5
70
242
251
251
251
251
251
214
170
234
251
251
251
251
251
251
251
251
251
251
208
4
0
0
0
0
0
0
0
0
0
0
0
0
0
0
0
0
0
0
0
0
0
0
0
0
0
0
0
0
0
0
0
0
0
0
0
0
0
0
0
0
0
0
0
0
0
0
0
0
0
0
0
0
0
0
0
0
0
0
0
0
0
0
0
0
0
0
0
0
0
0
0
0
0
0
0
0
0
0
5
245
251
251
251
251
251
251
251
251
251
251
251
251
243
0
5
5
5
18
230
109
5
5
63
217
251
251
251
251
251
251
238
1
5
5
5
47
248
251
251
251
251
251
251
151
5
5
5
5
179
251
251
251
251
251
251
251
251
251
251
251
251
251
251
251
251
251
251
251
200
4
0
0
0
0
0
0
0
0
0
0
0
0
0
0
0
0
0
0
0
0
0
0
0
0
0
0
0
0
0
0
0
0
0
0
0
0
0
0
0
0
0
0
0
0
0
0
0
0
0
0
0
0
0
0
0
0
0
0
0
0
0
0
0
0
0
0
0
0
0
0
0
0
0
0
0
0
0
0
5
234
251
251
251
251
251
251
251
251
251
251
251
251
216
5
5
5
5
51
73
5
5
4
212
251
251
251
251
251
251
251
210
5
5
5
5
43
112
121
123
123
165
251
250
59
5
5
5
5
220
251
251
251
251
251
251
251
251
251
251
251
251
251
251
251
251
251
251
251
179
3
0
0
0
0
0
0
0
0
0
0
0
0
0
0
0
0
0
0
0
0
0
0
0
0
0
0
0
0
0
0
0
0
0
0
0
0
0
0
0
0
0
0
0
0
0
0
0
0
0
0
0
0
0
0
0
0
0
0
0
0
0
0
0
0
0
0
0
0
0
0
0
0
0
0
0
0
0
0
4
223
251
251
251
251
251
251
251
251
251
251
251
251
184
5
5
5
5
5
5
5
5
5
123
248
251
251
251
251
251
251
175
5
5
5
5
5
5
5
5
5
162
251
236
5
5
5
5
4
235
251
251
251
251
251
251
251
251
251
251
251
251
251
251
251
251
251
251
251
167
3
0
0
0
0
0
0
0
0
0
0
0
0
0
0
0
0
0
0
0
0
0
0
0
0
0
0
0
0
0
0
0
0
0
0
0
0
0
0
0
0
0
0
0
0
0
0
0
0
0
0
0
0
0
0
0
0
0
0
0
0
0
0
0
0
0
0
0
0
0
0
0
0
0
0
0
0
0
0
4
212
251
251
251
251
251
251
251
251
251
251
251
251
143
5
5
5
5
131
5
5
5
5
5
178
251
251
251
251
251
251
126
5
5
5
5
0
0
0
0
0
206
251
231
5
5
5
5
5
228
251
251
251
251
251
251
251
251
251
251
251
251
251
251
251
251
251
251
251
158
2
0
0
0
0
0
0
0
0
0
0
0
0
0
0
0
0
0
0
0
0
0
0
0
0
0
0
0
0
0
0
0
0
0
0
0
0
0
0
0
0
0
0
0
0
0
0
0
0
0
0
0
0
0
0
0
0
0
0
0
0
0
0
0
0
0
0
0
0
0
0
0
0
0
0
0
0
0
0
3
203
251
251
251
251
251
251
251
251
251
251
251
252
64
5
5
5
2
232
123
5
5
5
5
15
217
251
251
251
251
248
36
5
5
5
5
239
250
250
251
251
251
251
244
0
5
5
5
5
191
251
251
251
251
251
251
251
251
251
251
251
251
251
251
251
251
251
251
251
130
2
0
0
0
0
0
0
0
0
0
0
0
0
0
0
0
0
0
0
0
0
0
0
0
0
0
0
0
0
0
0
0
0
0
0
0
0
0
0
0
0
0
0
0
0
0
0
0
0
0
0
0
0
0
0
0
0
0
0
0
0
0
0
0
0
0
0
0
0
0
0
0
0
0
0
0
0
0
0
3
191
251
251
251
251
251
251
251
251
251
251
251
230
2
5
5
5
68
251
225
8
5
5
5
5
76
238
251
251
251
224
5
5
5
5
92
251
251
251
251
251
251
251
251
124
5
5
5
5
65
232
250
251
251
251
251
251
251
251
251
251
251
251
251
251
251
251
251
251
106
1
0
0
0
0
0
0
0
0
0
0
0
0
0
0
0
0
0
0
0
0
0
0
0
0
0
0
0
0
0
0
0
0
0
0
0
0
0
0
0
0
0
0
0
0
0
0
0
0
0
0
0
0
0
0
0
0
0
0
0
0
0
0
0
0
0
0
0
0
0
0
0
0
0
0
0
0
0
0
3
171
251
251
251
251
251
251
251
251
251
251
251
192
5
5
5
5
135
251
251
165
5
5
5
5
6
129
248
251
251
194
5
5
5
5
144
251
251
251
251
251
251
251
251
212
5
5
5
5
5
64
187
235
251
252
243
219
210
251
251
251
251
251
251
251
251
251
251
251
81
1
0
0
0
0
0
0
0
0
0
0
0
0
0
0
0
0
0
0
0
0
0
0
0
0
0
0
0
0
0
0
0
0
0
0
0
0
0
0
0
0
0
0
0
0
0
0
0
0
0
0
0
0
0
0
0
0
0
0
0
0
0
0
0
0
0
0
0
0
0
0
0
0
0
0
0
0
0
0
2
163
251
251
251
251
251
251
251
251
251
250
216
73
5
5
5
5
99
232
251
244
101
5
5
5
5
5
153
229
250
154
5
5
5
5
91
233
251
251
251
251
251
251
251
251
179
5
5
5
5
5
5
2
0
8
0
5
131
251
251
251
251
251
251
251
251
251
251
252
4
0
0
0
0
0
0
0
0
0
0
0
0
0
0
0
0
0
0
0
0
0
0
0
0
0
0
0
0
0
0
0
0
0
0
0
0
0
0
0
0
0
0
0
0
0
0
0
0
0
0
0
0
0
0
0
0
0
0
0
0
0
0
0
0
0
0
0
0
0
0
0
0
0
0
0
0
0
0
0
2
146
251
251
251
251
251
251
251
251
251
212
5
5
5
5
5
5
5
168
251
251
233
105
5
5
5
5
5
2
231
99
5
5
5
5
5
173
251
251
251
251
251
251
251
251
251
207
86
6
5
5
5
5
5
5
5
5
175
251
251
251
251
251
251
251
251
251
251
239
0
0
0
0
0
0
0
0
0
0
0
0
0
0
0
0
0
0
0
0
0
0
0
0
0
0
0
0
0
0
0
0
0
0
0
0
0
0
0
0
0
0
0
0
0
0
0
0
0
0
0
0
0
0
0
0
0
0
0
0
0
0
0
0
0
0
0
0
0
0
0
0
0
0
0
0
0
0
0
0
1
119
251
251
251
251
251
251
251
251
251
220
154
150
151
151
151
151
153
221
251
251
251
247
209
178
159
153
151
163
251
161
150
149
149
152
158
225
251
251
251
251
251
251
251
251
251
251
248
212
172
141
124
122
124
142
168
203
244
251
251
251
251
251
251
251
251
251
251
230
4
0
1
2
1
1
1
0
0
0
0
0
0
0
0
0
0
0
0
0
0
0
0
0
0
0
0
0
0
0
0
0
0
0
0
0
0
0
0
0
0
0
0
0
0
0
0
0
0
0
0
0
0
0
0
0
0
0
0
0
0
0
0
0
0
0
0
0
0
0
0
0
0
0
0
0
0
0
0
0
1
95
251
251
251
251
251
251
251
251
251
251
251
251
251
251
251
251
251
251
251
251
251
251
251
251
251
251
251
251
251
251
251
251
251
251
251
251
251
251
251
251
251
251
251
251
251
251
251
251
251
251
251
251
251
251
251
251
251
251
251
251
251
251
251
251
251
251
251
224
4
0
0
2
2
3
1
0
0
0
0
0
0
0
0
0
0
0
0
0
0
0
0
0
0
0
0
0
0
0
0
0
0
0
0
0
0
0
0
0
0
0
0
0
0
0
0
0
0
0
0
0
0
0
0
0
0
0
0
0
0
0
0
0
0
0
0
0
0
0
0
0
0
0
0
0
0
0
0
0
0
47
249
251
251
251
251
251
251
251
251
251
251
251
251
251
251
251
251
251
251
251
251
251
251
251
251
251
251
251
251
251
251
251
251
251
251
251
251
251
251
251
251
251
251
251
251
251
251
251
251
251
251
251
251
251
251
251
251
251
251
251
251
251
251
251
251
251
251
205
4
0
0
1
1
1
1
0
0
0
0
0
0
0
0
0
0
0
0
0
0
0
0
0
0
0
0
0
0
0
0
0
0
0
0
0
0
0
0
0
0
0
0
0
0
0
0
0
0
0
0
0
0
0
0
0
0
0
0
0
0
0
0
0
0
0
0
0
0
0
0
0
0
0
0
0
0
0
0
0
0
4
198
251
251
251
251
251
251
251
251
251
251
251
251
251
251
251
251
251
251
251
251
251
251
251
251
251
251
251
251
251
251
251
251
251
251
251
251
251
251
251
251
251
251
251
251
251
251
251
251
251
251
251
251
251
251
251
251
251
251
251
251
251
251
251
251
251
250
143
3
0
0
0
0
0
0
0
0
0
0
0
0
0
0
0
0
0
0
0
0
0
0
0
0
0
0
0
0
0
0
0
0
0
0
0
0
0
0
0
0
0
0
0
0
0
0
0
0
0
0
0
0
0
0
0
0
0
0
0
0
0
0
0
0
0
0
0
0
0
0
0
0
0
0
0
0
0
0
0
0
1
29
176
212
216
218
219
220
222
222
224
225
225
228
228
228
227
228
227
228
228
228
228
228
228
228
228
228
228
228
228
228
228
228
228
228
228
228
228
228
228
228
227
227
227
227
227
227
226
226
226
226
224
222
222
222
221
220
219
218
217
216
215
214
212
211
205
140
4
0
0
0
0
0
0
0
0
0
0
0
0
0
0
0
0
0
0
0
0
0
0
0
0
0
0
0
0
0
0
0
0
0
0
0
0
0
0
0
0
0
0
0
0
0
0
0
0
0
0
0
0
0
0
0
0
0
0
0
0
0
0
0
0
0
0
0
0
0
0
0
0
0
0
0
0
0
0
0
0
0
0
1
3
4
4
4
4
4
4
4
4
4
4
4
4
4
4
4
4
4
4
4
4
4
4
4
4
4
4
4
4
4
4
4
4
4
4
4
4
4
4
4
4
4
4
4
4
4
4
4
4
4
4
4
4
4
4
4
4
4
4
4
4
4
4
4
4
3
1
0
0
0
0
0
0
0
0
0
0
0
0
0
0
0
0
0
0
0
0
0
0
0
0
0
0
0
0
0
0
0
0
0
0
0
0
0
0
0
0
0
0
0
0
0
0
0
0
0
0
0
0
0
0
0
0
0
0
0
0
0
0
0
0
0
0
0
0
0
0
0
0
0
0
0
0
0
0
0
0
0
0
0
0
0
0
0
0
0
0
0
0
0
0
0
0
0
0
0
0
0
0
0
0
0
0
0
0
0
0
0
0
0
0
0
0
0
0
0
0
0
0
0
0
0
0
0
0
0
0
0
0
0
0
0
0
0
0
0
0
0
0
0
0
0
0
0
0
0
0
0
0
0
0
0
0
0
0
0
0
0
0
0
0
0
0
0
0
0
0
0
0
0
0
0
0
0
0
0
0
0
0
0
0
0
0
0
0
0
0
0
