P2
150 97
255
97
97
97
97
97
97
97
97
97
97
97
97
97
97
97
97
97
97
97
97
97
97
97
97
97
97
97
97
97
97
97
97
97
97
97
97
97
97
97
97
97
97
97
97
97
97
97
97
97
97
97
97
97
97
97
97
97
97
97
97
97
97
97
97
97
97
97
97
97
97
97
97
97
97
97
97
97
97
97
97
97
97
97
97
97
97
97
97
97
97
97
97
97
97
97
97
97
97
97
97
97
97
97
97
97
97
97
97
97
97
97
97
97
97
97
97
97
97
97
97
97
97
97
97
97
97
97
97
97
97
97
97
97
97
97
97
97
97
97
97
97
97
97
97
97
97
97
97
97
97
97
97
97
97
97
97
97
97
97
97
97
97
97
97
97
97
97
97
97
97
97
97
97
97
97
97
97
97
97
97
97
97
97
97
97
97
97
97
97
97
97
97
97
97
97
97
97
97
97
97
97
97
97
97
97
97
97
97
97
97
97
97
97
97
97
97
97
97
97
97
97
97
97
97
97
97
97
97
97
97
97
97
97
97
97
97
97
97
97
97
97
97
97
97
97
97
97
97
97
97
97
97
97
97
97
97
97
97
97
97
97
97
97
97
97
97
97
97
97
97
97
97
97
97
97
97
97
97
97
97
97
97
97
97
97
97
97
97
97
97
97
97
97
97
97
97
97
97
97
97
97
97
97
97
97
97
97
97
97
97
97
97
97
97
97
97
97
97
97
97
97
97
97
97
97
97
97
97
97
97
97
97
97
97
97
97
97
97
97
97
97
97
97
97
97
97
97
97
97
97
97
97
97
97
97
97
97
97
97
97
97
97
97
97
97
97
97
97
97
97
97
97
97
97
97
97
97
97
97
97
97
97
97
97
97
97
97
97
97
97
97
97
97
97
97
97
97
97
97
97
97
97
97
97
97
97
97
97
97
97
97
97
97
97
97
97
97
97
97
97
97
97
97
97
97
97
97
97
97
97
97
97
97
97
97
97
97
97
97
97
97
97
97
97
97
97
97
97
97
97
97
97
97
97
97
97
97
97
97
97
97
97
97
97
97
97
97
97
97
97
97
97
97
97
97
97
97
97
97
97
97
97
97
97
97
97
97
97
97
97
97
97
97
97
97
97
97
97
97
97
97
97
97
97
97
97
97
97
97
97
97
97
97
97
97
97
97
97
97
97
97
97
97
97
97
97
97
97
97
97
97
97
97
97
97
97
97
97
97
97
97
97
97
97
97
97
97
97
97
97
97
97
97
97
97
97
97
97
97
97
97
97
97
97
97
97
97
97
97
97
97
97
97
97
97
97
97
97
97
97
97
97
97
97
97
97
97
97
97
97
97
97
97
97
97
97
97
97
97
97
97
97
97
97
97
97
97
97
97
97
97
97
97
97
97
97
97
97
97
97
97
97
97
97
97
97
97
97
97
97
97
97
97
97
97
97
97
97
97
97
97
97
97
97
97
97
97
97
97
97
97
97
97
97
97
97
97
97
97
97
97
97
97
97
97
97
97
97
97
97
97
97
97
97
97
97
97
97
97
97
97
97
97
97
97
97
97
97
97
97
97
97
97
97
97
97
97
97
97
97
97
97
97
97
97
97
97
97
97
97
97
97
97
97
97
97
97
97
97
97
97
97
97
97
97
97
97
97
97
97
97
97
97
97
97
97
97
97
97
97
97
97
97
97
97
97
97
97
97
97
97
97
97
97
97
97
97
97
97
97
97
97
97
97
97
97
97
97
97
97
97
97
97
97
97
97
97
97
97
97
97
97
97
97
97
97
97
97
97
97
97
97
97
97
97
97
97
97
97
97
97
97
97
97
97
97
97
97
97
97
97
97
97
97
97
97
97
97
97
97
97
97
97
97
97
97
97
97
97
97
97
97
97
97
97
97
97
97
97
97
97
97
97
97
97
97
97
97
97
97
97
97
97
97
97
97
97
97
97
97
97
97
97
97
97
97
97
97
97
97
97
97
97
97
97
97
97
97
97
97
97
97
97
97
97
97
97
97
97
97
97
97
97
97
97
97
97
97
97
97
97
97
97
97
97
97
97
97
97
97
97
97
97
97
97
97
97
97
97
97
97
97
97
97
97
97
97
97
97
97
97
97
97
97
97
97
97
97
97
97
97
97
97
97
97
97
97
97
97
97
97
97
97
97
97
97
97
97
97
97
97
97
97
97
97
97
97
96
96
95
95
95
96
96
97
97
97
97
97
97
97
97
97
97
97
97
97
97
97
97
97
97
97
97
97
97
97
97
97
97
97
97
97
97
97
97
97
97
97
97
97
97
97
97
97
97
97
97
97
97
97
97
97
97
97
97
97
97
97
97
97
97
97
97
97
97
97
97
97
97
97
97
97
97
97
97
97
97
97
97
97
97
97
97
97
97
97
97
97
97
97
97
97
97
97
97
97
97
97
97
97
97
97
97
97
97
97
97
97
97
97
97
97
97
97
97
97
97
97
97
97
97
97
97
97
97
97
97
97
97
97
97
97
97
97
97
97
97
97
97
97
96
96
113
148
159
167
170
165
164
173
171
164
171
170
167
152
124
98
96
97
97
97
97
97
97
97
97
97
97
97
97
97
97
97
97
97
97
97
97
97
97
97
97
97
97
97
97
97
97
97
97
97
97
97
97
97
97
97
97
97
97
97
97
97
97
97
97
97
97
97
97
97
97
97
97
97
97
97
97
97
97
97
97
97
97
97
97
97
97
97
97
97
97
97
97
97
97
97
97
97
97
97
97
97
97
97
97
97
97
97
97
97
97
97
97
97
97
97
97
97
97
97
97
97
97
97
97
97
97
97
97
97
97
97
97
97
97
97
97
97
97
97
97
97
97
97
97
97
114
149
154
155
153
130
109
98
95
95
96
96
96
96
95
97
109
124
146
169
164
163
133
100
96
97
97
97
97
97
97
97
97
97
97
97
97
97
97
97
97
97
97
97
97
97
97
97
97
97
97
97
97
97
97
97
97
97
97
97
97
97
97
97
97
97
97
97
97
97
97
97
97
97
97
97
97
97
97
97
97
97
97
97
97
97
97
97
97
97
97
97
97
97
97
97
97
97
97
97
97
97
97
97
97
97
97
97
97
97
97
97
97
97
97
97
97
97
97
97
97
97
97
97
97
97
97
97
97
97
97
97
97
97
97
97
97
97
97
97
97
97
97
97
97
97
96
110
148
145
145
102
96
97
97
97
97
97
97
97
97
96
97
97
97
97
97
97
97
97
95
100
129
158
158
129
97
97
97
97
97
97
97
97
97
97
97
97
97
97
97
97
97
97
97
97
97
97
97
97
97
97
97
97
97
97
97
97
97
97
97
97
97
97
97
97
97
97
97
97
97
97
97
97
97
97
97
97
97
97
97
97
97
97
97
97
97
97
97
97
97
97
97
97
97
97
97
97
97
97
97
97
97
97
97
97
97
97
97
97
97
97
97
97
97
97
97
97
97
97
97
97
97
97
97
97
97
97
97
97
97
97
97
97
97
97
97
97
97
97
97
97
97
97
97
136
149
136
96
97
97
97
97
97
97
97
97
97
97
97
96
175
97
97
97
97
97
97
97
97
97
97
97
97
96
130
163
150
103
97
97
97
97
97
97
97
97
97
97
97
97
97
97
97
97
97
97
97
97
97
97
97
97
97
97
97
97
97
97
97
97
97
97
97
97
97
97
97
97
97
97
97
97
97
97
97
97
97
97
97
97
97
97
97
97
97
97
97
97
97
97
97
97
97
97
97
97
97
97
97
97
97
97
97
97
97
97
97
97
97
97
97
97
97
97
97
97
97
97
97
97
97
97
97
97
97
97
97
97
97
97
97
97
97
97
97
97
97
97
97
97
97
96
140
163
121
96
97
97
97
97
97
97
97
97
97
97
97
97
97
131
250
149
97
97
97
97
97
97
97
97
97
97
97
97
97
96
112
160
156
102
97
97
97
97
97
97
97
97
97
97
97
97
97
97
97
97
97
97
97
97
97
97
97
97
97
97
97
97
97
97
97
97
97
97
97
97
97
97
97
97
97
97
97
97
97
97
97
97
97
97
97
97
97
97
97
97
97
97
97
97
97
97
97
97
97
97
97
97
97
97
97
97
97
97
97
97
97
97
97
97
97
97
97
97
97
97
97
97
97
97
97
97
97
97
97
97
97
97
97
97
97
97
97
97
97
97
97
97
97
96
123
169
130
96
97
97
97
97
97
97
97
97
97
97
97
97
97
97
96
202
255
217
96
97
97
97
97
97
97
97
97
97
97
97
97
97
97
96
118
178
153
97
97
97
97
97
97
97
97
97
97
97
97
97
97
97
97
97
97
97
97
97
97
97
97
97
97
97
97
97
97
97
97
97
97
97
97
97
97
97
97
97
97
97
97
97
97
97
97
97
97
97
97
97
97
97
97
97
97
97
97
97
97
97
97
97
97
97
97
97
97
97
97
97
97
97
97
97
97
97
97
97
97
97
97
97
97
97
97
97
97
97
97
97
97
97
97
97
97
97
97
97
97
97
97
97
97
97
102
157
145
97
97
97
97
97
97
97
97
97
97
97
97
97
97
97
97
97
114
246
255
249
114
97
97
97
97
97
97
97
97
97
97
97
97
97
97
97
97
96
141
190
120
97
97
97
97
97
97
97
97
97
97
97
97
97
97
97
97
97
97
97
97
97
97
97
97
97
97
97
97
97
97
97
97
97
97
97
97
97
97
97
97
97
97
97
97
97
97
97
97
97
97
97
97
97
97
97
97
97
97
97
97
97
97
97
97
97
97
97
97
97
97
97
97
97
97
97
97
97
97
97
97
97
97
97
97
97
97
97
97
97
97
97
97
97
97
97
97
97
97
97
97
97
97
97
97
126
156
104
97
97
97
97
97
97
97
97
97
97
97
97
97
98
102
117
122
140
201
255
255
255
204
152
144
131
123
105
97
97
97
97
97
97
97
97
97
97
97
97
97
103
177
162
96
97
97
97
97
97
97
97
97
97
97
97
97
97
97
97
97
97
97
97
97
97
97
97
97
97
97
97
97
97
97
97
97
97
97
97
97
97
97
97
97
97
97
97
97
97
97
97
97
97
97
97
97
97
97
97
97
97
97
97
97
97
97
97
97
97
97
97
97
97
97
97
97
97
97
97
97
97
97
97
97
97
97
97
97
97
97
97
97
97
97
97
97
97
97
97
97
97
97
97
97
96
145
141
96
97
97
97
97
97
97
97
97
97
97
97
97
97
97
135
240
250
252
255
255
255
255
255
255
255
255
253
241
137
97
97
97
97
97
97
97
97
97
97
97
97
97
97
96
151
178
100
97
97
97
97
97
97
97
97
97
97
97
97
97
97
97
97
97
97
97
97
97
97
97
97
97
97
97
97
97
97
97
97
97
97
97
97
97
97
97
97
97
97
97
97
97
97
97
97
97
97
97
97
97
97
97
97
97
97
97
97
97
97
97
97
97
97
97
97
97
97
97
97
97
97
97
97
97
97
97
97
97
97
97
97
97
97
97
97
97
97
97
97
97
97
97
97
97
97
98
164
123
97
97
97
97
97
97
97
97
97
97
97
97
97
97
97
97
97
148
245
255
255
255
255
255
255
255
255
255
243
143
97
97
97
97
97
97
97
97
97
97
97
97
97
97
97
97
97
123
190
116
97
97
97
97
97
97
97
97
97
97
97
97
97
97
97
97
97
97
97
97
97
97
97
97
97
97
97
97
97
97
97
97
97
97
97
97
97
97
97
97
97
97
97
97
97
97
97
97
97
97
97
97
97
97
97
97
97
97
97
97
97
97
97
97
97
97
97
97
97
97
97
97
97
97
97
97
97
97
97
97
97
97
97
97
97
97
97
97
97
97
97
97
97
97
97
97
103
152
108
97
97
97
97
97
97
97
97
97
97
97
97
97
97
97
97
97
97
97
133
241
255
255
255
255
255
255
255
242
137
97
97
97
97
97
97
97
97
97
97
97
97
97
97
97
97
97
97
97
103
188
126
97
97
97
97
97
97
97
97
97
97
97
97
97
97
97
97
97
97
97
97
97
97
97
97
97
97
97
97
97
97
97
97
97
97
97
97
97
97
97
97
97
97
97
97
97
97
97
97
97
97
97
97
97
97
97
97
97
97
97
97
97
97
97
97
97
97
97
97
97
97
97
97
97
97
97
97
97
97
97
97
97
97
97
97
97
97
97
97
97
97
97
97
97
97
104
166
105
97
97
97
97
97
97
97
97
97
97
97
97
97
97
97
97
97
97
97
97
97
120
241
255
255
255
255
255
244
123
97
97
97
97
97
97
97
97
97
97
97
97
97
97
97
97
97
97
97
97
97
100
186
134
97
97
97
97
97
97
97
97
97
97
97
97
97
97
97
97
97
97
97
97
97
97
97
97
97
97
97
97
97
97
97
97
97
97
97
97
97
97
97
97
97
97
97
97
97
97
97
97
97
97
97
97
97
97
97
97
97
97
97
97
97
97
97
97
97
97
97
97
97
97
97
97
97
97
97
97
97
97
97
97
97
97
97
97
97
97
97
97
97
97
97
97
103
167
103
97
97
97
97
97
97
97
97
97
97
97
97
101
162
133
95
97
97
97
97
97
97
106
246
255
255
255
255
255
248
115
97
97
97
97
97
97
98
138
172
105
97
97
97
97
97
97
97
97
97
97
97
97
98
184
127
97
97
97
97
97
97
97
97
97
97
97
97
97
97
97
97
97
97
97
97
97
97
97
97
97
97
97
97
97
97
97
97
97
97
97
97
97
97
97
97
97
97
97
97
97
97
97
97
97
97
97
97
97
97
97
97
97
97
97
97
97
97
97
97
97
97
97
97
97
97
97
97
97
97
97
97
97
97
97
97
97
97
97
97
97
97
97
97
97
97
98
161
106
97
97
97
97
97
97
97
97
97
97
97
97
97
96
222
252
226
165
100
97
97
97
97
147
254
255
255
255
255
255
255
185
97
97
97
97
117
187
236
254
230
96
97
97
97
97
97
97
97
97
97
97
97
97
97
98
186
116
97
97
97
97
97
97
97
97
97
97
97
97
97
97
97
97
97
97
97
97
97
97
97
97
97
97
97
97
97
97
97
97
97
97
97
97
97
97
97
97
97
97
97
97
97
97
97
97
97
97
97
97
97
97
97
97
97
97
97
97
97
97
97
97
97
97
97
97
97
97
97
97
97
97
97
97
97
97
97
97
97
97
97
97
97
97
97
97
96
161
117
97
97
97
97
97
97
97
97
97
97
97
97
97
97
97
161
254
255
254
229
148
97
97
96
205
255
255
241
198
250
255
255
237
100
97
105
185
244
255
255
255
184
97
97
97
97
97
97
97
97
97
97
97
97
97
97
97
102
183
104
97
97
97
97
97
97
97
97
97
97
97
97
97
97
97
97
97
97
97
97
97
97
97
97
97
97
97
97
97
97
97
97
97
97
97
97
97
97
97
97
97
97
97
97
97
97
97
97
97
97
97
97
97
97
97
97
97
97
97
97
97
97
97
97
97
97
97
97
97
97
97
97
97
97
97
97
97
97
97
97
97
97
97
97
97
97
97
146
133
97
97
97
97
97
97
97
97
97
97
97
96
95
97
97
97
99
239
255
255
255
253
207
117
119
246
255
225
125
96
136
229
255
255
161
145
233
255
255
255
255
250
123
97
97
96
94
97
97
97
97
97
97
97
97
97
97
97
97
115
181
96
97
97
97
97
97
97
97
97
97
97
97
97
97
97
97
97
97
97
97
97
97
97
97
97
97
97
97
97
97
97
97
97
97
97
97
97
97
97
97
97
97
97
97
97
97
97
97
97
97
97
97
97
97
97
97
97
97
97
97
97
97
97
97
97
97
97
97
97
97
97
97
97
97
97
97
97
97
97
97
97
97
97
97
97
97
122
159
96
97
97
97
97
97
97
97
97
97
97
97
153
217
189
142
99
97
203
255
255
255
255
255
244
229
253
199
102
97
97
97
102
205
254
244
254
255
255
255
255
255
224
95
98
152
205
233
167
97
97
97
97
97
97
97
97
97
97
97
97
135
162
97
97
97
97
97
97
97
97
97
97
97
97
97
97
97
97
97
97
97
97
97
97
97
97
97
97
97
97
97
97
97
97
97
97
97
97
97
97
97
97
97
97
97
97
97
97
97
97
97
97
97
97
97
97
97
97
97
97
97
97
97
97
97
97
97
97
97
97
97
97
97
97
97
97
97
97
97
97
97
97
97
97
97
97
98
179
97
97
97
97
97
97
97
97
97
97
97
97
97
100
229
255
254
233
177
187
255
255
255
255
255
255
255
242
118
133
139
153
160
160
142
244
255
255
255
255
255
255
255
218
194
236
254
255
234
101
97
97
97
97
97
97
97
97
97
97
97
97
97
160
119
97
97
97
97
97
97
97
97
97
97
97
97
97
97
97
97
97
97
97
97
97
97
97
97
97
97
97
97
97
97
97
97
97
97
97
97
97
97
97
97
97
97
97
97
97
97
97
97
97
97
97
97
97
97
97
97
97
97
97
97
97
97
97
97
97
97
97
97
97
97
97
97
97
97
97
97
97
97
97
97
97
97
97
163
123
95
96
97
97
97
97
97
97
97
97
97
97
97
97
139
252
255
255
255
254
255
255
255
255
255
255
255
255
253
254
254
255
255
255
254
255
255
255
255
255
255
255
255
255
255
255
255
253
159
97
97
97
97
97
97
97
97
97
97
97
97
97
96
100
172
97
97
97
97
97
97
97
97
97
97
97
97
97
97
97
97
97
97
97
97
97
97
97
97
97
97
97
97
97
97
97
97
97
97
97
97
97
97
97
97
97
97
97
97
97
97
97
97
97
97
97
97
97
97
97
97
97
97
97
97
97
97
97
97
97
97
97
97
97
97
97
97
97
97
97
97
97
97
97
97
97
97
119
159
96
195
181
97
97
97
97
97
97
97
97
97
97
97
97
96
202
255
255
255
255
255
255
255
255
255
255
255
255
255
255
255
255
255
255
255
255
255
255
255
255
255
255
255
255
255
255
255
218
96
97
97
97
97
97
97
97
97
97
97
97
97
125
203
114
136
162
97
97
97
97
97
97
97
97
97
97
97
97
97
97
97
97
97
97
97
97
97
97
97
97
97
97
97
97
97
97
97
97
97
97
97
97
97
97
97
97
97
97
97
97
97
97
97
97
97
97
97
97
97
97
97
97
97
97
97
97
97
97
97
97
97
97
97
97
97
97
97
97
97
97
97
97
97
97
97
97
96
175
101
96
202
254
192
97
97
97
97
97
97
97
97
97
97
97
97
124
249
255
255
255
255
255
255
255
255
255
255
253
247
242
234
228
228
235
242
249
253
255
255
255
255
255
255
255
255
255
253
143
97
97
97
97
97
97
97
97
97
97
97
97
148
246
251
125
96
174
106
97
97
97
97
97
97
97
97
97
97
97
97
97
97
97
97
97
97
97
97
97
97
97
97
97
97
97
97
97
97
97
97
97
97
97
97
97
97
97
97
97
97
97
97
97
97
97
97
97
97
97
97
97
97
97
97
97
97
97
97
97
97
97
97
97
97
97
97
97
97
97
97
97
97
97
97
97
97
97
135
158
97
96
202
255
254
170
97
97
97
97
97
97
97
97
97
97
97
96
216
255
255
255
255
255
255
244
221
194
159
132
102
96
96
96
96
96
98
111
133
168
198
232
251
255
255
255
255
255
231
95
97
97
97
97
97
97
97
97
97
97
97
128
245
255
248
105
97
117
168
97
97
97
97
97
97
97
97
97
97
97
97
97
97
97
97
97
97
97
97
97
97
97
97
97
97
97
97
97
97
97
97
97
97
97
97
97
97
97
97
97
97
97
97
97
97
97
97
97
97
97
97
97
97
97
97
97
97
97
97
97
97
97
97
97
97
97
97
97
97
97
97
97
97
97
97
97
97
96
180
97
97
96
205
255
255
243
109
97
97
97
97
97
97
97
97
97
97
97
169
255
255
255
245
209
157
106
95
97
97
97
135
169
191
193
191
175
150
104
97
97
97
94
120
179
233
254
255
255
189
97
97
97
97
97
97
97
97
97
97
97
97
223
255
255
241
101
97
97
181
105
97
97
97
97
97
97
97
97
97
97
97
97
97
97
97
97
97
97
97
97
97
97
97
97
97
97
97
97
97
97
97
97
97
97
97
97
97
97
97
97
97
97
97
97
97
97
97
97
97
97
97
97
97
97
97
97
97
97
97
97
97
97
97
97
97
97
97
97
97
97
97
97
97
97
97
97
97
126
154
97
97
95
220
255
255
255
176
97
97
97
97
97
97
97
97
97
97
97
113
249
228
169
105
96
97
103
106
97
148
233
253
255
255
255
255
255
255
244
192
104
114
138
97
97
98
140
200
245
158
97
97
97
97
97
97
97
97
97
97
97
139
254
255
255
250
110
97
97
110
166
97
97
97
97
97
97
97
97
97
97
97
97
97
97
97
97
97
97
97
97
97
97
97
97
97
97
97
97
97
97
97
97
97
97
97
97
97
97
97
97
97
97
97
97
97
97
97
97
97
97
97
97
97
97
97
97
97
97
97
97
97
97
97
97
97
97
97
97
97
97
97
97
97
97
97
97
96
176
101
97
97
103
246
255
255
255
221
96
97
97
97
115
160
176
168
126
97
97
97
137
96
97
138
98
124
195
100
174
253
255
255
255
255
255
255
255
255
255
255
226
105
166
163
96
144
126
96
105
105
97
97
118
153
170
156
124
97
97
97
97
188
255
255
255
254
147
97
97
96
179
102
97
97
97
97
97
97
97
97
97
97
97
97
97
97
97
97
97
97
97
97
97
97
97
97
97
97
97
97
97
97
97
97
97
97
97
97
97
97
97
97
97
97
97
97
97
97
97
97
97
97
97
97
97
97
97
97
97
97
97
97
97
97
97
97
97
97
97
97
97
97
97
97
97
97
97
104
169
97
97
97
148
254
255
255
255
249
107
121
184
228
250
255
255
255
252
199
96
97
97
100
202
144
104
226
124
134
250
255
255
255
255
255
255
255
255
255
255
255
255
196
97
212
145
101
209
122
97
97
97
174
252
255
255
255
253
231
186
117
96
222
255
255
255
255
187
97
97
97
141
148
97
97
97
97
97
97
97
97
97
97
97
97
97
97
97
97
97
97
97
97
97
97
97
97
97
97
97
97
97
97
97
97
97
97
97
97
97
97
97
97
97
97
97
97
97
97
97
97
97
97
97
97
97
97
97
97
97
97
97
97
97
97
97
97
97
97
97
97
97
97
97
97
97
97
97
162
120
97
97
96
207
255
255
255
255
254
220
248
255
255
255
255
255
253
214
115
112
148
96
180
201
95
195
186
97
182
243
241
243
253
255
255
255
255
255
255
247
241
242
234
101
141
232
103
156
224
100
138
143
104
195
252
255
255
255
255
255
246
200
251
255
255
255
255
229
97
97
97
96
175
96
97
97
97
97
97
97
97
97
97
97
97
97
97
97
97
97
97
97
97
97
97
97
97
97
97
97
97
97
97
97
97
97
97
97
97
97
97
97
97
97
97
97
97
97
97
97
97
97
97
97
97
97
97
97
97
97
97
97
97
97
97
97
97
97
97
97
97
97
97
97
97
97
97
96
175
95
97
97
123
249
255
255
255
255
255
255
255
255
255
255
255
250
172
96
107
217
118
114
239
121
118
240
108
97
96
96
96
97
138
221
255
255
255
216
158
105
95
96
106
97
96
229
168
98
230
175
102
233
146
96
152
242
255
255
255
255
255
255
255
255
255
255
255
255
151
97
97
97
171
111
97
97
97
97
97
97
97
97
97
97
97
97
97
97
97
97
97
97
97
97
97
97
97
97
97
97
97
97
97
97
97
97
97
97
97
97
97
97
97
97
97
97
97
97
97
97
97
97
97
97
97
97
97
97
97
97
97
97
97
97
97
97
97
97
97
97
97
97
97
97
97
97
97
107
173
97
97
96
206
255
255
255
255
255
255
255
255
255
255
255
251
162
96
97
188
198
96
190
217
96
178
224
95
97
139
190
177
122
97
107
246
255
227
98
97
116
164
173
126
97
96
201
222
96
185
232
97
191
231
96
97
133
243
255
255
255
255
255
255
255
255
255
255
255
227
98
97
97
139
158
97
97
97
97
97
97
97
97
97
97
97
97
97
97
97
97
97
97
97
97
97
97
97
97
97
97
97
97
97
97
97
97
97
97
97
97
97
97
97
97
97
97
97
97
97
97
97
97
97
97
97
97
97
97
97
97
97
97
97
97
97
97
97
97
97
97
97
97
97
97
97
97
97
149
130
97
97
138
251
255
255
255
255
255
255
255
255
255
255
251
164
96
97
109
241
133
96
232
183
96
211
202
96
94
226
231
216
228
140
95
234
255
184
97
151
220
215
239
232
96
97
174
251
104
145
253
134
127
251
149
97
97
134
243
255
255
255
255
255
255
255
255
255
255
254
160
97
97
100
185
96
97
97
97
97
97
97
97
97
97
97
97
97
97
97
97
97
97
97
97
97
97
97
97
97
97
97
97
97
97
97
97
97
97
97
97
97
97
97
97
97
97
97
97
97
97
97
97
97
97
97
97
97
97
97
97
97
97
97
97
97
97
97
97
97
97
97
97
97
97
97
97
97
165
98
97
98
226
255
255
255
255
255
255
255
255
255
255
254
177
96
97
97
168
241
97
126
252
147
97
231
197
97
97
133
98
96
97
105
95
224
255
178
97
98
96
96
98
125
97
97
150
254
131
114
249
189
96
230
198
97
97
97
143
249
255
255
255
255
255
255
255
255
255
255
241
109
97
96
183
95
97
97
97
97
97
97
97
97
97
97
97
97
97
97
97
97
97
97
97
97
97
97
97
97
97
97
97
97
97
97
97
97
97
97
97
97
97
97
97
97
97
97
97
97
97
97
97
97
97
97
97
97
97
97
97
97
97
97
97
97
97
97
97
97
97
97
97
97
97
97
97
95
166
96
97
174
254
255
255
255
255
255
255
255
255
255
255
206
96
97
97
96
215
227
96
171
253
127
97
234
200
97
97
151
127
97
126
134
103
237
255
182
97
137
120
98
120
130
97
97
157
254
136
100
241
208
97
205
227
95
97
97
97
176
254
255
255
255
255
255
255
255
255
255
255
198
96
97
178
113
97
97
97
97
97
97
97
97
97
97
97
97
97
97
97
97
97
97
97
97
97
97
97
97
97
97
97
97
97
97
97
97
97
97
97
97
97
97
97
97
97
97
97
97
97
97
97
97
97
97
97
97
97
97
97
97
97
97
97
97
97
97
97
97
97
97
97
97
97
97
97
99
158
97
124
246
255
255
255
255
255
255
251
236
217
216
218
106
97
97
97
101
242
212
96
195
249
115
97
234
217
96
113
249
251
242
252
253
241
255
255
213
161
252
251
245
250
235
99
97
173
253
109
98
240
209
97
185
244
102
97
97
97
97
207
229
234
244
250
255
255
255
255
255
255
254
150
97
156
149
97
97
97
97
97
97
97
97
97
97
97
97
97
97
97
97
97
97
97
97
97
97
97
97
97
97
97
97
97
97
97
97
97
97
97
97
97
97
97
97
97
97
97
97
97
97
97
97
97
97
97
97
97
97
97
97
97
97
97
97
97
97
97
97
97
97
97
97
97
97
97
132
148
97
219
254
255
255
255
255
237
191
121
96
96
96
96
97
97
97
97
111
247
213
96
189
251
122
96
223
237
100
124
253
255
255
255
255
255
255
255
254
253
255
255
255
255
250
114
96
201
234
98
104
243
206
97
181
251
123
97
97
97
97
96
96
96
97
118
174
229
254
255
255
255
255
235
111
122
181
97
97
97
97
97
97
97
97
97
97
97
97
97
97
97
97
97
97
97
97
97
97
97
97
97
97
97
97
97
97
97
97
97
97
97
97
97
97
97
97
97
97
97
97
97
97
97
97
97
97
97
97
97
97
97
97
97
97
97
97
97
97
97
97
97
97
97
97
97
97
97
149
119
168
254
255
255
254
230
166
103
97
97
97
97
97
97
97
97
97
97
108
245
225
96
168
255
146
97
190
254
140
110
250
255
255
255
255
238
205
216
202
253
255
255
255
255
236
97
99
236
207
96
124
253
189
97
202
254
132
97
97
97
97
97
97
97
97
97
97
97
161
231
254
255
255
255
197
101
191
97
97
97
97
97
97
97
97
97
97
97
97
97
97
97
97
97
97
97
97
97
97
97
97
97
97
97
97
97
97
97
97
97
97
97
97
97
97
97
97
97
97
97
97
97
97
97
97
97
97
97
97
97
97
97
97
97
97
97
97
97
97
97
97
97
97
97
97
97
97
97
156
101
132
198
213
202
152
98
97
97
96
99
102
99
97
97
97
97
97
97
96
235
239
97
121
251
199
97
131
253
197
97
235
255
255
255
255
229
164
136
192
251
255
255
255
255
211
96
146
253
155
97
162
254
150
96
217
252
127
97
97
97
97
97
97
97
99
99
96
97
97
99
146
206
224
210
151
96
196
95
97
97
97
97
97
97
97
97
97
97
97
97
97
97
97
97
97
97
97
97
97
97
97
97
97
97
97
97
97
97
97
97
97
97
97
97
97
97
97
97
97
97
97
97
97
97
97
97
97
97
97
97
97
97
97
97
97
97
97
97
97
97
97
97
97
97
97
97
97
97
157
93
97
97
96
97
97
97
97
145
211
239
249
204
96
97
97
97
97
97
96
212
248
113
96
230
244
109
97
229
244
102
209
255
255
255
255
255
254
254
255
255
255
255
255
254
167
96
215
242
104
96
215
249
105
97
239
244
102
97
97
97
97
97
97
167
236
234
214
158
98
97
97
97
96
97
97
95
195
93
97
97
97
97
97
97
97
97
97
97
97
97
97
97
97
97
97
97
97
97
97
97
97
97
97
97
97
97
97
97
97
97
97
97
97
97
97
97
97
97
97
97
97
97
97
97
97
97
97
97
97
97
97
97
97
97
97
97
97
97
97
97
97
97
97
97
97
97
97
97
149
94
97
97
97
97
96
144
220
253
255
255
254
156
97
97
97
97
97
97
97
187
255
156
97
189
255
180
97
163
254
172
143
254
255
255
199
175
181
180
161
172
220
255
255
242
100
133
251
203
96
134
252
218
96
131
254
227
95
97
97
97
97
97
97
141
253
255
255
254
223
149
96
97
97
97
97
96
186
93
97
97
97
97
97
97
97
97
97
97
97
97
97
97
97
97
97
97
97
97
97
97
97
97
97
97
97
97
97
97
97
97
97
97
97
97
97
97
97
97
97
97
97
97
97
97
97
97
97
97
97
97
97
97
97
97
97
97
97
97
97
97
97
97
97
97
97
97
97
95
205
169
114
100
105
158
218
253
255
254
229
208
188
100
97
97
97
97
97
97
97
150
255
204
96
128
250
235
101
103
243
228
97
214
255
255
247
152
97
97
97
137
247
255
255
187
96
208
253
145
97
204
255
174
97
192
255
195
98
97
97
97
97
97
97
97
179
206
229
253
255
253
219
145
100
97
99
162
216
93
97
97
97
97
97
97
97
97
97
97
97
97
97
97
97
97
97
97
97
97
97
97
97
97
97
97
97
97
97
97
97
97
97
97
97
97
97
97
97
97
97
97
97
97
97
97
97
97
97
97
97
97
97
97
97
97
97
97
97
97
97
97
97
97
97
97
97
97
97
95
210
254
251
243
250
254
255
254
230
161
98
97
97
97
97
97
97
97
97
97
97
109
249
244
107
95
222
255
151
97
196
255
150
131
243
255
255
248
178
150
175
247
255
255
232
103
124
250
238
96
103
243
253
120
97
224
252
131
97
97
97
97
97
97
97
97
97
97
97
144
214
252
255
254
239
222
238
254
235
93
97
97
97
97
97
97
97
97
97
97
97
97
97
97
97
97
97
97
97
97
97
97
97
97
97
97
97
97
97
97
97
97
97
97
97
97
97
97
97
97
97
97
97
97
97
97
97
97
97
97
97
97
97
97
97
97
97
97
97
97
97
97
97
97
97
97
97
97
97
95
210
255
255
255
255
254
226
163
100
97
97
97
97
97
97
97
97
97
97
97
97
96
238
255
145
97
186
255
206
97
141
254
205
96
149
248
255
255
255
255
255
255
255
245
129
97
185
255
208
96
157
255
230
97
106
247
241
98
97
97
97
97
97
97
97
97
97
97
97
97
97
136
213
251
255
255
255
255
235
93
97
97
97
97
97
97
97
97
97
97
97
97
97
97
97
97
97
97
97
97
97
97
97
97
97
97
97
97
97
97
97
97
97
97
97
97
97
97
97
97
97
97
97
97
97
97
97
97
97
97
97
97
97
97
97
97
97
97
97
97
97
97
97
97
97
97
97
97
97
95
192
186
213
212
184
140
97
97
97
97
97
97
97
97
97
97
97
97
97
97
97
96
228
255
173
97
150
254
231
96
102
248
241
102
97
139
237
255
255
255
255
255
231
128
97
95
217
255
165
97
195
255
203
96
120
255
223
95
97
97
97
97
97
97
97
97
97
97
97
97
97
97
96
119
179
212
215
193
206
93
97
97
97
97
97
97
97
97
97
97
97
97
97
97
97
97
97
97
97
97
97
97
97
97
97
97
97
97
97
97
97
97
97
97
97
97
97
97
97
97
97
97
97
97
97
97
97
97
97
97
97
97
97
97
97
97
97
97
97
97
97
97
97
97
97
97
97
97
97
97
171
95
97
97
97
97
97
98
145
199
220
176
97
97
97
97
97
97
97
97
97
96
224
255
165
97
142
255
236
95
97
234
253
114
97
97
109
170
206
226
215
178
102
97
97
98
236
254
131
97
199
255
199
97
120
255
233
96
97
97
97
97
97
97
97
97
97
165
220
200
154
98
97
97
97
97
97
96
185
92
97
97
97
97
97
97
97
97
97
97
97
97
97
97
97
97
97
97
97
97
97
97
97
97
97
97
97
97
97
97
97
97
97
97
97
97
97
97
97
97
97
97
97
97
97
97
97
97
97
97
97
97
97
97
97
97
97
97
97
97
97
97
97
97
97
97
97
97
97
97
180
103
97
97
97
95
153
226
254
255
255
180
97
97
97
97
97
97
97
97
97
96
238
252
124
97
152
255
218
96
99
245
247
107
97
96
95
97
97
95
96
96
95
96
97
96
228
254
143
97
174
255
222
95
105
244
251
123
97
97
97
97
97
97
97
97
97
148
255
255
254
230
165
99
97
97
97
95
188
93
97
97
97
97
97
97
97
97
97
97
97
97
97
97
97
97
97
97
97
97
97
97
97
97
97
97
97
97
97
97
97
97
97
97
97
97
97
97
97
97
97
97
97
97
97
97
97
97
97
97
97
97
97
97
97
97
97
97
97
97
97
97
97
97
97
97
97
97
97
97
171
142
106
120
164
224
253
255
254
239
217
124
97
97
97
97
97
97
97
97
97
142
252
215
96
96
199
254
169
97
130
253
223
96
98
207
234
194
157
151
172
212
238
211
100
96
206
255
184
97
111
243
250
124
97
193
255
184
97
97
97
97
97
97
97
97
97
113
206
231
253
255
254
231
177
127
101
116
198
95
97
97
97
97
97
97
97
97
97
97
97
97
97
97
97
97
97
97
97
97
97
97
97
97
97
97
97
97
97
97
97
97
97
97
97
97
97
97
97
97
97
97
97
97
97
97
97
97
97
97
97
97
97
97
97
97
97
97
97
97
97
97
97
97
97
97
97
97
97
97
152
254
251
252
255
255
254
225
160
98
97
97
97
97
97
97
97
97
97
97
98
222
252
137
97
126
247
228
98
96
202
254
170
97
136
254
255
255
255
255
255
255
255
254
149
97
133
251
236
100
97
172
255
204
97
107
236
241
116
97
97
97
97
97
97
97
97
97
96
97
146
219
253
255
255
253
250
252
199
97
97
97
97
97
97
97
97
97
97
97
97
97
97
97
97
97
97
97
97
97
97
97
97
97
97
97
97
97
97
97
97
97
97
97
97
97
97
97
97
97
97
97
97
97
97
97
97
97
97
97
97
97
97
97
97
97
97
97
97
97
97
97
97
97
97
97
97
97
97
97
130
254
255
255
255
236
164
99
97
97
97
97
97
97
97
97
97
97
97
97
173
254
196
96
102
227
246
134
97
139
250
230
100
97
208
255
255
255
255
255
255
255
255
255
227
100
97
191
255
189
97
98
219
250
141
97
147
252
211
97
97
97
97
97
97
97
97
97
97
97
97
97
156
232
255
255
255
255
183
97
97
97
97
97
97
97
97
97
97
97
97
97
97
97
97
97
97
97
97
97
97
97
97
97
97
97
97
97
97
97
97
97
97
97
97
97
97
97
97
97
97
97
97
97
97
97
97
97
97
97
97
97
97
97
97
97
97
97
97
97
97
97
97
97
97
97
97
97
97
97
99
238
241
221
168
102
97
97
96
97
98
97
97
97
97
97
97
97
97
115
242
236
103
97
202
254
174
97
107
237
251
139
97
149
252
255
255
255
255
255
255
255
255
255
255
184
96
102
231
253
151
97
123
246
237
108
96
204
254
162
97
97
97
97
97
97
97
97
98
97
96
97
97
101
165
225
246
252
150
97
97
97
97
97
97
97
97
97
97
97
97
97
97
97
97
97
97
97
97
97
97
97
97
97
97
97
97
97
97
97
97
97
97
97
97
97
97
97
97
97
97
97
97
97
97
97
97
97
97
97
97
97
97
97
97
97
97
97
97
97
97
97
97
97
97
97
97
97
97
97
95
182
97
96
97
97
96
126
199
232
209
96
97
97
97
97
97
97
96
197
250
149
97
168
254
208
98
97
214
255
191
97
110
236
255
255
255
255
255
255
255
255
255
255
255
251
156
97
129
250
243
130
97
175
255
212
97
119
243
240
104
97
97
97
97
97
97
96
203
235
200
128
96
97
97
97
99
200
114
97
97
97
97
97
97
97
97
97
97
97
97
97
97
97
97
97
97
97
97
97
97
97
97
97
97
97
97
97
97
97
97
97
97
97
97
97
97
97
97
97
97
97
97
97
97
97
97
97
97
97
97
97
97
97
97
97
97
97
97
97
97
97
97
97
97
97
97
97
97
97
97
184
100
97
97
116
201
249
255
255
216
96
97
97
97
97
97
97
126
248
204
97
115
245
246
121
97
164
254
235
102
96
202
255
255
255
255
255
255
255
255
255
255
255
255
255
242
115
96
196
255
218
96
102
232
254
163
97
173
255
193
97
97
97
97
97
97
96
212
255
255
250
200
109
97
97
96
192
95
97
97
97
97
97
97
97
97
97
97
97
97
97
97
97
97
97
97
97
97
97
97
97
97
97
97
97
97
97
97
97
97
97
97
97
97
97
97
97
97
97
97
97
97
97
97
97
97
97
97
97
97
97
97
97
97
97
97
97
97
97
97
97
97
97
97
97
97
97
97
97
97
156
170
152
195
244
255
255
237
188
135
97
97
97
97
97
97
97
201
250
130
97
193
255
194
96
100
232
255
161
97
144
252
255
255
255
255
255
255
255
255
255
255
255
255
255
255
200
97
112
244
254
159
97
163
255
233
99
104
239
246
112
97
97
97
97
97
97
126
185
232
255
255
241
195
140
117
189
96
97
97
97
97
97
97
97
97
97
97
97
97
97
97
97
97
97
97
97
97
97
97
97
97
97
97
97
97
97
97
97
97
97
97
97
97
97
97
97
97
97
97
97
97
97
97
97
97
97
97
97
97
97
97
97
97
97
97
97
97
97
97
97
97
97
97
97
97
97
97
97
97
106
246
255
255
255
246
186
107
97
97
97
97
97
97
97
97
103
241
224
96
99
242
253
131
97
147
254
244
103
97
212
255
255
255
255
255
255
255
255
255
255
255
255
255
255
255
247
103
97
203
255
214
95
103
241
254
153
97
194
255
169
97
97
97
97
97
97
97
97
99
172
240
255
255
253
249
155
97
97
97
97
97
97
97
97
97
97
97
97
97
97
97
97
97
97
97
97
97
97
97
97
97
97
97
97
97
97
97
97
97
97
97
97
97
97
97
97
97
97
97
97
97
97
97
97
97
97
97
97
97
97
97
97
97
97
97
97
97
97
97
97
97
97
97
97
97
97
97
97
97
96
207
255
250
209
120
97
97
97
98
97
97
97
97
97
97
150
255
195
97
124
252
242
104
97
180
255
222
96
98
232
255
255
255
255
255
255
255
255
255
255
255
255
255
255
255
254
113
97
172
255
233
95
96
222
255
186
97
154
255
201
96
97
97
97
97
97
97
97
97
97
108
194
244
255
242
105
97
97
97
97
97
97
97
97
97
97
97
97
97
97
97
97
97
97
97
97
97
97
97
97
97
97
97
97
97
97
97
97
97
97
97
97
97
97
97
97
97
97
97
97
97
97
97
97
97
97
97
97
97
97
97
97
97
97
97
97
97
97
97
97
97
97
97
97
97
97
97
97
97
97
160
169
114
96
97
97
113
175
188
99
97
97
97
97
96
194
255
187
97
144
255
234
97
97
187
255
212
96
97
231
255
255
255
255
255
255
255
255
255
255
255
255
255
255
255
253
107
97
161
255
233
95
96
209
255
190
97
131
253
240
125
97
97
97
97
96
172
154
103
96
97
97
106
161
203
96
97
97
97
97
97
97
97
97
97
97
97
97
97
97
97
97
97
97
97
97
97
97
97
97
97
97
97
97
97
97
97
97
97
97
97
97
97
97
97
97
97
97
97
97
97
97
97
97
97
97
97
97
97
97
97
97
97
97
97
97
97
97
97
97
97
97
97
97
97
97
97
97
97
97
107
137
97
97
98
178
245
254
252
126
97
97
97
104
208
253
255
200
97
117
250
241
104
97
161
255
235
98
97
209
255
255
255
255
255
255
255
255
255
255
255
255
255
255
255
226
97
97
194
255
211
96
96
221
255
167
97
152
255
255
241
147
96
97
97
114
250
254
238
181
101
97
97
160
154
97
97
97
97
97
97
97
97
97
97
97
97
97
97
97
97
97
97
97
97
97
97
97
97
97
97
97
97
97
97
97
97
97
97
97
97
97
97
97
97
97
97
97
97
97
97
97
97
97
97
97
97
97
97
97
97
97
97
97
97
97
97
97
97
97
97
97
97
97
97
97
97
97
97
97
96
144
103
147
224
254
255
252
228
132
95
95
150
234
255
255
255
226
95
96
228
255
140
97
108
242
254
150
97
133
247
255
255
255
255
255
255
255
255
255
255
255
255
255
255
163
97
104
239
253
153
97
105
245
247
107
97
182
255
255
255
248
179
103
95
121
208
245
255
254
236
169
110
199
97
97
97
97
97
97
97
97
97
97
97
97
97
97
97
97
97
97
97
97
97
97
97
97
97
97
97
97
97
97
97
97
97
97
97
97
97
97
97
97
97
97
97
97
97
97
97
97
97
97
97
97
97
97
97
97
97
97
97
97
97
97
97
97
97
97
97
97
97
97
97
97
97
97
97
97
97
127
240
253
255
253
205
120
96
149
226
235
253
255
255
255
255
252
130
97
157
254
207
96
97
185
255
227
102
96
183
255
255
255
255
255
255
255
255
255
255
255
255
255
220
98
96
198
255
218
96
97
187
255
191
96
101
233
255
255
255
255
255
241
222
162
96
111
194
250
255
255
247
176
97
97
97
97
97
97
97
97
97
97
97
97
97
97
97
97
97
97
97
97
97
97
97
97
97
97
97
97
97
97
97
97
97
97
97
97
97
97
97
97
97
97
97
97
97
97
97
97
97
97
97
97
97
97
97
97
97
97
97
97
97
97
97
97
97
97
97
97
97
97
97
97
97
97
97
97
97
96
206
255
232
154
97
97
97
131
254
255
255
255
255
255
255
255
198
97
97
213
253
158
97
100
224
255
195
97
97
211
255
255
255
255
255
255
255
255
255
255
255
240
118
97
159
253
245
123
97
136
250
234
109
97
171
255
255
255
255
255
255
255
255
146
97
97
97
137
225
254
241
107
97
97
97
97
97
97
97
97
97
97
97
97
97
97
97
97
97
97
97
97
97
97
97
97
97
97
97
97
97
97
97
97
97
97
97
97
97
97
97
97
97
97
97
97
97
97
97
97
97
97
97
97
97
97
97
97
97
97
97
97
97
97
97
97
97
97
97
97
97
97
97
97
97
97
97
97
97
97
130
205
102
97
97
96
127
179
250
255
255
255
255
255
255
255
248
124
97
110
238
245
128
97
114
237
254
166
96
113
234
255
255
255
255
255
255
255
255
255
249
147
97
128
248
253
161
97
113
236
249
140
97
102
237
255
255
255
255
255
255
255
253
173
127
95
97
97
98
189
183
97
97
97
97
97
97
97
97
97
97
97
97
97
97
97
97
97
97
97
97
97
97
97
97
97
97
97
97
97
97
97
97
97
97
97
97
97
97
97
97
97
97
97
97
97
97
97
97
97
97
97
97
97
97
97
97
97
97
97
97
97
97
97
97
97
97
97
97
97
97
97
97
97
97
97
97
97
97
97
96
184
100
96
134
220
252
255
255
255
255
255
255
255
255
255
247
161
97
97
141
248
236
116
97
138
248
250
143
97
135
248
255
255
255
255
255
255
255
255
181
97
104
230
255
192
97
98
214
254
176
97
97
107
227
255
255
255
255
255
255
255
255
255
252
228
146
97
99
204
104
97
97
97
97
97
97
97
97
97
97
97
97
97
97
97
97
97
97
97
97
97
97
97
97
97
97
97
97
97
97
97
97
97
97
97
97
97
97
97
97
97
97
97
97
97
97
97
97
97
97
97
97
97
97
97
97
97
97
97
97
97
97
97
97
97
97
97
97
97
97
97
97
97
97
97
97
97
97
97
97
113
194
202
251
255
255
251
248
255
255
255
255
255
255
239
139
96
97
97
97
178
254
219
99
97
169
254
230
99
96
183
255
255
255
255
255
255
255
216
97
97
186
255
223
98
97
166
254
213
98
97
97
97
103
208
254
255
255
255
255
255
231
234
255
255
253
217
198
160
97
97
97
97
97
97
97
97
97
97
97
97
97
97
97
97
97
97
97
97
97
97
97
97
97
97
97
97
97
97
97
97
97
97
97
97
97
97
97
97
97
97
97
97
97
97
97
97
97
97
97
97
97
97
97
97
97
97
97
97
97
97
97
97
97
97
97
97
97
97
97
97
97
97
97
97
97
97
97
97
97
97
175
255
255
239
171
119
121
249
255
255
255
255
220
115
97
97
97
97
97
96
218
254
174
97
99
226
254
155
97
105
243
255
255
255
255
255
253
137
97
110
246
251
129
97
106
237
235
106
97
97
97
97
97
98
176
250
255
255
255
250
118
101
171
237
255
255
220
98
97
97
97
97
97
97
97
97
97
97
97
97
97
97
97
97
97
97
97
97
97
97
97
97
97
97
97
97
97
97
97
97
97
97
97
97
97
97
97
97
97
97
97
97
97
97
97
97
97
97
97
97
97
97
97
97
97
97
97
97
97
97
97
97
97
97
97
97
97
97
97
97
97
97
97
97
97
97
97
97
97
97
98
219
204
109
97
97
96
212
255
255
234
169
98
97
97
97
97
110
104
97
134
253
235
101
97
172
255
206
97
96
211
255
255
255
255
255
229
96
97
173
255
212
96
97
175
254
163
97
101
137
97
97
97
97
97
126
210
247
254
219
96
97
97
104
178
245
124
97
97
97
97
97
97
97
97
97
97
97
97
97
97
97
97
97
97
97
97
97
97
97
97
97
97
97
97
97
97
97
97
97
97
97
97
97
97
97
97
97
97
97
97
97
97
97
97
97
97
97
97
97
97
97
97
97
97
97
97
97
97
97
97
97
97
97
97
97
97
97
97
97
97
97
97
97
97
97
97
97
97
97
97
123
193
98
97
112
156
157
178
151
101
97
97
97
97
97
97
157
172
97
95
232
253
128
97
119
252
231
97
97
186
255
255
255
255
255
209
96
97
210
255
181
97
96
220
247
105
97
140
188
97
97
97
97
97
97
96
116
155
168
156
116
97
97
174
168
97
97
97
97
97
97
97
97
97
97
97
97
97
97
97
97
97
97
97
97
97
97
97
97
97
97
97
97
97
97
97
97
97
97
97
97
97
97
97
97
97
97
97
97
97
97
97
97
97
97
97
97
97
97
97
97
97
97
97
97
97
97
97
97
97
97
97
97
97
97
97
97
97
97
97
97
97
97
97
97
97
97
97
97
97
97
158
181
182
243
255
251
137
97
97
97
97
97
97
97
97
180
206
96
97
206
255
139
97
112
252
241
98
97
195
255
255
255
255
255
211
96
97
214
255
174
97
97
241
245
98
97
167
197
97
97
97
97
97
97
97
97
124
250
254
249
200
169
195
96
97
97
97
97
97
97
97
97
97
97
97
97
97
97
97
97
97
97
97
97
97
97
97
97
97
97
97
97
97
97
97
97
97
97
97
97
97
97
97
97
97
97
97
97
97
97
97
97
97
97
97
97
97
97
97
97
97
97
97
97
97
97
97
97
97
97
97
97
97
97
97
97
97
97
97
97
97
97
97
97
97
97
97
97
97
97
96
186
254
254
241
219
142
97
97
97
97
97
97
97
96
206
210
96
96
216
255
130
97
132
254
227
97
95
225
255
255
255
255
255
238
98
97
209
255
189
97
97
241
252
128
97
155
234
98
97
97
97
97
97
97
97
112
184
236
255
255
223
104
97
97
97
97
97
97
97
97
97
97
97
97
97
97
97
97
97
97
97
97
97
97
97
97
97
97
97
97
97
97
97
97
97
97
97
97
97
97
97
97
97
97
97
97
97
97
97
97
97
97
97
97
97
97
97
97
97
97
97
97
97
97
97
97
97
97
97
97
97
97
97
97
97
97
97
97
97
97
97
97
97
97
97
97
97
97
97
97
97
204
187
99
96
97
97
97
97
97
97
97
97
109
243
174
97
115
246
245
105
97
184
254
193
97
121
250
255
255
255
255
255
254
156
97
165
254
228
98
96
222
255
185
97
125
253
153
97
97
97
97
97
97
97
97
97
101
206
234
116
97
97
97
97
97
97
97
97
97
97
97
97
97
97
97
97
97
97
97
97
97
97
97
97
97
97
97
97
97
97
97
97
97
97
97
97
97
97
97
97
97
97
97
97
97
97
97
97
97
97
97
97
97
97
97
97
97
97
97
97
97
97
97
97
97
97
97
97
97
97
97
97
97
97
97
97
97
97
97
97
97
97
97
97
97
97
97
97
97
97
99
190
123
97
95
109
97
97
97
97
97
97
189
244
109
97
176
254
213
96
98
229
253
136
96
200
255
255
255
255
255
255
255
227
99
101
233
253
136
97
169
255
237
103
97
218
225
97
97
97
97
97
97
113
95
97
137
224
123
97
97
97
97
97
97
97
97
97
97
97
97
97
97
97
97
97
97
97
97
97
97
97
97
97
97
97
97
97
97
97
97
97
97
97
97
97
97
97
97
97
97
97
97
97
97
97
97
97
97
97
97
97
97
97
97
97
97
97
97
97
97
97
97
97
97
97
97
97
97
97
97
97
97
97
97
97
97
97
97
97
97
97
97
97
97
97
97
97
97
97
97
102
189
170
225
246
160
97
97
97
97
125
245
171
97
116
242
252
137
97
161
254
216
96
111
244
255
255
255
255
255
255
255
255
163
97
161
255
221
97
99
223
255
193
97
126
247
175
97
97
97
97
171
249
225
187
225
123
97
97
97
97
97
97
97
97
97
97
97
97
97
97
97
97
97
97
97
97
97
97
97
97
97
97
97
97
97
97
97
97
97
97
97
97
97
97
97
97
97
97
97
97
97
97
97
97
97
97
97
97
97
97
97
97
97
97
97
97
97
97
97
97
97
97
97
97
97
97
97
97
97
97
97
97
97
97
97
97
97
97
97
97
97
97
97
97
97
97
97
97
97
97
99
206
255
255
215
96
97
97
97
219
217
97
96
211
255
196
96
104
233
252
139
97
191
255
255
255
255
255
255
255
255
255
231
101
100
226
253
157
97
132
249
248
126
97
178
242
125
97
97
96
204
254
255
235
121
97
97
97
97
97
97
97
97
97
97
97
97
97
97
97
97
97
97
97
97
97
97
97
97
97
97
97
97
97
97
97
97
97
97
97
97
97
97
97
97
97
97
97
97
97
97
97
97
97
97
97
97
97
97
97
97
97
97
97
97
97
97
97
97
97
97
97
97
97
97
97
97
97
97
97
97
97
97
97
97
97
97
97
97
97
97
97
97
97
97
97
97
97
97
97
97
99
189
208
97
97
97
97
172
243
115
97
156
253
237
105
97
181
255
204
96
121
248
255
255
255
255
255
255
255
255
255
255
168
97
144
253
238
104
97
183
255
221
98
98
223
212
97
97
97
96
184
221
114
97
97
97
97
97
97
97
97
97
97
97
97
97
97
97
97
97
97
97
97
97
97
97
97
97
97
97
97
97
97
97
97
97
97
97
97
97
97
97
97
97
97
97
97
97
97
97
97
97
97
97
97
97
97
97
97
97
97
97
97
97
97
97
97
97
97
97
97
97
97
97
97
97
97
97
97
97
97
97
97
97
97
97
97
97
97
97
97
97
97
97
97
97
97
97
97
97
97
96
159
166
96
97
103
238
184
96
104
238
253
161
97
122
248
250
125
97
189
255
255
255
255
255
255
255
255
255
255
255
228
96
97
220
254
187
97
105
239
254
165
97
141
253
154
97
96
145
186
99
97
97
97
97
97
97
97
97
97
97
97
97
97
97
97
97
97
97
97
97
97
97
97
97
97
97
97
97
97
97
97
97
97
97
97
97
97
97
97
97
97
97
97
97
97
97
97
97
97
97
97
97
97
97
97
97
97
97
97
97
97
97
97
97
97
97
97
97
97
97
97
97
97
97
97
97
97
97
97
97
97
97
97
97
97
97
97
97
97
97
97
97
97
97
97
97
97
97
97
97
96
127
177
114
173
244
108
96
188
255
223
97
97
200
255
209
97
103
240
255
255
255
255
255
255
255
255
255
255
255
253
138
97
159
255
246
107
97
176
255
232
99
97
221
223
103
179
158
97
97
97
97
97
97
97
97
97
97
97
97
97
97
97
97
97
97
97
97
97
97
97
97
97
97
97
97
97
97
97
97
97
97
97
97
97
97
97
97
97
97
97
97
97
97
97
97
97
97
97
97
97
97
97
97
97
97
97
97
97
97
97
97
97
97
97
97
97
97
97
97
97
97
97
97
97
97
97
97
97
97
97
97
97
97
97
97
97
97
97
97
97
97
97
97
97
97
97
97
97
97
97
97
100
166
235
216
96
100
237
255
161
97
106
246
255
157
97
146
254
255
255
255
255
255
255
255
255
255
255
255
255
189
97
104
246
255
175
97
106
249
254
140
97
173
251
191
117
97
97
97
97
97
97
97
97
97
97
97
97
97
97
97
97
97
97
97
97
97
97
97
97
97
97
97
97
97
97
97
97
97
97
97
97
97
97
97
97
97
97
97
97
97
97
97
97
97
97
97
97
97
97
97
97
97
97
97
97
97
97
97
97
97
97
97
97
97
97
97
97
97
97
97
97
97
97
97
97
97
97
97
97
97
97
97
97
97
97
97
97
97
97
97
97
97
97
97
97
97
97
97
97
97
97
96
128
183
121
117
253
252
122
97
144
254
252
112
98
180
255
255
255
255
255
255
255
255
255
255
255
255
255
210
96
96
228
255
206
97
97
230
255
180
111
173
157
96
97
97
97
97
97
97
97
97
97
97
97
97
97
97
97
97
97
97
97
97
97
97
97
97
97
97
97
97
97
97
97
97
97
97
97
97
97
97
97
97
97
97
97
97
97
97
97
97
97
97
97
97
97
97
97
97
97
97
97
97
97
97
97
97
97
97
97
97
97
97
97
97
97
97
97
97
97
97
97
97
97
97
97
97
97
97
97
97
97
97
97
97
97
97
97
97
97
97
97
97
97
97
97
97
97
97
97
97
97
96
129
167
252
251
110
97
162
255
243
103
97
195
255
255
255
255
255
255
255
255
255
255
255
255
255
216
96
95
222
255
216
96
96
219
254
214
156
100
97
97
97
97
97
97
97
97
97
97
97
97
97
97
97
97
97
97
97
97
97
97
97
97
97
97
97
97
97
97
97
97
97
97
97
97
97
97
97
97
97
97
97
97
97
97
97
97
97
97
97
97
97
97
97
97
97
97
97
97
97
97
97
97
97
97
97
97
97
97
97
97
97
97
97
97
97
97
97
97
97
97
97
97
97
97
97
97
97
97
97
97
97
97
97
97
97
97
97
97
97
97
97
97
97
97
97
97
97
97
97
97
97
96
139
209
160
107
151
255
252
111
97
184
255
255
255
255
255
255
255
255
255
255
255
255
255
214
96
96
229
255
209
107
158
211
162
98
97
97
97
97
97
97
97
97
97
97
97
97
97
97
97
97
97
97
97
97
97
97
97
97
97
97
97
97
97
97
97
97
97
97
97
97
97
97
97
97
97
97
97
97
97
97
97
97
97
97
97
97
97
97
97
97
97
97
97
97
97
97
97
97
97
97
97
97
97
97
97
97
97
97
97
97
97
97
97
97
97
97
97
97
97
97
97
97
97
97
97
97
97
97
97
97
97
97
97
97
97
97
97
97
97
97
97
97
97
97
97
97
97
97
97
97
97
96
117
167
180
250
255
149
97
139
254
255
255
255
255
255
255
255
255
255
255
255
255
191
97
105
247
253
222
186
131
95
97
97
97
97
97
97
97
97
97
97
97
97
97
97
97
97
97
97
97
97
97
97
97
97
97
97
97
97
97
97
97
97
97
97
97
97
97
97
97
97
97
97
97
97
97
97
97
97
97
97
97
97
97
97
97
97
97
97
97
97
97
97
97
97
97
97
97
97
97
97
97
97
97
97
97
97
97
97
97
97
97
97
97
97
97
97
97
97
97
97
97
97
97
97
97
97
97
97
97
97
97
97
97
97
97
97
97
97
97
97
97
97
97
97
97
97
97
97
97
97
97
97
96
120
162
182
149
159
239
255
255
255
255
255
255
255
255
255
255
255
253
182
186
190
177
126
99
96
97
97
97
97
97
97
97
97
97
97
97
97
97
97
97
97
97
97
97
97
97
97
97
97
97
97
97
97
97
97
97
97
97
97
97
97
97
97
97
97
97
97
97
97
97
97
97
97
97
97
97
97
97
97
97
97
97
97
97
97
97
97
97
97
97
97
97
97
97
97
97
97
97
97
97
97
97
97
97
97
97
97
97
97
97
97
97
97
97
97
97
97
97
97
97
97
97
97
97
97
97
97
97
97
97
97
97
97
97
97
97
97
97
97
97
97
97
97
97
97
97
97
97
97
97
97
97
96
96
109
141
164
187
199
207
215
215
215
207
200
190
173
147
120
95
96
97
97
97
97
97
97
97
97
97
97
97
97
97
97
97
97
97
97
97
97
97
97
97
97
97
97
97
97
97
97
97
97
97
97
97
97
97
97
97
97
97
97
97
97
97
97
97
97
97
97
97
97
97
97
97
97
97
97
97
97
97
97
97
97
97
97
97
97
97
97
97
97
97
97
97
97
97
97
97
97
97
97
97
97
97
97
97
97
97
97
97
97
97
97
97
97
97
97
97
97
97
97
97
97
97
97
97
97
97
97
97
97
97
97
97
97
97
97
97
97
97
97
97
97
97
97
97
97
97
97
97
97
97
97
97
97
97
97
96
96
96
96
96
97
97
97
97
97
97
97
97
97
97
97
97
97
97
97
97
97
97
97
97
97
97
97
97
97
97
97
97
97
97
97
97
97
97
97
97
97
97
97
97
97
97
97
97
97
97
97
97
97
97
97
97
97
97
97
97
97
97
97
97
97
97
97
97
97
97
97
97
97
97
97
97
97
97
97
97
97
97
97
97
97
97
97
97
97
97
97
97
97
97
97
97
97
97
97
97
97
97
97
97
97
97
97
97
97
97
97
97
97
97
97
97
97
97
97
97
97
97
97
97
97
97
97
97
97
97
97
97
97
97
97
97
97
97
97
97
97
97
97
97
97
97
97
97
97
97
97
97
97
97
97
97
97
97
97
97
97
97
97
97
97
97
97
97
97
97
97
97
97
97
97
97
97
97
97
97
97
97
97
97
97
97
97
97
97
97
97
97
97
97
97
97
97
97
97
97
97
97
97
97
97
97
97
97
97
97
97
97
97
97
97
97
97
97
97
97
97
97
97
97
97
97
97
97
97
97
97
97
97
97
97
97
97
97
97
97
97
97
97
97
97
97
97
97
97
97
97
97
97
97
97
97
97
97
97
97
97
97
97
97
97
97
97
97
97
97
97
97
97
97
97
97
97
97
97
97
97
97
97
97
97
97
97
97
97
97
97
97
97
97
97
97
97
97
97
97
97
97
97
97
97
97
97
97
97
97
97
97
97
97
97
97
97
97
97
97
97
97
97
97
97
97
97
97
97
97
97
97
97
97
97
97
97
97
97
97
97
97
97
97
97
97
97
97
97
97
97
97
97
97
97
97
97
97
97
97
97
97
97
97
97
97
97
97
97
97
97
97
97
97
97
97
97
97
97
97
97
97
97
97
97
97
97
97
97
97
97
97
97
97
97
97
97
97
97
97
97
97
97
97
97
97
97
97
97
97
97
97
97
97
97
97
97
97
97
97
97
97
97
97
97
97
97
97
97
97
97
97
97
97
97
97
97
97
97
97
97
97
97
97
97
97
97
97
97
97
97
97
97
97
97
97
97
97
97
97
97
97
97
97
97
97
97
97
97
97
97
97
97
97
97
97
97
97
97
97
97
97
97
97
97
97
97
97
97
97
97
97
97
97
97
97
97
97
97
97
97
97
97
97
97
97
97
97
97
97
97
97
97
97
97
97
97
97
97
97
97
97
97
97
97
97
97
97
97
97
97
97
97
97
97
97
97
97
97
97
97
97
97
97
97
97
97
97
97
97
97
97
97
97
97
97
97
97
97
97
97
97
97
97
97
97
97
97
97
97
97
97
97
97
97
97
97
97
97
97
97
97
97
97
97
97
97
97
97
97
97
97
97
97
97
97
97
97
97
97
97
97
97
97
97
97
97
97
97
97
97
97
97
97
97
97
97
97
97
97
97
97
97
97
97
97
97
97
97
97
97
97
97
97
97
97
97
97
97
97
97
97
97
97
97
97
97
97
97
97
97
97
97
97
97
97
97
97
97
97
97
97
97
97
97
97
97
97
97
97
97
97
97
97
97
97
97
97
97
97
97
97
97
97
97
97
97
97
97
97
97
97
97
97
97
97
97
97
97
97
97
97
97
97
97
97
97
97
97
97
97
97
97
97
97
97
97
97
97
97
97
97
97
97
97
97
97
97
97
97
97
97
97
97
97
97
97
97
97
97
97
97
97
97
97
97
97
97
97
97
97
97
97
97
97
97
97
97
97
97
97
97
97
97
97
97
97
97
97
97
97
97
97
97
97
97
97
97
97
97
97
97
97
97
97
97
97
97
97
97
97
97
97
97
97
97
97
97
97
97
97
97
97
97
97
97
97
97
97
97
97
97
97
97
97
97
97
97
97
97
97
97
97
97
97
97
97
97
97
97
97
97
97
97
97
97
97
97
97
97
97
97
97
97
97
97
97
97
97
97
97
97
97
97
97
97
97
97
97
97
97
97
97
97
97
97
97
97
97
97
97
97
97
97
97
97
97
97
97
97
97
97
97
97
97
97
97
97
97
97
97
97
97
97
97
97
97
97
97
97
97
97
97
97
97
97
97
97
97
97
97
97
97
97
97
97
97
97
97
97
97
97
97
97
97
97
97
97
97
97
97
97
97
97
97
97
97
97
97
97
97
97
97
97
97
97
97
97
97
97
97
97
97
97
97
97
97
97
97
97
97
97
97
97
97
97
97
97
97
97
97
97
97
97
97
97
97
97
97
97
97
97
97
97
97
97
97
97
97
97
97
97
97
97
97
97
97
97
97
97
97
97
97
97
97
97
97
97
97
97
97
97
97
97
97
97
97
97
97
97
97
97
97
97
97
97
97
97
97
97
97
97
97
97
97
97
97
97
97
97
97
97
97
97
97
97
97
97
97
97
97
97
97
97
97
97
97
97
97
97
97
97
97
97
97
97
97
97
97
97
97
97
97
97
97
97
97
97
97
97
97
97
97
97
97
97
97
97
97
97
97
97
97
97
97
97
97
97
97
97
97
97
97
97
97
97
97
97
97
97
97
97
97
97
97
97
97
97
97
97
97
97
97
97
97
97
97
97
97
97
97
97
97
97
97
97
97
97
97
97
97
97
97
97
97
97
97
97
97
97
97
97
97
97
97
97
97
97
97
97
97
97
97
97
97
97
97
97
97
97
97
97
97
97
97
97
97
97
97
97
97
97
97
97
97
97
97
97
97
97
97
97
97
97
97
97
97
97
97
97
97
97
97
97
97
97
97
97
97
97
97
97
97
97
97
97
97
97
97
97
97
97
97
97
97
97
97
97
97
97
97
97
97
97
97
97
97
97
97
97
97
97
97
97
97
97
97
97
97
97
97
97
97
97
97
97
97
97
97
97
97
97
97
97
97
97
97
97
97
97
97
97
97
97
97
97
97
97
97
97
97
97
97
97
97
97
97
97
97
97
97
97
97
97
97
97
97
97
97
97
97
97
97
97
97
97
97
97
97
97
97
97
97
97
97
97
97
97
97
97
97
97
97
97
97
97
97
97
97
97
97
97
97
97
97
97
97
97
97
97
97
97
97
97
97
97
97
97
97
97
97
97
97
97
97
97
97
97
97
97
97
97
97
97
97
97
97
97
97
97
97
97
97
97
97
97
97
97
97
97
97
97
97
97
97
97
97
97
97
97
97
97
97
97
97
97
97
97
97
97
97
97
97
97
97
97
97
97
97
97
97
97
97
97
97
97
97
97
97
97
97
97
97
97
97
97
97
97
97
97
97
